<svg xmlns="http://www.w3.org/2000/svg" xmlns:xlink="http://www.w3.org/1999/xlink" width="500" zoomAndPan="magnify" viewBox="0 0 375 374.999991" height="500" preserveAspectRatio="xMidYMid meet" version="1.2"><defs><clipPath id="ea8aa4d20c"><path d="M 56.25 80 L 314 80 L 314 207 L 56.25 207 Z M 56.25 80 "/></clipPath><clipPath id="9ae145f09b"><path d="M 56.25 85 L 125 85 L 125 207 L 56.25 207 Z M 56.25 85 "/></clipPath><clipPath id="634490b53a"><path d="M 56.25 83 L 313 83 L 313 160 L 56.25 160 Z M 56.25 83 "/></clipPath><clipPath id="b7785c2970"><path d="M 56.25 81 L 314 81 L 314 157 L 56.25 157 Z M 56.25 81 "/></clipPath><clipPath id="2c95ba103b"><path d="M 56.25 85 L 125 85 L 125 157 L 56.25 157 Z M 56.25 85 "/></clipPath><clipPath id="ed5d4a4ae5"><path d="M 99 199 L 267 199 L 267 310.875 L 99 310.875 Z M 99 199 "/></clipPath></defs><g id="397fe885b2"><g clip-rule="nonzero" clip-path="url(#ea8aa4d20c)"><path style=" stroke:none;fill-rule:nonzero;fill:#4c5c75;fill-opacity:1;" d="M 313.121094 134.476562 C 313.066406 135.3125 308.074219 211.328125 308.390625 206.53125 C 308.390625 192.582031 284.648438 182.941406 251.8125 177.597656 C 210.816406 170.925781 155.644531 170.964844 114.808594 177.703125 L 114.800781 177.703125 C 82.316406 183.070312 58.90625 192.683594 58.90625 206.53125 C 58.847656 204.96875 56.527344 141.980469 56.671875 145.875 C 56.640625 145.066406 56.214844 133.53125 56.246094 134.339844 C 56.246094 112.460938 79.894531 97.210938 112.839844 88.613281 L 112.882812 88.597656 C 118.59375 87.105469 122.660156 86.316406 124.28125 85.964844 L 124.28125 85.957031 C 162.371094 78.1875 209.636719 78.34375 247.351562 86.441406 C 318.457031 101.667969 312.554688 133.675781 313.121094 134.476562 Z M 313.121094 134.476562 "/></g><g clip-rule="nonzero" clip-path="url(#9ae145f09b)"><path style=" stroke:none;fill-rule:nonzero;fill:#8b95af;fill-opacity:1;" d="M 124.28125 85.957031 L 124.28125 85.964844 L 124.113281 86.75 L 117.742188 116.871094 L 117.742188 175.328125 L 114.808594 177.703125 L 114.800781 177.703125 C 82.316406 183.070312 58.90625 192.683594 58.90625 206.53125 C 58.847656 204.96875 56.527344 141.980469 56.671875 145.875 C 56.230469 134.339844 56.230469 135.140625 56.253906 134.558594 L 56.246094 134.339844 C 56.246094 112.460938 79.894531 97.210938 112.839844 88.613281 L 112.882812 88.597656 L 124.15625 85.988281 L 124.230469 85.972656 Z M 124.28125 85.957031 "/></g><path style=" stroke:none;fill-rule:nonzero;fill:#4c5c75;fill-opacity:1;" d="M 311.808594 155.117188 C 311.796875 155.074219 311.785156 155.035156 311.765625 154.992188 L 308.390625 206.53125 C 308.390625 192.582031 284.648438 182.941406 251.8125 177.597656 C 251.851562 176.761719 254.449219 116.714844 254.414062 117.527344 C 254.234375 116.722656 246.882812 84.375 247.351562 86.441406 C 284.996094 94.503906 313.125 110.472656 313.125 134.339844 C 313.125 135.511719 313.339844 131.945312 311.808594 155.117188 Z M 311.808594 155.117188 "/><g clip-rule="nonzero" clip-path="url(#634490b53a)"><path style=" stroke:none;fill-rule:nonzero;fill:#111d33;fill-opacity:0.58;" d="M 312.625 137.460938 L 311.589844 157.726562 C 293.003906 100.445312 72.667969 100.800781 57.167969 159.335938 L 56.632812 137.460938 C 56.632812 65.339844 312.625 65.339844 312.625 137.460938 Z M 312.625 137.460938 "/></g><g clip-rule="nonzero" clip-path="url(#b7785c2970)"><path style=" stroke:none;fill-rule:nonzero;fill:#4c5c75;fill-opacity:1;" d="M 311.808594 155.117188 C 310.992188 154.234375 308.222656 130.953125 254.414062 117.539062 C 213.554688 107.328125 159.1875 107.109375 117.742188 116.871094 C 85.933594 124.355469 61.738281 137.722656 57.105469 156.964844 C 57.007812 154.433594 56.195312 133.796875 56.246094 135.097656 C 56.246094 106.421875 95.992188 92.507812 124.113281 86.75 C 162.289062 78.929688 209.730469 79.09375 247.53125 87.230469 C 284.761719 95.238281 312.640625 110.992188 313.121094 134.476562 C 313.148438 135.398438 313.207031 133.441406 311.808594 155.117188 Z M 311.808594 155.117188 "/></g><path style=" stroke:none;fill-rule:nonzero;fill:#31445b;fill-opacity:1;" d="M 311.808594 155.117188 C 310.992188 154.234375 308.222656 130.953125 254.414062 117.539062 C 251.371094 104.128906 247.269531 86.070312 247.53125 87.230469 L 247.351562 86.441406 C 284.996094 94.503906 313.125 110.472656 313.125 134.339844 C 313.125 135.511719 313.339844 131.945312 311.808594 155.117188 Z M 311.808594 155.117188 "/><g clip-rule="nonzero" clip-path="url(#2c95ba103b)"><path style=" stroke:none;fill-rule:nonzero;fill:#8b95af;fill-opacity:1;" d="M 124.28125 85.957031 C 124.109375 86.765625 117.3125 118.898438 117.742188 116.871094 C 85.933594 124.355469 61.738281 137.722656 57.105469 156.964844 C 57.007812 154.433594 56.195312 133.796875 56.246094 135.097656 C 56.246094 108.753906 87.335938 95.269531 112.839844 88.613281 L 112.882812 88.597656 L 124.15625 85.988281 L 124.230469 85.972656 Z M 124.28125 85.957031 "/></g><path style=" stroke:none;fill-rule:nonzero;fill:#c9cee2;fill-opacity:1;" d="M 308.582031 206.917969 C 308.582031 216.785156 300.445312 225.949219 286.546875 233.496094 C 284.328125 234.699219 281.964844 235.859375 279.460938 236.976562 C 256.558594 247.238281 222.175781 253.753906 183.742188 253.753906 C 151.585938 253.753906 108.414062 248.675781 80.394531 233.195312 C 66.824219 225.707031 58.898438 216.660156 58.898438 206.917969 C 58.898438 190.148438 82.402344 175.4375 117.726562 167.167969 C 117.734375 167.167969 117.734375 167.167969 117.742188 167.167969 C 136.886719 162.683594 159.507812 160.089844 183.742188 160.089844 C 209.050781 160.089844 232.585938 162.917969 252.25 167.769531 L 252.257812 167.769531 C 286.183594 176.136719 308.582031 190.546875 308.582031 206.917969 Z M 308.582031 206.917969 "/><path style=" stroke:none;fill-rule:nonzero;fill:#e3e7f0;fill-opacity:1;" d="M 137.332031 211.523438 L 90.296875 237.96875 C 76.703125 232.230469 58.898438 221.675781 58.898438 206.917969 C 58.898438 190.148438 82.402344 175.4375 117.726562 167.167969 C 117.734375 167.167969 117.734375 167.167969 117.742188 167.167969 Z M 137.332031 211.523438 "/><path style=" stroke:none;fill-rule:nonzero;fill:#b0b8cf;fill-opacity:1;" d="M 308.582031 206.917969 C 308.582031 216.785156 300.445312 225.949219 286.546875 233.496094 C 284.328125 234.699219 281.964844 235.859375 279.460938 236.976562 L 232.683594 217.765625 L 252.238281 167.769531 C 252.242188 167.769531 252.242188 167.769531 252.25 167.769531 L 252.257812 167.769531 C 286.183594 176.136719 308.582031 190.546875 308.582031 206.917969 Z M 308.582031 206.917969 "/><path style=" stroke:none;fill-rule:nonzero;fill:#9ea9c9;fill-opacity:1;" d="M 286.53125 233.507812 C 258.472656 248.671875 215.980469 253.734375 183.777344 253.734375 C 154.890625 253.734375 120.773438 249.921875 93.789062 239.367188 C 90 237.921875 84.574219 235.542969 80.382812 233.183594 C 99.222656 207.648438 151.332031 199.710938 183.375 199.710938 C 203.285156 199.710938 224.433594 202.128906 243.261719 207.816406 C 257.625 211.925781 277.976562 220.96875 286.53125 233.507812 Z M 286.53125 233.507812 "/><path style=" stroke:none;fill-rule:nonzero;fill:#9ea9c9;fill-opacity:1;" d="M 282.246094 228.464844 C 254.234375 242.207031 214.484375 246.886719 183.003906 246.886719 C 151.910156 246.886719 112.21875 242.257812 84.242188 228.699219 C 89.296875 223.582031 95.78125 219.378906 102.125 216.167969 C 132.898438 200.496094 177.109375 197.109375 211.917969 201.382812 C 234.78125 204.1875 265.929688 212.101562 282.246094 228.464844 Z M 282.246094 228.464844 "/><path style=" stroke:none;fill-rule:nonzero;fill:#111d33;fill-opacity:0.3;" d="M 271.597656 240.167969 C 269.75 240.890625 267.824219 241.535156 265.898438 242.175781 C 243.902344 249.398438 215.164062 253.734375 183.777344 253.734375 C 154.890625 253.734375 120.773438 249.921875 93.789062 239.367188 C 93.46875 233.894531 93.910156 226.390625 95.3125 220.019531 C 101.429688 215.941406 115.082031 209.78125 128.066406 206.535156 C 170.425781 195.113281 233.773438 197.417969 269.992188 219.136719 C 271.894531 227.480469 271.929688 233.570312 271.597656 240.167969 Z M 271.597656 240.167969 "/><g clip-rule="nonzero" clip-path="url(#ed5d4a4ae5)"><path style=" stroke:none;fill-rule:nonzero;fill:#111d33;fill-opacity:1;" d="M 265.863281 242.183594 C 261.9375 280.222656 226.210938 310.003906 182.734375 310.003906 C 136.46875 310.003906 97.574219 275.742188 99.308594 232.382812 C 99.441406 229.148438 100.976562 221.484375 102.125 216.167969 C 145.546875 194.054688 220.882812 194.484375 263.632812 215.683594 C 265.796875 226.316406 266.796875 233.347656 265.863281 242.183594 Z M 265.863281 242.183594 "/></g><path style=" stroke:none;fill-rule:nonzero;fill:#31445b;fill-opacity:1;" d="M 182.734375 301.265625 C 141.246094 301.265625 106.519531 269 108.039062 228.273438 C 108.089844 226.996094 108.589844 223.351562 109.792969 217.023438 C 149.949219 197.476562 215.964844 197.691406 255.886719 216.523438 C 257.25 224.671875 257.933594 229.703125 257.171875 237.359375 C 253.699219 273.214844 221.640625 301.265625 182.734375 301.265625 Z M 182.734375 301.265625 "/><path style=" stroke:none;fill-rule:nonzero;fill:#ffffff;fill-opacity:1;" d="M 285.742188 155.53125 C 290.636719 158.882812 296.40625 162.128906 300.308594 162.007812 C 304.207031 161.921875 303.453125 156.75 296.085938 151.597656 C 288.714844 146.453125 280.183594 144.890625 278.785156 146.734375 C 277.296875 148.59375 280.949219 152.121094 285.742188 155.53125 Z M 285.742188 155.53125 "/><path style=" stroke:none;fill-rule:nonzero;fill:#ffffff;fill-opacity:1;" d="M 248.164062 133.875 C 233.035156 132.441406 226.402344 138.09375 230.632812 140.910156 C 234.726562 143.777344 243.988281 144.210938 252.914062 145.207031 C 261.8125 145.941406 270.515625 146.898438 272.269531 144.484375 C 274.207031 142.230469 263.375 135.359375 248.164062 133.875 Z M 248.164062 133.875 "/><path style=" stroke:none;fill-rule:nonzero;fill:#b0b8cf;fill-opacity:1;" d="M 178.554688 286.773438 C 178.554688 284.121094 180.726562 281.957031 183.378906 281.957031 C 183.542969 281.957031 184.011719 281.957031 184.175781 281.957031 C 186.828125 281.871094 188.992188 283.964844 189.078125 286.617188 C 189.15625 289.34375 187.070312 291.507812 184.421875 291.585938 C 184.253906 291.585938 184.097656 291.585938 183.933594 291.585938 C 183.699219 291.585938 183.535156 291.585938 183.378906 291.585938 C 180.726562 291.585938 178.554688 289.421875 178.554688 286.773438 Z M 158.730469 283.644531 C 156.558594 282.039062 156.082031 279.066406 157.6875 276.894531 C 159.207031 274.730469 162.257812 274.253906 164.429688 275.851562 C 166.59375 277.378906 167 280.429688 165.472656 282.515625 C 164.507812 283.878906 163.066406 284.523438 161.535156 284.523438 C 160.574219 284.523438 159.617188 284.285156 158.730469 283.644531 Z M 202.960938 275.375 L 202.960938 275.296875 C 205.046875 273.6875 208.09375 274.167969 209.703125 276.257812 C 211.308594 278.34375 210.910156 281.394531 208.824219 283 C 207.9375 283.644531 206.894531 283.964844 205.851562 283.964844 C 201.394531 283.964844 199.175781 278.183594 202.960938 275.375 Z M 143.476562 262.769531 C 142.597656 260.28125 143.960938 257.554688 146.523438 256.667969 C 149.015625 255.871094 151.746094 257.234375 152.632812 259.71875 C 153.429688 262.289062 152.066406 265.019531 149.582031 265.816406 C 149.015625 265.980469 148.53125 266.058594 148.054688 266.058594 C 145.96875 266.058594 144.117188 264.773438 143.476562 262.769531 Z M 214.359375 258.996094 C 215.078125 256.425781 217.816406 254.984375 220.378906 255.78125 C 222.871094 256.511719 224.316406 259.238281 223.59375 261.804688 C 222.949219 263.8125 221.023438 265.175781 218.9375 265.175781 C 215.527344 265.175781 213.433594 261.871094 214.359375 258.996094 Z M 143.316406 236.921875 C 144.117188 234.351562 146.847656 232.984375 149.339844 233.792969 C 151.902344 234.59375 153.273438 237.242188 152.464844 239.8125 C 151.824219 241.898438 149.894531 243.183594 147.886719 243.183594 C 144.730469 243.183594 142.296875 240.066406 143.316406 236.921875 Z M 213.957031 239.085938 C 213.074219 236.523438 214.4375 233.792969 216.929688 232.984375 C 219.414062 232.109375 222.230469 233.386719 223.105469 235.957031 C 223.914062 238.449219 222.628906 241.179688 220.058594 242.054688 C 219.578125 242.222656 219.09375 242.300781 218.535156 242.300781 C 216.53125 242.300781 214.679688 241.011719 213.957031 239.085938 Z M 158.332031 215.886719 C 160.414062 214.28125 163.464844 214.679688 165.074219 216.851562 C 166.59375 219.015625 166.195312 221.988281 164.109375 223.59375 C 163.222656 224.238281 162.179688 224.558594 161.214844 224.558594 C 156.285156 224.558594 154.746094 218.410156 158.332031 215.886719 Z M 200.796875 216.453125 C 202.316406 214.28125 205.367188 213.726562 207.539062 215.246094 C 209.703125 216.773438 210.1875 219.746094 208.660156 221.988281 C 207.78125 223.273438 206.253906 223.996094 204.722656 223.996094 C 200.878906 223.996094 198.585938 219.582031 200.796875 216.453125 Z M 178.078125 212.4375 C 177.992188 209.789062 180.164062 207.617188 182.8125 207.617188 C 185.460938 207.539062 187.625 209.710938 187.710938 212.359375 C 187.710938 215.003906 185.621094 217.175781 182.96875 217.253906 C 182.890625 217.253906 182.890625 217.253906 182.890625 217.253906 C 180.242188 217.253906 178.078125 215.089844 178.078125 212.4375 Z M 178.078125 212.4375 "/><path style=" stroke:none;fill-rule:nonzero;fill:#8b95af;fill-opacity:1;" d="M 183.609375 273.828125 C 170.25 273.828125 159.378906 262.957031 159.378906 249.597656 C 159.378906 236.238281 170.25 225.371094 183.609375 225.371094 C 196.96875 225.371094 207.835938 236.238281 207.835938 249.597656 C 207.835938 262.957031 196.96875 273.828125 183.609375 273.828125 Z M 183.609375 229.035156 C 172.269531 229.035156 163.042969 238.261719 163.042969 249.597656 C 163.042969 260.9375 172.269531 270.160156 183.609375 270.160156 C 194.945312 270.160156 204.167969 260.9375 204.167969 249.597656 C 204.167969 238.261719 194.945312 229.035156 183.609375 229.035156 Z M 183.609375 229.035156 "/><path style=" stroke:none;fill-rule:nonzero;fill:#111d33;fill-opacity:1;" d="M 198.320312 249.597656 C 198.320312 257.714844 191.722656 264.3125 183.605469 264.3125 C 175.492188 264.3125 168.894531 257.714844 168.894531 249.597656 C 168.894531 241.484375 175.492188 234.886719 183.605469 234.886719 C 191.722656 234.886719 198.320312 241.484375 198.320312 249.597656 Z M 198.320312 249.597656 "/><path style=" stroke:none;fill-rule:nonzero;fill:#ffffff;fill-opacity:1;" d="M 188.976562 249.640625 C 188.976562 252.546875 186.523438 254.90625 183.617188 254.90625 C 180.621094 254.90625 178.257812 252.546875 178.257812 249.640625 C 178.257812 246.644531 180.621094 244.285156 183.617188 244.285156 C 186.523438 244.285156 188.976562 246.644531 188.976562 249.640625 Z M 188.976562 249.640625 "/><path style=" stroke:none;fill-rule:nonzero;fill:#ffffff;fill-opacity:1;" d="M 195.261719 238.933594 C 195.261719 240.449219 194.027344 241.683594 192.511719 241.683594 C 190.992188 241.683594 189.761719 240.449219 189.761719 238.933594 C 189.761719 237.414062 190.992188 236.183594 192.511719 236.183594 C 194.027344 236.183594 195.261719 237.414062 195.261719 238.933594 Z M 195.261719 238.933594 "/><path style=" stroke:none;fill-rule:nonzero;fill:#ffffff;fill-opacity:0.15;" d="M 129.59375 236.183594 C 129.59375 242.960938 126.816406 248.476562 123.40625 248.476562 C 119.996094 248.476562 117.222656 242.960938 117.222656 236.183594 C 117.222656 229.402344 119.996094 223.890625 123.40625 223.890625 C 126.816406 223.890625 129.59375 229.402344 129.59375 236.183594 Z M 129.59375 236.183594 "/></g></svg>