<svg xmlns="http://www.w3.org/2000/svg" xmlns:xlink="http://www.w3.org/1999/xlink" width="500" zoomAndPan="magnify" viewBox="0 0 375 374.999991" height="500" preserveAspectRatio="xMidYMid meet" version="1.2"><defs><clipPath id="4667e30a61"><path d="M 102 136 L 273 136 L 273 305.878906 L 102 305.878906 Z M 102 136 "/></clipPath></defs><g id="bf55b28e96"><path style=" stroke:none;fill-rule:nonzero;fill:#c7c7c7;fill-opacity:1;" d="M 272.164062 229.90625 L 102.839844 229.90625 C 102.839844 229.90625 71.269531 201.234375 72.703125 114.75 C 72.703125 68.878906 302.296875 68.878906 302.296875 114.269531 C 303.730469 201.234375 272.164062 229.90625 272.164062 229.90625 Z M 272.164062 229.90625 "/><path style=" stroke:none;fill-rule:nonzero;fill:#c7c7c7;fill-opacity:1;" d="M 302.296875 119.050781 C 302.296875 122.871094 302.296875 126.21875 302.296875 129.5625 C 297.035156 124.304688 286.035156 119.527344 270.726562 115.703125 C 248.726562 110.449219 219.070312 107.582031 187.5 107.582031 C 131.539062 107.582031 85.617188 116.660156 72.703125 129.5625 C 72.703125 126.21875 72.703125 122.394531 72.703125 119.050781 C 72.703125 117.617188 72.703125 116.183594 72.703125 114.269531 C 72.703125 68.878906 302.296875 68.878906 302.296875 114.269531 C 302.296875 116.183594 302.296875 117.617188 302.296875 119.050781 Z M 302.296875 119.050781 "/><g clip-rule="nonzero" clip-path="url(#4667e30a61)"><path style=" stroke:none;fill-rule:nonzero;fill:#efefed;fill-opacity:1;" d="M 272.164062 221.304688 C 272.164062 268.128906 234.375 305.878906 187.5 305.878906 C 140.625 305.878906 102.839844 268.128906 102.839844 221.304688 C 102.839844 174.476562 140.625 136.730469 187.5 136.730469 C 234.375 136.730469 272.164062 174.476562 272.164062 221.304688 Z M 272.164062 221.304688 "/></g><path style=" stroke:none;fill-rule:nonzero;fill:#e4e4e3;fill-opacity:1;" d="M 102.839844 221.304688 C 100.445312 198.847656 108.578125 175.433594 124.363281 158.230469 C 132.492188 149.628906 142.058594 142.941406 153.0625 138.164062 C 164.0625 133.382812 175.542969 130.996094 187.5 130.996094 C 199.457031 130.996094 210.9375 133.382812 221.941406 138.164062 C 232.941406 142.941406 242.507812 149.628906 250.640625 158.230469 C 266.902344 175.433594 275.03125 198.847656 272.164062 221.304688 C 269.773438 199.324219 259.726562 178.777344 244.421875 164.441406 C 229.113281 150.109375 208.546875 141.984375 187.5 141.984375 C 166.933594 141.984375 146.363281 150.109375 130.582031 164.441406 C 115.273438 178.777344 105.230469 198.847656 102.839844 221.304688 Z M 102.839844 221.304688 "/><path style=" stroke:none;fill-rule:nonzero;fill:#444445;fill-opacity:1;" d="M 252.074219 221.304688 C 252.074219 257.140625 222.894531 285.808594 187.5 285.808594 C 152.105469 285.808594 122.925781 256.664062 122.925781 221.304688 C 122.925781 185.945312 151.625 156.320312 187.5 156.320312 C 223.375 156.320312 252.074219 185.46875 252.074219 221.304688 Z M 252.074219 221.304688 "/><path style=" stroke:none;fill-rule:nonzero;fill:#696967;fill-opacity:1;" d="M 221.941406 221.304688 C 221.941406 222.429688 221.882812 223.554688 221.773438 224.675781 C 221.664062 225.796875 221.496094 226.910156 221.277344 228.015625 C 221.058594 229.121094 220.785156 230.210938 220.457031 231.289062 C 220.128906 232.367188 219.75 233.429688 219.316406 234.46875 C 218.886719 235.511719 218.40625 236.527344 217.875 237.519531 C 217.339844 238.515625 216.761719 239.480469 216.136719 240.417969 C 215.507812 241.355469 214.835938 242.257812 214.121094 243.128906 C 213.40625 244 212.648438 244.832031 211.851562 245.628906 C 211.054688 246.425781 210.21875 247.183594 209.347656 247.898438 C 208.476562 248.613281 207.570312 249.28125 206.632812 249.910156 C 205.695312 250.535156 204.730469 251.113281 203.734375 251.644531 C 202.742188 252.175781 201.722656 252.65625 200.679688 253.089844 C 199.636719 253.519531 198.578125 253.898438 197.496094 254.226562 C 196.417969 254.550781 195.324219 254.824219 194.21875 255.046875 C 193.113281 255.265625 192 255.429688 190.875 255.542969 C 189.753906 255.652344 188.628906 255.707031 187.5 255.707031 C 186.371094 255.707031 185.246094 255.652344 184.125 255.542969 C 183.003906 255.429688 181.886719 255.265625 180.78125 255.046875 C 179.675781 254.824219 178.582031 254.550781 177.503906 254.226562 C 176.425781 253.898438 175.363281 253.519531 174.320312 253.089844 C 173.277344 252.65625 172.261719 252.175781 171.265625 251.644531 C 170.269531 251.113281 169.304688 250.535156 168.367188 249.910156 C 167.429688 249.28125 166.523438 248.613281 165.652344 247.898438 C 164.78125 247.183594 163.945312 246.425781 163.148438 245.628906 C 162.351562 244.832031 161.59375 244 160.878906 243.128906 C 160.164062 242.257812 159.492188 241.355469 158.867188 240.417969 C 158.238281 239.480469 157.660156 238.515625 157.128906 237.519531 C 156.597656 236.527344 156.113281 235.511719 155.683594 234.46875 C 155.25 233.429688 154.871094 232.367188 154.542969 231.289062 C 154.21875 230.210938 153.945312 229.121094 153.722656 228.015625 C 153.503906 226.910156 153.339844 225.796875 153.226562 224.675781 C 153.117188 223.554688 153.0625 222.429688 153.0625 221.304688 C 153.0625 220.175781 153.117188 219.054688 153.226562 217.929688 C 153.339844 216.808594 153.503906 215.695312 153.722656 214.589844 C 153.945312 213.488281 154.21875 212.394531 154.542969 211.316406 C 154.871094 210.238281 155.25 209.179688 155.683594 208.136719 C 156.113281 207.097656 156.597656 206.078125 157.128906 205.085938 C 157.660156 204.09375 158.238281 203.128906 158.867188 202.191406 C 159.492188 201.253906 160.164062 200.347656 160.878906 199.476562 C 161.59375 198.605469 162.351562 197.773438 163.148438 196.976562 C 163.945312 196.179688 164.78125 195.425781 165.652344 194.710938 C 166.523438 193.996094 167.429688 193.324219 168.367188 192.699219 C 169.304688 192.074219 170.269531 191.492188 171.265625 190.960938 C 172.261719 190.429688 173.277344 189.949219 174.320312 189.519531 C 175.363281 189.089844 176.425781 188.707031 177.503906 188.382812 C 178.582031 188.054688 179.675781 187.78125 180.78125 187.5625 C 181.886719 187.339844 183.003906 187.175781 184.125 187.066406 C 185.246094 186.957031 186.371094 186.898438 187.5 186.898438 C 188.628906 186.898438 189.753906 186.957031 190.875 187.066406 C 192 187.175781 193.113281 187.339844 194.21875 187.5625 C 195.324219 187.78125 196.417969 188.054688 197.496094 188.382812 C 198.578125 188.707031 199.636719 189.089844 200.679688 189.519531 C 201.722656 189.949219 202.742188 190.429688 203.734375 190.960938 C 204.730469 191.492188 205.695312 192.074219 206.632812 192.699219 C 207.570312 193.324219 208.476562 193.996094 209.347656 194.710938 C 210.21875 195.425781 211.054688 196.179688 211.851562 196.976562 C 212.648438 197.773438 213.40625 198.605469 214.121094 199.476562 C 214.835938 200.347656 215.507812 201.253906 216.136719 202.191406 C 216.761719 203.128906 217.339844 204.09375 217.875 205.085938 C 218.40625 206.078125 218.886719 207.097656 219.316406 208.136719 C 219.75 209.179688 220.128906 210.238281 220.457031 211.316406 C 220.785156 212.394531 221.058594 213.488281 221.277344 214.59375 C 221.496094 215.695312 221.664062 216.808594 221.773438 217.929688 C 221.882812 219.054688 221.941406 220.175781 221.941406 221.304688 Z M 221.941406 221.304688 "/><path style=" stroke:none;fill-rule:nonzero;fill:#59b1e3;fill-opacity:1;" d="M 207.589844 221.304688 C 207.589844 232.292969 198.5 241.371094 187.5 241.371094 C 176.5 241.371094 167.410156 232.292969 167.410156 221.304688 C 167.410156 210.3125 176.5 201.234375 187.5 201.234375 C 198.5 201.234375 207.589844 210.3125 207.589844 221.304688 Z M 207.589844 221.304688 "/><path style=" stroke:none;fill-rule:nonzero;fill:#444445;fill-opacity:1;" d="M 198.980469 221.304688 C 198.980469 227.515625 193.71875 232.769531 187.5 232.769531 C 181.28125 232.769531 176.019531 227.515625 176.019531 221.304688 C 176.019531 215.09375 181.28125 209.835938 187.5 209.835938 C 193.71875 209.835938 198.980469 215.09375 198.980469 221.304688 Z M 198.980469 221.304688 "/><path style=" stroke:none;fill-rule:nonzero;fill:#e4e4e3;fill-opacity:1;" d="M 196.109375 171.609375 C 196.109375 176.386719 192.285156 180.210938 187.5 180.210938 C 182.71875 180.210938 178.890625 176.386719 178.890625 171.609375 C 178.890625 166.832031 182.71875 163.007812 187.5 163.007812 C 192.285156 163.007812 196.109375 166.832031 196.109375 171.609375 Z M 196.109375 171.609375 "/><path style=" stroke:none;fill-rule:nonzero;fill:#e4e4e3;fill-opacity:1;" d="M 196.109375 270.519531 C 196.109375 275.296875 192.285156 279.121094 187.5 279.121094 C 182.71875 279.121094 178.890625 275.296875 178.890625 270.519531 C 178.890625 265.742188 182.71875 261.917969 187.5 261.917969 C 192.285156 261.917969 196.109375 265.742188 196.109375 270.519531 Z M 196.109375 270.519531 "/><path style=" stroke:none;fill-rule:nonzero;fill:#e4e4e3;fill-opacity:1;" d="M 231.027344 256.183594 C 231.027344 256.75 230.972656 257.308594 230.863281 257.863281 C 230.75 258.417969 230.589844 258.953125 230.371094 259.476562 C 230.15625 259.996094 229.890625 260.492188 229.578125 260.964844 C 229.261719 261.433594 228.90625 261.867188 228.507812 262.265625 C 228.105469 262.664062 227.671875 263.023438 227.203125 263.335938 C 226.730469 263.648438 226.234375 263.914062 225.710938 264.128906 C 225.191406 264.347656 224.652344 264.511719 224.097656 264.621094 C 223.542969 264.730469 222.984375 264.785156 222.417969 264.785156 C 221.851562 264.785156 221.292969 264.730469 220.738281 264.621094 C 220.183594 264.511719 219.644531 264.347656 219.125 264.128906 C 218.601562 263.914062 218.105469 263.648438 217.632812 263.335938 C 217.164062 263.023438 216.730469 262.664062 216.328125 262.265625 C 215.929688 261.867188 215.574219 261.433594 215.257812 260.964844 C 214.945312 260.492188 214.679688 259.996094 214.464844 259.476562 C 214.246094 258.953125 214.082031 258.417969 213.972656 257.863281 C 213.863281 257.308594 213.808594 256.75 213.808594 256.183594 C 213.808594 255.621094 213.863281 255.058594 213.972656 254.507812 C 214.082031 253.953125 214.246094 253.414062 214.464844 252.894531 C 214.679688 252.371094 214.945312 251.875 215.257812 251.40625 C 215.574219 250.9375 215.929688 250.503906 216.328125 250.101562 C 216.730469 249.703125 217.164062 249.347656 217.632812 249.035156 C 218.105469 248.71875 218.601562 248.453125 219.125 248.238281 C 219.644531 248.023438 220.183594 247.859375 220.738281 247.75 C 221.292969 247.640625 221.851562 247.582031 222.417969 247.582031 C 222.984375 247.582031 223.542969 247.640625 224.097656 247.75 C 224.652344 247.859375 225.191406 248.023438 225.710938 248.238281 C 226.234375 248.453125 226.730469 248.71875 227.203125 249.035156 C 227.671875 249.347656 228.105469 249.703125 228.507812 250.101562 C 228.90625 250.503906 229.261719 250.9375 229.578125 251.40625 C 229.890625 251.875 230.15625 252.371094 230.371094 252.894531 C 230.589844 253.414062 230.75 253.953125 230.863281 254.507812 C 230.972656 255.058594 231.027344 255.621094 231.027344 256.183594 Z M 231.027344 256.183594 "/><path style=" stroke:none;fill-rule:nonzero;fill:#e4e4e3;fill-opacity:1;" d="M 245.378906 221.304688 C 245.378906 226.082031 241.550781 229.90625 236.765625 229.90625 C 231.984375 229.90625 228.15625 226.082031 228.15625 221.304688 C 228.15625 216.523438 231.984375 212.703125 236.765625 212.703125 C 241.550781 212.703125 245.378906 216.523438 245.378906 221.304688 Z M 245.378906 221.304688 "/><path style=" stroke:none;fill-rule:nonzero;fill:#e4e4e3;fill-opacity:1;" d="M 146.363281 221.304688 C 146.363281 221.867188 146.308594 222.425781 146.199219 222.980469 C 146.089844 223.535156 145.925781 224.074219 145.710938 224.59375 C 145.492188 225.117188 145.226562 225.613281 144.914062 226.082031 C 144.601562 226.550781 144.242188 226.984375 143.84375 227.386719 C 143.445312 227.785156 143.007812 228.140625 142.539062 228.453125 C 142.070312 228.769531 141.574219 229.035156 141.050781 229.25 C 140.527344 229.464844 139.988281 229.628906 139.433594 229.738281 C 138.878906 229.847656 138.320312 229.90625 137.753906 229.90625 C 137.191406 229.90625 136.628906 229.847656 136.074219 229.738281 C 135.519531 229.628906 134.984375 229.464844 134.460938 229.25 C 133.9375 229.035156 133.441406 228.769531 132.972656 228.453125 C 132.503906 228.140625 132.066406 227.785156 131.667969 227.386719 C 131.269531 226.984375 130.910156 226.550781 130.597656 226.082031 C 130.28125 225.613281 130.015625 225.117188 129.800781 224.59375 C 129.585938 224.074219 129.421875 223.535156 129.3125 222.980469 C 129.199219 222.425781 129.144531 221.867188 129.144531 221.304688 C 129.144531 220.738281 129.199219 220.179688 129.3125 219.625 C 129.421875 219.070312 129.585938 218.535156 129.800781 218.011719 C 130.015625 217.492188 130.28125 216.996094 130.597656 216.523438 C 130.910156 216.054688 131.269531 215.621094 131.667969 215.222656 C 132.066406 214.824219 132.503906 214.464844 132.972656 214.152344 C 133.441406 213.839844 133.9375 213.574219 134.460938 213.355469 C 134.984375 213.140625 135.519531 212.976562 136.074219 212.867188 C 136.628906 212.757812 137.191406 212.703125 137.753906 212.703125 C 138.320312 212.703125 138.878906 212.757812 139.433594 212.867188 C 139.988281 212.976562 140.527344 213.140625 141.050781 213.355469 C 141.574219 213.574219 142.070312 213.839844 142.539062 214.152344 C 143.007812 214.464844 143.445312 214.824219 143.84375 215.222656 C 144.242188 215.621094 144.601562 216.054688 144.914062 216.523438 C 145.226562 216.996094 145.492188 217.492188 145.710938 218.011719 C 145.925781 218.535156 146.089844 219.070312 146.199219 219.625 C 146.308594 220.179688 146.363281 220.738281 146.363281 221.304688 Z M 146.363281 221.304688 "/><path style=" stroke:none;fill-rule:nonzero;fill:#e4e4e3;fill-opacity:1;" d="M 161.191406 256.183594 C 161.191406 256.75 161.136719 257.308594 161.027344 257.863281 C 160.917969 258.417969 160.753906 258.953125 160.539062 259.476562 C 160.320312 259.996094 160.054688 260.492188 159.742188 260.964844 C 159.429688 261.433594 159.070312 261.867188 158.671875 262.265625 C 158.273438 262.664062 157.835938 263.023438 157.367188 263.335938 C 156.898438 263.648438 156.398438 263.914062 155.878906 264.128906 C 155.355469 264.347656 154.816406 264.511719 154.261719 264.621094 C 153.707031 264.730469 153.148438 264.785156 152.582031 264.785156 C 152.019531 264.785156 151.457031 264.730469 150.902344 264.621094 C 150.347656 264.511719 149.8125 264.347656 149.289062 264.128906 C 148.765625 263.914062 148.269531 263.648438 147.800781 263.335938 C 147.328125 263.023438 146.894531 262.664062 146.496094 262.265625 C 146.09375 261.867188 145.738281 261.433594 145.425781 260.964844 C 145.109375 260.492188 144.84375 259.996094 144.628906 259.476562 C 144.414062 258.953125 144.25 258.417969 144.140625 257.863281 C 144.027344 257.308594 143.972656 256.75 143.972656 256.183594 C 143.972656 255.621094 144.027344 255.058594 144.140625 254.507812 C 144.25 253.953125 144.414062 253.414062 144.628906 252.894531 C 144.84375 252.371094 145.109375 251.875 145.425781 251.40625 C 145.738281 250.9375 146.09375 250.503906 146.496094 250.101562 C 146.894531 249.703125 147.328125 249.347656 147.800781 249.035156 C 148.269531 248.71875 148.765625 248.453125 149.289062 248.238281 C 149.8125 248.023438 150.347656 247.859375 150.902344 247.75 C 151.457031 247.640625 152.019531 247.582031 152.582031 247.582031 C 153.148438 247.582031 153.707031 247.640625 154.261719 247.75 C 154.816406 247.859375 155.355469 248.023438 155.878906 248.238281 C 156.398438 248.453125 156.898438 248.71875 157.367188 249.035156 C 157.835938 249.347656 158.273438 249.703125 158.671875 250.101562 C 159.070312 250.503906 159.429688 250.9375 159.742188 251.40625 C 160.054688 251.875 160.320312 252.371094 160.539062 252.894531 C 160.753906 253.414062 160.917969 253.953125 161.027344 254.507812 C 161.136719 255.058594 161.191406 255.621094 161.191406 256.183594 Z M 161.191406 256.183594 "/><path style=" stroke:none;fill-rule:nonzero;fill:#e4e4e3;fill-opacity:1;" d="M 161.191406 185.945312 C 161.191406 186.507812 161.136719 187.070312 161.027344 187.621094 C 160.917969 188.175781 160.753906 188.714844 160.539062 189.234375 C 160.320312 189.757812 160.054688 190.253906 159.742188 190.722656 C 159.429688 191.191406 159.070312 191.628906 158.671875 192.027344 C 158.273438 192.425781 157.835938 192.78125 157.367188 193.097656 C 156.898438 193.410156 156.398438 193.675781 155.878906 193.890625 C 155.355469 194.105469 154.816406 194.269531 154.261719 194.378906 C 153.707031 194.492188 153.148438 194.546875 152.582031 194.546875 C 152.019531 194.546875 151.457031 194.492188 150.902344 194.378906 C 150.347656 194.269531 149.8125 194.105469 149.289062 193.890625 C 148.765625 193.675781 148.269531 193.410156 147.800781 193.097656 C 147.328125 192.78125 146.894531 192.425781 146.496094 192.027344 C 146.09375 191.628906 145.738281 191.191406 145.425781 190.722656 C 145.109375 190.253906 144.84375 189.757812 144.628906 189.234375 C 144.414062 188.714844 144.25 188.175781 144.140625 187.621094 C 144.027344 187.070312 143.972656 186.507812 143.972656 185.945312 C 143.972656 185.378906 144.027344 184.820312 144.140625 184.265625 C 144.25 183.710938 144.414062 183.175781 144.628906 182.652344 C 144.84375 182.132812 145.109375 181.636719 145.425781 181.167969 C 145.738281 180.695312 146.09375 180.261719 146.496094 179.863281 C 146.894531 179.464844 147.328125 179.105469 147.800781 178.792969 C 148.269531 178.480469 148.765625 178.214844 149.289062 178 C 149.8125 177.78125 150.347656 177.621094 150.902344 177.507812 C 151.457031 177.398438 152.019531 177.34375 152.582031 177.34375 C 153.148438 177.34375 153.707031 177.398438 154.261719 177.507812 C 154.816406 177.621094 155.355469 177.78125 155.878906 178 C 156.398438 178.214844 156.898438 178.480469 157.367188 178.792969 C 157.835938 179.105469 158.273438 179.464844 158.671875 179.863281 C 159.070312 180.261719 159.429688 180.695312 159.742188 181.167969 C 160.054688 181.636719 160.320312 182.132812 160.539062 182.652344 C 160.753906 183.175781 160.917969 183.710938 161.027344 184.265625 C 161.136719 184.820312 161.191406 185.378906 161.191406 185.945312 Z M 161.191406 185.945312 "/><path style=" stroke:none;fill-rule:nonzero;fill:#e4e4e3;fill-opacity:1;" d="M 231.027344 185.945312 C 231.027344 186.507812 230.972656 187.070312 230.863281 187.621094 C 230.75 188.175781 230.589844 188.714844 230.371094 189.234375 C 230.15625 189.757812 229.890625 190.253906 229.578125 190.722656 C 229.261719 191.191406 228.90625 191.628906 228.507812 192.027344 C 228.105469 192.425781 227.671875 192.78125 227.203125 193.097656 C 226.730469 193.410156 226.234375 193.675781 225.710938 193.890625 C 225.191406 194.105469 224.652344 194.269531 224.097656 194.378906 C 223.542969 194.492188 222.984375 194.546875 222.417969 194.546875 C 221.851562 194.546875 221.292969 194.492188 220.738281 194.378906 C 220.183594 194.269531 219.644531 194.105469 219.125 193.890625 C 218.601562 193.675781 218.105469 193.410156 217.632812 193.097656 C 217.164062 192.78125 216.730469 192.425781 216.328125 192.027344 C 215.929688 191.628906 215.574219 191.191406 215.257812 190.722656 C 214.945312 190.253906 214.679688 189.757812 214.464844 189.234375 C 214.246094 188.714844 214.082031 188.175781 213.972656 187.621094 C 213.863281 187.070312 213.808594 186.507812 213.808594 185.945312 C 213.808594 185.378906 213.863281 184.820312 213.972656 184.265625 C 214.082031 183.710938 214.246094 183.175781 214.464844 182.652344 C 214.679688 182.132812 214.945312 181.636719 215.257812 181.167969 C 215.574219 180.695312 215.929688 180.261719 216.328125 179.863281 C 216.730469 179.464844 217.164062 179.105469 217.632812 178.792969 C 218.105469 178.480469 218.601562 178.214844 219.125 178 C 219.644531 177.78125 220.183594 177.621094 220.738281 177.507812 C 221.292969 177.398438 221.851562 177.34375 222.417969 177.34375 C 222.984375 177.34375 223.542969 177.398438 224.097656 177.507812 C 224.652344 177.621094 225.191406 177.78125 225.710938 178 C 226.234375 178.214844 226.730469 178.480469 227.203125 178.792969 C 227.671875 179.105469 228.105469 179.464844 228.507812 179.863281 C 228.90625 180.261719 229.261719 180.695312 229.578125 181.167969 C 229.890625 181.636719 230.15625 182.132812 230.371094 182.652344 C 230.589844 183.175781 230.75 183.710938 230.863281 184.265625 C 230.972656 184.820312 231.027344 185.378906 231.027344 185.945312 Z M 231.027344 185.945312 "/><path style=" stroke:none;fill-rule:nonzero;fill:#efefed;fill-opacity:1;" d="M 188.9375 215.09375 C 188.9375 217.480469 187.023438 219.390625 184.628906 219.390625 C 182.238281 219.390625 180.324219 217.480469 180.324219 215.09375 C 180.324219 212.703125 182.238281 210.792969 184.628906 210.792969 C 187.023438 210.792969 188.9375 212.703125 188.9375 215.09375 Z M 188.9375 215.09375 "/><path style=" stroke:none;fill-rule:nonzero;fill:#efefed;fill-opacity:1;" d="M 189.890625 227.992188 C 189.890625 229.90625 188.457031 231.335938 186.542969 231.335938 C 184.628906 231.335938 183.195312 229.90625 183.195312 227.992188 C 183.195312 226.082031 184.628906 224.648438 186.542969 224.648438 C 188.457031 224.648438 189.890625 226.082031 189.890625 227.992188 Z M 189.890625 227.992188 "/><path style=" stroke:none;fill-rule:nonzero;fill:#696967;fill-opacity:1;" d="M 302.296875 119.050781 C 302.296875 122.871094 302.296875 126.21875 302.296875 129.5625 C 297.035156 124.304688 286.035156 119.527344 270.726562 115.703125 C 248.726562 110.449219 219.070312 107.582031 187.5 107.582031 C 131.539062 107.582031 85.617188 116.660156 72.703125 129.5625 C 72.703125 126.21875 72.703125 122.394531 72.703125 119.050781 C 94.707031 104.714844 143.972656 98.980469 187.5 98.980469 C 231.027344 98.980469 280.292969 104.714844 302.296875 119.050781 Z M 302.296875 119.050781 "/></g></svg>