<svg width="154" height="253" viewBox="0 0 154 253" fill="none" xmlns="http://www.w3.org/2000/svg">
<path d="M22.9688 4.96875H130.969C132.151 4.96875 133.323 5.08333 134.479 5.31771C135.641 5.54688 136.766 5.88542 137.859 6.33854C138.948 6.79167 139.984 7.34375 140.969 8.00521C141.953 8.66146 142.859 9.40625 143.698 10.2396C144.531 11.0781 145.281 11.9844 145.938 12.9688C146.594 13.9531 147.146 14.9896 147.599 16.0833C148.052 17.1719 148.391 18.2969 148.625 19.4583C148.854 20.6146 148.969 21.7865 148.969 22.9688V229.969C148.969 231.151 148.854 232.323 148.625 233.479C148.391 234.641 148.052 235.766 147.599 236.859C147.146 237.948 146.594 238.984 145.938 239.969C145.281 240.953 144.531 241.859 143.698 242.698C142.859 243.531 141.953 244.281 140.969 244.938C139.984 245.594 138.948 246.146 137.859 246.599C136.766 247.052 135.641 247.391 134.479 247.625C133.323 247.854 132.151 247.969 130.969 247.969H22.9688C21.7865 247.969 20.6146 247.854 19.4583 247.625C18.2969 247.391 17.1719 247.052 16.0833 246.599C14.9896 246.146 13.9531 245.594 12.9688 244.938C11.9844 244.281 11.0781 243.531 10.2396 242.698C9.40625 241.859 8.66146 240.953 8.00521 239.969C7.34375 238.984 6.79167 237.948 6.33854 236.859C5.88542 235.766 5.54688 234.641 5.31771 233.479C5.08333 232.323 4.96875 231.151 4.96875 229.969V22.9688C4.96875 21.7865 5.08333 20.6146 5.31771 19.4583C5.54688 18.2969 5.88542 17.1719 6.33854 16.0833C6.79167 14.9896 7.34375 13.9531 8.00521 12.9688C8.66146 11.9844 9.40625 11.0781 10.2396 10.2396C11.0781 9.40625 11.9844 8.66146 12.9688 8.00521C13.9531 7.34375 14.9896 6.79167 16.0833 6.33854C17.1719 5.88542 18.2969 5.54688 19.4583 5.31771C20.6146 5.08333 21.7865 4.96875 22.9688 4.96875Z" fill="#7CB2F8"/>
<path d="M130.969 238.969C127.583 238.969 124.203 238.844 120.823 238.589C117.448 238.333 114.083 237.948 110.734 237.443C107.385 236.932 104.063 236.302 100.76 235.542C97.4635 234.786 94.1927 233.906 90.9583 232.901C87.724 231.896 84.5313 230.771 81.3854 229.531C78.2344 228.286 75.1354 226.927 72.0885 225.448C69.0417 223.969 66.0521 222.38 63.125 220.677C60.1979 218.979 57.3385 217.167 54.5469 215.25C51.7552 213.333 49.0365 211.313 46.401 209.193C43.7604 207.073 41.2031 204.854 38.7292 202.536C36.2552 200.224 33.875 197.823 31.5833 195.328C29.2917 192.833 27.0938 190.26 25 187.599C22.901 184.943 20.9063 182.208 19.0104 179.401C17.1198 176.594 15.3333 173.719 13.6563 170.776C11.9844 167.833 10.4219 164.828 8.96875 161.771C7.52083 158.708 6.1875 155.599 4.96875 152.438V229.969C4.96875 231.151 5.08333 232.323 5.31771 233.479C5.54688 234.641 5.88542 235.766 6.33854 236.859C6.79167 237.948 7.34375 238.984 8.00521 239.969C8.66146 240.953 9.40625 241.859 10.2396 242.698C11.0781 243.531 11.9844 244.281 12.9688 244.938C13.9531 245.594 14.9896 246.146 16.0833 246.599C17.1719 247.052 18.2969 247.391 19.4583 247.625C20.6146 247.854 21.7865 247.969 22.9688 247.969H130.969C132.635 247.964 134.271 247.734 135.875 247.271C137.479 246.813 138.99 246.141 140.406 245.26C141.823 244.38 143.089 243.318 144.214 242.083C145.333 240.849 146.26 239.484 147.005 237.99C141.677 238.63 136.333 238.958 130.969 238.969Z" fill="#598FD5"/>
<path d="M148.969 22.9688H4.96875C4.96875 21.7865 5.08333 20.6146 5.31771 19.4583C5.54688 18.2969 5.88542 17.1719 6.33854 16.0833C6.79167 14.9896 7.34375 13.9531 8.00521 12.9688C8.66146 11.9844 9.40625 11.0781 10.2396 10.2396C11.0781 9.40625 11.9844 8.66146 12.9688 8.00521C13.9531 7.34375 14.9896 6.79167 16.0833 6.33854C17.1719 5.88542 18.2969 5.54688 19.4583 5.31771C20.6146 5.08333 21.7865 4.96875 22.9688 4.96875H130.969C132.151 4.96875 133.323 5.08333 134.479 5.31771C135.641 5.54688 136.766 5.88542 137.859 6.33854C138.948 6.79167 139.984 7.34375 140.969 8.00521C141.953 8.66146 142.859 9.40625 143.698 10.2396C144.531 11.0781 145.281 11.9844 145.938 12.9688C146.594 13.9531 147.146 14.9896 147.599 16.0833C148.052 17.1719 148.391 18.2969 148.625 19.4583C148.854 20.6146 148.969 21.7865 148.969 22.9688Z" fill="#D9E1E6"/>
<path d="M148.969 229.969C148.969 231.151 148.854 232.323 148.625 233.479C148.391 234.641 148.052 235.766 147.599 236.859C147.146 237.948 146.594 238.984 145.938 239.969C145.281 240.953 144.531 241.859 143.698 242.698C142.859 243.531 141.953 244.281 140.969 244.938C139.984 245.594 138.948 246.146 137.859 246.599C136.766 247.052 135.641 247.391 134.479 247.625C133.323 247.854 132.151 247.969 130.969 247.969H22.9688C21.7865 247.969 20.6146 247.854 19.4583 247.625C18.2969 247.391 17.1719 247.052 16.0833 246.599C14.9896 246.146 13.9531 245.594 12.9688 244.938C11.9844 244.281 11.0781 243.531 10.2396 242.698C9.40625 241.859 8.66146 240.953 8.00521 239.969C7.34375 238.984 6.79167 237.948 6.33854 236.859C5.88542 235.766 5.54688 234.641 5.31771 233.479C5.08333 232.323 4.96875 231.151 4.96875 229.969H148.969Z" fill="#D9E1E6"/>
<mask id="mask0_295_51" style="mask-type:luminance" maskUnits="userSpaceOnUse" x="0" y="0" width="154" height="253">
<path d="M0.46875 0.333496H154V252.469H0.46875V0.333496Z" fill="white"/>
</mask>
<g mask="url(#mask0_295_51)">
<path d="M22.9688 252.469H130.969C131.708 252.469 132.443 252.432 133.172 252.359C133.906 252.286 134.635 252.177 135.359 252.031C136.078 251.891 136.792 251.708 137.5 251.495C138.203 251.281 138.896 251.031 139.573 250.75C140.255 250.469 140.922 250.151 141.573 249.802C142.219 249.458 142.849 249.078 143.464 248.667C144.078 248.26 144.667 247.823 145.234 247.354C145.807 246.885 146.349 246.391 146.87 245.87C147.391 245.349 147.885 244.807 148.354 244.234C148.823 243.667 149.26 243.078 149.667 242.464C150.078 241.849 150.458 241.219 150.802 240.573C151.151 239.922 151.469 239.255 151.75 238.573C152.031 237.896 152.281 237.203 152.495 236.5C152.708 235.792 152.891 235.078 153.031 234.359C153.177 233.635 153.286 232.906 153.359 232.172C153.432 231.443 153.469 230.708 153.469 229.969V22.9688C153.469 22.2344 153.432 21.5 153.359 20.7656C153.286 20.0313 153.177 19.3021 153.031 18.5833C152.891 17.8594 152.708 17.1458 152.495 16.4427C152.281 15.7344 152.031 15.0417 151.75 14.3646C151.469 13.6823 151.151 13.0156 150.802 12.3698C150.458 11.7187 150.078 11.0885 149.667 10.474C149.26 9.86458 148.823 9.27083 148.354 8.70313C147.885 8.13542 147.391 7.58854 146.87 7.06771C146.349 6.54688 145.807 6.05208 145.234 5.58333C144.667 5.11979 144.078 4.67708 143.464 4.27083C142.849 3.85937 142.219 3.47917 141.573 3.13542C140.922 2.78646 140.255 2.47396 139.573 2.1875C138.896 1.90625 138.203 1.65625 137.5 1.44271C136.792 1.22917 136.078 1.05208 135.359 0.90625C134.635 0.760415 133.906 0.651041 133.172 0.578125C132.443 0.505208 131.708 0.46875 130.969 0.46875H22.9688C22.2344 0.46875 21.5 0.505208 20.7656 0.578125C20.0313 0.651041 19.3021 0.760415 18.5833 0.90625C17.8594 1.05208 17.1458 1.22917 16.4427 1.44271C15.7344 1.65625 15.0417 1.90625 14.3646 2.1875C13.6823 2.47396 13.0156 2.78646 12.3698 3.13542C11.7187 3.47917 11.0885 3.85937 10.474 4.27083C9.86458 4.67708 9.27083 5.11979 8.70313 5.58333C8.13542 6.05208 7.58854 6.54688 7.06771 7.06771C6.54688 7.58854 6.05208 8.13542 5.58333 8.70313C5.11979 9.27083 4.67708 9.86458 4.27083 10.474C3.85937 11.0885 3.47917 11.7187 3.13542 12.3698C2.78646 13.0156 2.47396 13.6823 2.1875 14.3646C1.90625 15.0417 1.65625 15.7344 1.44271 16.4427C1.22917 17.1458 1.05208 17.8594 0.90625 18.5833C0.760415 19.3021 0.651041 20.0313 0.578125 20.7656C0.505208 21.5 0.46875 22.2344 0.46875 22.9688V229.969C0.46875 230.708 0.505208 231.443 0.578125 232.172C0.651041 232.906 0.760415 233.635 0.90625 234.359C1.05208 235.078 1.22917 235.792 1.44271 236.5C1.65625 237.203 1.90625 237.896 2.1875 238.573C2.47396 239.255 2.78646 239.922 3.13542 240.573C3.47917 241.219 3.85937 241.849 4.27083 242.464C4.67708 243.078 5.11979 243.667 5.58333 244.234C6.05208 244.807 6.54688 245.349 7.06771 245.87C7.58854 246.391 8.13542 246.885 8.70313 247.354C9.27083 247.823 9.86458 248.26 10.474 248.667C11.0885 249.078 11.7187 249.458 12.3698 249.802C13.0156 250.151 13.6823 250.469 14.3646 250.75C15.0417 251.031 15.7344 251.281 16.4427 251.495C17.1458 251.708 17.8594 251.891 18.5833 252.031C19.3021 252.177 20.0313 252.286 20.7656 252.359C21.5 252.432 22.2344 252.469 22.9688 252.469ZM130.969 243.469H22.9688C21.5781 243.464 20.2187 243.25 18.8958 242.823C17.5729 242.396 16.3437 241.781 15.2083 240.974C14.0729 240.172 13.0885 239.214 12.25 238.104C11.4115 236.99 10.7604 235.781 10.2969 234.469H143.641C143.177 235.781 142.526 236.99 141.688 238.104C140.849 239.214 139.865 240.172 138.729 240.974C137.594 241.781 136.365 242.396 135.042 242.823C133.719 243.25 132.359 243.464 130.969 243.469ZM22.9688 9.46875H130.969C132.359 9.47396 133.719 9.69271 135.042 10.1146C136.365 10.5417 137.594 11.1563 138.729 11.9635C139.865 12.7656 140.849 13.724 141.688 14.8385C142.526 15.9479 143.177 17.1563 143.641 18.4688H10.2969C10.7604 17.1563 11.4115 15.9479 12.25 14.8385C13.0885 13.724 14.0729 12.7656 15.2083 11.9635C16.3437 11.1563 17.5729 10.5417 18.8958 10.1146C20.2187 9.69271 21.5781 9.47396 22.9688 9.46875ZM9.46875 27.4688H144.469V225.469H9.46875V27.4688Z" fill="black"/>
</g>
<path d="M126.469 193.969H108.469V202.969H130.969C131.568 202.969 132.141 202.854 132.693 202.625C133.245 202.396 133.729 202.073 134.151 201.651C134.573 201.229 134.896 200.745 135.125 200.193C135.354 199.641 135.469 199.068 135.469 198.469V171.469H126.469V193.969Z" fill="black"/>
<path d="M130.969 49.9688H108.469V58.9688H126.469V76.9688H135.469V54.4688C135.469 53.875 135.354 53.2969 135.125 52.7448C134.896 52.1979 134.573 51.7083 134.151 51.2865C133.729 50.8646 133.245 50.5417 132.693 50.3125C132.141 50.0833 131.568 49.9688 130.969 49.9688Z" fill="black"/>
<path d="M27.4688 58.9688H45.4688V49.9688H22.9688C22.375 49.9688 21.7969 50.0833 21.2448 50.3125C20.6979 50.5417 20.2083 50.8646 19.7865 51.2865C19.3646 51.7083 19.0417 52.1979 18.8125 52.7448C18.5833 53.2969 18.4688 53.875 18.4688 54.4688V76.9688H27.4688V58.9688Z" fill="black"/>
<path d="M27.4688 175.969H18.4688V198.469C18.4688 199.068 18.5833 199.641 18.8125 200.193C19.0417 200.745 19.3646 201.229 19.7865 201.651C20.2083 202.073 20.6979 202.396 21.2448 202.625C21.7969 202.854 22.375 202.969 22.9688 202.969H45.4688V193.969H27.4688V175.969Z" fill="black"/>
</svg>
