<svg width="600" height="600" viewBox="0 0 600 600" fill="none" xmlns="http://www.w3.org/2000/svg">
<g filter="url(#filter0_d_299_149)">
<rect x="211" y="101" width="183" height="373" rx="20" fill="black"/>
</g>
<rect x="229" y="209" width="148" height="211" fill="#EDEDED"/>
<rect x="229" y="148" width="148" height="38" fill="#F5F5F5"/>
<circle cx="302" cy="124" r="6" stroke="#DBDBDB" stroke-width="4"/>
<path d="M341 365.286H327V373H344.5C344.966 373 345.411 372.902 345.841 372.705C346.27 372.509 346.647 372.232 346.975 371.871C347.303 371.509 347.554 371.094 347.733 370.621C347.911 370.147 348 369.656 348 369.143V346H341V365.286Z" fill="black"/>
<path d="M344.5 240H327V247.667H341V263H348V243.833C348 243.328 347.911 242.835 347.733 242.365C347.554 241.899 347.303 241.482 346.975 241.122C346.647 240.763 346.27 240.488 345.841 240.293C345.411 240.098 344.966 240 344.5 240Z" fill="black"/>
<path d="M264 247.667H278V240H260.5C260.038 240 259.589 240.098 259.159 240.293C258.734 240.488 258.353 240.763 258.025 241.122C257.697 241.482 257.446 241.899 257.267 242.365C257.089 242.835 257 243.328 257 243.833V263H264V247.667Z" fill="black"/>
<path d="M264 349H257V369C257 369.532 257.089 370.042 257.267 370.532C257.446 371.023 257.697 371.454 258.025 371.829C258.353 372.204 258.734 372.491 259.159 372.694C259.589 372.898 260.038 373 260.5 373H278V365H264V349Z" fill="black"/>
<defs>
<filter id="filter0_d_299_149" x="211" y="101" width="197" height="387" filterUnits="userSpaceOnUse" color-interpolation-filters="sRGB">
<feFlood flood-opacity="0" result="BackgroundImageFix"/>
<feColorMatrix in="SourceAlpha" type="matrix" values="0 0 0 0 0 0 0 0 0 0 0 0 0 0 0 0 0 0 127 0" result="hardAlpha"/>
<feOffset dx="10" dy="10"/>
<feGaussianBlur stdDeviation="2"/>
<feComposite in2="hardAlpha" operator="out"/>
<feColorMatrix type="matrix" values="0 0 0 0 0 0 0 0 0 0 0 0 0 0 0 0 0 0 0.25 0"/>
<feBlend mode="normal" in2="BackgroundImageFix" result="effect1_dropShadow_299_149"/>
<feBlend mode="normal" in="SourceGraphic" in2="effect1_dropShadow_299_149" result="shape"/>
</filter>
</defs>
</svg>
