<svg xmlns="http://www.w3.org/2000/svg" xmlns:xlink="http://www.w3.org/1999/xlink" width="500" zoomAndPan="magnify" viewBox="0 0 375 374.999991" height="500" preserveAspectRatio="xMidYMid meet" version="1.2"><defs><clipPath id="45b7d8258d"><path d="M 45.632812 95 L 329 95 L 329 280 L 45.632812 280 Z M 45.632812 95 "/></clipPath><clipPath id="a9585610e2"><path d="M 45.632812 225 L 329 225 L 329 280 L 45.632812 280 Z M 45.632812 225 "/></clipPath><clipPath id="cff7d4192c"><path d="M 45.632812 94.902344 L 329.132812 94.902344 L 329.132812 280.152344 L 45.632812 280.152344 Z M 45.632812 94.902344 "/></clipPath></defs><g id="0c669d500a"><g clip-rule="nonzero" clip-path="url(#45b7d8258d)"><path style=" stroke:none;fill-rule:nonzero;fill:#32312b;fill-opacity:1;" d="M 211.121094 279.980469 C 211.109375 279.980469 211.101562 279.980469 211.089844 279.976562 L 140.535156 259.234375 C 140.484375 259.21875 140.449219 259.171875 140.449219 259.117188 C 140.449219 259.0625 140.484375 259.015625 140.535156 259 L 157.777344 253.933594 L 157.777344 252.574219 L 136.515625 246.324219 L 114.054688 252.980469 C 114.042969 252.984375 114.03125 252.984375 114.019531 252.984375 C 114.007812 252.984375 113.996094 252.984375 113.988281 252.980469 L 107.425781 251.050781 L 45.898438 232.9375 C 45.847656 232.921875 45.8125 232.875 45.8125 232.820312 C 45.8125 232.765625 45.847656 232.71875 45.898438 232.703125 L 60.667969 228.355469 L 60.667969 166.011719 C 60.6875 165.949219 60.703125 165.925781 60.71875 165.914062 C 60.730469 165.902344 60.753906 165.898438 60.785156 165.898438 L 60.808594 165.898438 L 60.839844 165.890625 L 101.3125 153.992188 L 101.3125 125.898438 C 101.3125 125.859375 101.332031 125.824219 101.363281 125.800781 C 101.382812 125.785156 101.410156 125.777344 101.433594 125.777344 C 101.445312 125.777344 101.457031 125.777344 101.46875 125.78125 L 101.511719 125.792969 L 206.015625 95.066406 C 206.027344 95.0625 206.039062 95.0625 206.050781 95.0625 C 206.0625 95.0625 206.074219 95.0625 206.085938 95.066406 L 311.035156 125.792969 L 311.089844 125.816406 L 311.160156 125.808594 L 311.257812 125.78125 C 311.269531 125.777344 311.28125 125.777344 311.292969 125.777344 C 311.320312 125.777344 311.34375 125.785156 311.367188 125.800781 C 311.394531 125.824219 311.414062 125.859375 311.414062 125.898438 L 311.414062 225.472656 L 328.871094 230.605469 C 328.921875 230.621094 328.957031 230.667969 328.957031 230.722656 C 328.957031 230.773438 328.921875 230.824219 328.871094 230.835938 L 264.464844 249.777344 L 264.464844 252.628906 L 283.914062 258.347656 C 283.964844 258.363281 284.003906 258.410156 284.003906 258.464844 C 284.003906 258.515625 283.964844 258.5625 283.914062 258.578125 L 211.15625 279.976562 C 211.144531 279.980469 211.132812 279.980469 211.121094 279.980469 Z M 211.121094 279.980469 "/></g><g clip-rule="nonzero" clip-path="url(#a9585610e2)"><path style=" stroke:none;fill-rule:nonzero;fill:#efeee4;fill-opacity:1;" d="M 157.898438 252.484375 L 136.515625 246.199219 L 114.019531 252.863281 L 107.460938 250.9375 L 54.351562 235.296875 L 45.933594 232.820312 L 54.351562 230.339844 L 60.789062 228.445312 L 60.789062 230.496094 L 114.011719 246.144531 L 127.445312 242.160156 L 117.128906 245.21875 L 117.128906 236.957031 L 122.539062 235.367188 L 133.585938 232.121094 L 133.585938 240.339844 L 136.507812 239.476562 L 157.898438 245.765625 Z M 311.292969 225.566406 L 311.292969 229.160156 L 264.34375 242.964844 L 264.34375 249.6875 L 328.835938 230.722656 Z M 264.34375 257.492188 L 211.121094 273.140625 L 157.898438 257.492188 L 157.898438 254.023438 L 140.570312 259.117188 L 211.121094 279.859375 L 270.78125 262.316406 L 283.882812 258.464844 L 264.34375 252.71875 Z M 264.34375 257.492188 "/></g><path style=" stroke:none;fill-rule:nonzero;fill:#ccd9ea;fill-opacity:1;" d="M 101.515625 125.921875 L 101.433594 125.945312 L 101.433594 125.898438 Z M 311.292969 125.898438 L 311.292969 229.160156 L 264.34375 242.964844 L 264.34375 257.492188 L 211.121094 273.140625 L 157.898438 257.492188 L 157.898438 245.765625 L 136.507812 239.476562 L 133.585938 240.339844 L 133.585938 232.121094 L 122.539062 235.367188 L 117.128906 236.957031 L 117.128906 245.21875 L 127.445312 242.160156 L 114.011719 246.144531 L 60.789062 230.496094 L 60.789062 166.011719 L 60.824219 166.023438 L 60.789062 166.03125 L 92.265625 175.230469 L 101.433594 177.917969 L 101.433594 177.910156 L 114.023438 181.589844 L 131.550781 176.449219 L 136.699219 174.9375 L 136.695312 174.9375 L 101.433594 164.628906 L 101.433594 125.945312 L 157.898438 142.441406 L 157.898438 139.386719 L 111.863281 125.933594 L 206.050781 98.238281 L 300.570312 125.910156 L 264.34375 136.542969 L 264.34375 139.648438 Z M 296.613281 193.472656 L 307.230469 190.347656 L 307.230469 133.71875 L 296.613281 136.828125 Z M 280.480469 198.230469 L 291.097656 195.109375 L 291.097656 138.476562 L 280.480469 141.585938 Z M 264.34375 146.347656 L 264.34375 202.992188 L 264.796875 202.859375 L 274.964844 199.867188 L 274.964844 143.234375 Z M 165.722656 222.214844 L 175.027344 224.953125 L 175.027344 200.128906 L 165.722656 197.40625 Z M 175.027344 187.429688 L 175.027344 169.691406 L 165.722656 166.964844 L 165.722656 191.777344 L 175.027344 194.511719 Z M 179.859375 226.386719 L 189.164062 229.121094 L 189.164062 204.300781 L 179.859375 201.574219 Z M 189.164062 183.273438 L 189.164062 173.859375 L 179.859375 171.136719 L 179.859375 195.945312 L 189.164062 198.683594 Z M 179.859375 148.867188 L 179.859375 165.582031 L 189.164062 168.316406 L 189.164062 139.207031 L 179.859375 136.480469 Z M 245.039062 135.722656 L 235.738281 138.449219 L 235.738281 167.558594 L 245.039062 164.824219 Z M 221.601562 171.730469 L 230.90625 168.992188 L 230.90625 139.890625 L 221.601562 142.617188 Z M 193.996094 149.933594 L 193.996094 169.75 L 203.300781 172.488281 L 203.300781 143.375 L 193.996094 140.648438 Z M 193.996094 181.851562 L 193.996094 200.117188 L 203.300781 202.851562 L 203.300781 178.03125 L 193.996094 175.304688 Z M 193.996094 230.554688 L 203.300781 233.292969 L 203.300781 208.472656 L 193.996094 205.746094 Z M 221.601562 232.535156 L 230.90625 229.796875 L 230.90625 204.988281 L 221.601562 207.714844 Z M 230.90625 186.027344 L 230.90625 174.546875 L 221.601562 177.273438 L 221.601562 202.09375 L 230.90625 199.359375 Z M 235.738281 228.363281 L 245.039062 225.628906 L 245.039062 200.816406 L 235.738281 203.542969 Z M 245.039062 190.183594 L 245.039062 170.378906 L 235.738281 173.101562 L 235.738281 197.921875 L 245.039062 195.1875 Z M 249.871094 224.195312 L 259.175781 221.457031 L 259.175781 196.648438 L 249.871094 199.371094 Z M 253.527344 192.679688 L 259.175781 191.015625 L 259.175781 166.207031 L 249.871094 168.933594 L 249.871094 193.753906 Z M 259.175781 138.058594 L 259.175781 131.550781 L 249.871094 134.277344 L 249.871094 163.390625 L 259.175781 160.652344 Z M 157.898438 124.035156 L 191.136719 133.75 L 211.132812 139.59375 L 264.195312 124.019531 L 210.964844 108.433594 L 157.9375 124.023438 Z M 165.722656 144.730469 L 165.722656 161.410156 L 175.027344 164.148438 L 175.027344 135.035156 L 165.722656 132.308594 Z M 142.664062 171.476562 L 153.628906 174.699219 L 153.628906 145.449219 L 142.664062 142.234375 Z M 120.308594 135.617188 L 109.34375 132.40625 L 109.34375 161.644531 L 120.308594 164.871094 Z M 136.96875 169.785156 L 136.96875 140.535156 L 126.003906 137.320312 L 126.003906 166.5625 Z M 117.128906 214.496094 L 133.585938 209.617188 L 133.585938 201.394531 L 117.128906 206.234375 Z M 133.585938 198.90625 L 133.585938 190.6875 L 117.128906 195.523438 L 117.128906 203.785156 Z M 117.128906 184.816406 L 117.128906 193.078125 L 133.585938 188.199219 L 133.585938 179.980469 Z M 99.488281 207.804688 L 101.433594 208.375 L 108.792969 210.539062 L 108.792969 185.71875 L 101.433594 183.5625 L 99.488281 182.996094 Z M 85.351562 203.632812 L 94.65625 206.371094 L 94.65625 181.550781 L 85.351562 178.824219 Z M 71.214844 199.464844 L 80.519531 202.199219 L 80.519531 177.378906 L 71.214844 174.652344 Z M 80.519531 222.636719 L 80.519531 208.933594 L 71.214844 206.207031 L 71.214844 231.015625 L 80.519531 233.753906 Z M 94.65625 218.476562 L 94.65625 213.101562 L 85.351562 210.378906 L 85.351562 235.1875 L 94.65625 237.921875 Z M 108.792969 231.324219 L 108.792969 217.273438 L 103.757812 215.796875 L 101.433594 215.117188 L 99.488281 214.546875 L 99.488281 239.359375 L 108.792969 242.09375 Z M 133.585938 220.324219 L 133.585938 212.105469 L 117.128906 216.941406 L 117.128906 225.203125 Z M 153.628906 208.507812 L 148.421875 206.984375 L 142.664062 205.296875 L 142.664062 234.535156 L 153.628906 237.761719 Z M 153.628906 193.722656 L 153.628906 176.980469 L 142.664062 173.765625 L 142.664062 203.007812 L 151.460938 205.59375 L 153.628906 206.230469 Z M 175.027344 250.800781 L 175.027344 231.683594 L 165.722656 228.957031 L 165.722656 253.769531 L 175.027344 256.503906 Z M 189.164062 254.957031 L 189.164062 235.855469 L 179.859375 233.128906 L 179.859375 257.9375 L 189.164062 260.675781 Z M 203.300781 259.113281 L 203.300781 240.023438 L 193.996094 237.300781 L 193.996094 262.109375 L 203.300781 264.84375 Z M 230.90625 252.796875 L 230.90625 236.539062 L 221.601562 239.265625 L 221.601562 264.085938 L 230.90625 261.351562 Z M 245.039062 248.640625 L 245.039062 232.371094 L 235.738281 235.097656 L 235.738281 259.917969 L 245.039062 257.179688 Z M 259.175781 244.484375 L 259.175781 228.199219 L 249.871094 230.925781 L 249.871094 255.746094 L 259.175781 253.011719 Z M 274.964844 214.886719 L 274.964844 206.207031 L 264.796875 209.183594 L 264.34375 209.316406 L 264.34375 237.644531 L 274.964844 234.523438 Z M 291.097656 219.628906 L 291.097656 201.449219 L 280.480469 204.558594 L 280.480469 232.886719 L 291.097656 229.761719 Z M 307.230469 224.371094 L 307.230469 196.6875 L 296.613281 199.796875 L 296.613281 228.125 L 307.230469 225.003906 Z M 211.128906 136.535156 L 168.328125 124.027344 L 210.964844 111.492188 L 213.976562 112.375 L 210.941406 112.816406 L 203.269531 115.070312 L 203.25 115.078125 L 208.679688 114.28125 L 210.964844 113.949219 L 215.15625 112.71875 L 215.160156 112.71875 L 218.683594 111.6875 L 218.683594 113.75 L 253.765625 124.023438 Z M 217.5 123.167969 L 217.5 118.402344 L 215.21875 119.070312 L 215.21875 123.835938 L 216.203125 123.546875 Z M 101.28125 157.1875 L 71.214844 166.027344 L 101.433594 174.855469 L 114.023438 178.53125 L 131.484375 173.414062 L 101.433594 164.628906 Z M 101.28125 157.1875 "/><path style=" stroke:none;fill-rule:nonzero;fill:#2e70dc;fill-opacity:1;" d="M 120.308594 164.871094 L 109.34375 161.644531 L 109.34375 132.40625 L 120.308594 135.617188 Z M 126.003906 166.5625 L 136.96875 169.785156 L 136.96875 140.535156 L 126.003906 137.320312 Z M 142.664062 171.476562 L 153.628906 174.699219 L 153.628906 145.449219 L 142.664062 142.234375 Z M 142.664062 203.007812 L 151.460938 205.59375 L 153.628906 206.230469 L 153.628906 176.980469 L 142.664062 173.765625 Z M 142.664062 205.296875 L 142.664062 234.535156 L 153.628906 237.761719 L 153.628906 208.507812 L 148.421875 206.984375 Z M 165.722656 190.164062 L 165.722656 191.777344 L 175.027344 194.511719 L 175.027344 169.691406 L 165.722656 166.964844 Z M 179.859375 186.007812 L 179.859375 195.945312 L 189.164062 198.683594 L 189.164062 173.859375 L 179.859375 171.136719 Z M 193.996094 181.851562 L 193.996094 200.117188 L 203.300781 202.851562 L 203.300781 178.03125 L 193.996094 175.304688 Z M 165.722656 222.214844 L 175.027344 224.953125 L 175.027344 200.128906 L 165.722656 197.40625 Z M 179.859375 226.386719 L 189.164062 229.121094 L 189.164062 204.300781 L 179.859375 201.574219 Z M 193.996094 230.554688 L 203.300781 233.292969 L 203.300781 208.472656 L 193.996094 205.746094 Z M 165.722656 248.066406 L 165.722656 253.769531 L 175.027344 256.503906 L 175.027344 231.683594 L 165.722656 228.957031 Z M 179.859375 252.222656 L 179.859375 257.9375 L 189.164062 260.675781 L 189.164062 235.855469 L 179.859375 233.128906 Z M 193.996094 256.378906 L 193.996094 262.109375 L 203.300781 264.84375 L 203.300781 240.023438 L 193.996094 237.300781 Z M 249.871094 140.789062 L 249.871094 163.390625 L 259.175781 160.652344 L 259.175781 131.550781 L 249.871094 134.277344 Z M 235.738281 144.9375 L 235.738281 167.558594 L 245.039062 164.824219 L 245.039062 135.722656 L 235.738281 138.449219 Z M 221.601562 149.085938 L 221.601562 171.730469 L 230.90625 168.992188 L 230.90625 139.890625 L 221.601562 142.617188 Z M 249.871094 191.601562 L 249.871094 193.753906 L 253.527344 192.679688 L 259.175781 191.015625 L 259.175781 166.207031 L 249.871094 168.933594 Z M 235.738281 187.445312 L 235.738281 197.921875 L 245.039062 195.1875 L 245.039062 170.378906 L 235.738281 173.101562 Z M 221.601562 183.289062 L 221.601562 202.09375 L 230.90625 199.359375 L 230.90625 174.546875 L 221.601562 177.273438 Z M 249.871094 224.195312 L 259.175781 221.457031 L 259.175781 196.648438 L 249.871094 199.371094 Z M 235.738281 228.363281 L 245.039062 225.628906 L 245.039062 200.816406 L 235.738281 203.542969 Z M 221.601562 232.535156 L 230.90625 229.796875 L 230.90625 204.988281 L 221.601562 207.714844 Z M 249.871094 247.222656 L 249.871094 255.746094 L 259.175781 253.011719 L 259.175781 228.199219 L 249.871094 230.925781 Z M 235.738281 251.378906 L 235.738281 259.917969 L 245.039062 257.179688 L 245.039062 232.371094 L 235.738281 235.097656 Z M 221.601562 255.535156 L 221.601562 264.085938 L 230.90625 261.351562 L 230.90625 236.539062 L 221.601562 239.265625 Z M 165.722656 141.671875 L 165.722656 161.410156 L 175.027344 164.148438 L 175.027344 135.035156 L 165.722656 132.308594 Z M 179.859375 145.804688 L 179.859375 165.582031 L 189.164062 168.316406 L 189.164062 139.207031 L 179.859375 136.480469 Z M 193.996094 149.933594 L 193.996094 169.75 L 203.300781 172.488281 L 203.300781 143.375 L 193.996094 140.648438 Z M 117.128906 225.203125 L 133.585938 220.324219 L 133.585938 212.105469 L 117.128906 216.941406 Z M 117.128906 211.859375 L 117.128906 214.496094 L 133.585938 209.617188 L 133.585938 201.394531 L 117.128906 206.234375 Z M 117.128906 203.785156 L 133.585938 198.90625 L 133.585938 190.6875 L 117.128906 195.523438 Z M 117.128906 193.078125 L 133.585938 188.199219 L 133.585938 179.980469 L 117.128906 184.816406 Z M 296.613281 136.828125 L 296.613281 193.472656 L 307.230469 190.347656 L 307.230469 133.71875 Z M 280.480469 198.230469 L 291.097656 195.109375 L 291.097656 138.476562 L 280.480469 141.585938 Z M 264.34375 195.859375 L 264.34375 202.992188 L 264.796875 202.859375 L 274.964844 199.867188 L 274.964844 143.234375 L 264.34375 146.347656 Z M 296.613281 221.25 L 296.613281 228.125 L 307.230469 225.003906 L 307.230469 196.6875 L 296.613281 199.796875 Z M 280.480469 216.507812 L 280.480469 232.886719 L 291.097656 229.761719 L 291.097656 201.449219 L 280.480469 204.558594 Z M 264.34375 209.316406 L 264.34375 237.644531 L 274.964844 234.523438 L 274.964844 206.207031 L 264.796875 209.183594 Z M 71.214844 199.464844 L 80.519531 202.199219 L 80.519531 177.378906 L 71.214844 174.652344 Z M 85.351562 203.632812 L 94.65625 206.371094 L 94.65625 181.550781 L 85.351562 178.824219 Z M 99.488281 182.996094 L 99.488281 207.804688 L 101.433594 208.375 L 108.792969 210.539062 L 108.792969 185.71875 L 101.433594 183.5625 Z M 71.214844 225.375 L 71.214844 231.015625 L 80.519531 233.753906 L 80.519531 208.933594 L 71.214844 206.207031 Z M 85.351562 221.214844 L 85.351562 235.1875 L 94.65625 237.921875 L 94.65625 213.101562 L 85.351562 210.378906 Z M 101.433594 215.117188 L 99.488281 214.546875 L 99.488281 239.359375 L 108.792969 242.09375 L 108.792969 217.273438 L 103.757812 215.796875 Z M 215.21875 123.835938 L 216.203125 123.546875 L 217.5 123.167969 L 217.5 118.402344 L 215.21875 119.070312 Z M 215.21875 123.835938 "/><path style=" stroke:none;fill-rule:nonzero;fill:#ffffff;fill-opacity:1;" d="M 264.34375 136.542969 L 300.570312 125.910156 L 206.050781 98.238281 L 111.863281 125.933594 L 157.898438 139.386719 L 157.898438 142.441406 L 101.433594 125.945312 L 101.515625 125.921875 L 206.050781 95.183594 L 311 125.90625 L 264.34375 139.601562 Z M 210.964844 108.433594 L 264.195312 124.019531 L 211.132812 139.59375 L 191.136719 133.75 L 157.898438 124.035156 L 157.9375 124.023438 Z M 210.964844 111.492188 L 168.328125 124.027344 L 211.128906 136.535156 L 253.765625 124.023438 L 218.683594 113.75 L 218.683594 111.6875 L 215.160156 112.71875 L 215.15625 112.71875 L 210.964844 113.949219 L 208.679688 114.28125 L 203.25 115.078125 L 203.269531 115.070312 L 210.941406 112.816406 L 213.976562 112.375 Z M 101.433594 164.628906 L 131.484375 173.414062 L 114.023438 178.53125 L 101.433594 174.855469 L 71.214844 166.027344 L 101.28125 157.1875 L 101.433594 164.628906 C 101.433594 164.628906 101.433594 158.441406 101.433594 154.082031 L 60.824219 166.023438 L 60.789062 166.03125 L 92.265625 175.230469 L 101.433594 177.910156 L 114.023438 181.589844 L 131.550781 176.449219 L 136.699219 174.9375 L 136.695312 174.9375 Z M 101.433594 164.628906 "/><g clip-rule="nonzero" clip-path="url(#cff7d4192c)"><path style=" stroke:none;fill-rule:nonzero;fill:#32312b;fill-opacity:1;" d="M 328.914062 230.449219 L 311.574219 225.355469 L 311.574219 125.898438 C 311.574219 125.808594 311.535156 125.722656 311.460938 125.671875 C 311.390625 125.617188 311.300781 125.601562 311.214844 125.625 L 311.117188 125.65625 C 311.101562 125.648438 311.09375 125.640625 311.078125 125.636719 L 206.128906 94.910156 C 206.078125 94.898438 206.023438 94.898438 205.972656 94.914062 L 101.515625 125.625 L 101.511719 125.625 C 101.429688 125.601562 101.335938 125.617188 101.265625 125.671875 C 101.195312 125.722656 101.152344 125.808594 101.152344 125.898438 L 101.152344 153.871094 L 60.792969 165.738281 C 60.734375 165.734375 60.671875 165.746094 60.621094 165.785156 C 60.570312 165.824219 60.542969 165.878906 60.523438 165.9375 C 60.523438 165.945312 60.519531 165.953125 60.519531 165.957031 C 60.515625 165.976562 60.507812 165.992188 60.507812 166.011719 L 60.507812 228.234375 L 45.855469 232.550781 C 45.734375 232.585938 45.652344 232.695312 45.652344 232.820312 C 45.652344 232.945312 45.734375 233.054688 45.855469 233.089844 L 107.382812 251.207031 L 113.941406 253.132812 C 113.992188 253.148438 114.046875 253.148438 114.101562 253.132812 L 136.515625 246.492188 L 157.617188 252.695312 L 157.617188 253.8125 L 140.488281 258.847656 C 140.371094 258.882812 140.289062 258.992188 140.289062 259.117188 C 140.289062 259.242188 140.371094 259.351562 140.488281 259.386719 L 211.042969 280.132812 C 211.070312 280.140625 211.09375 280.144531 211.121094 280.144531 C 211.148438 280.144531 211.175781 280.140625 211.203125 280.132812 L 283.960938 258.734375 C 284.082031 258.699219 284.164062 258.589844 284.164062 258.464844 C 284.164062 258.339844 284.082031 258.226562 283.960938 258.191406 L 264.628906 252.507812 L 264.628906 249.898438 L 328.914062 230.992188 C 329.035156 230.957031 329.117188 230.847656 329.117188 230.722656 C 329.117188 230.597656 329.035156 230.484375 328.914062 230.449219 Z M 264.628906 249.308594 L 264.628906 243.175781 L 311.371094 229.433594 C 311.492188 229.398438 311.574219 229.285156 311.574219 229.160156 L 311.574219 225.941406 L 327.835938 230.722656 Z M 264.0625 250.0625 L 264.0625 257.28125 L 215.636719 271.519531 L 215.636719 138.574219 L 264.0625 124.390625 L 264.0625 148.667969 C 263.949219 148.730469 263.886719 148.863281 263.925781 148.992188 C 263.949219 149.066406 264 149.121094 264.0625 149.15625 L 264.0625 177.667969 C 263.949219 177.730469 263.886719 177.863281 263.925781 177.992188 C 263.949219 178.066406 264 178.121094 264.0625 178.15625 L 264.0625 199.335938 C 263.949219 199.398438 263.886719 199.53125 263.925781 199.660156 C 263.949219 199.734375 264 199.789062 264.0625 199.824219 L 264.0625 212.363281 C 263.949219 212.425781 263.886719 212.554688 263.925781 212.683594 C 263.949219 212.757812 264 212.816406 264.0625 212.851562 L 264.0625 234.152344 C 263.949219 234.214844 263.886719 234.34375 263.925781 234.472656 C 263.949219 234.546875 264 234.601562 264.0625 234.636719 Z M 157.617188 254.398438 L 157.617188 257.492188 C 157.617188 257.617188 157.699219 257.726562 157.820312 257.761719 L 211.042969 273.414062 C 211.070312 273.421875 211.09375 273.425781 211.121094 273.425781 C 211.148438 273.425781 211.175781 273.421875 211.203125 273.414062 L 264.425781 257.761719 C 264.542969 257.726562 264.628906 257.617188 264.628906 257.492188 L 264.628906 253.097656 L 282.882812 258.464844 L 211.121094 279.566406 L 141.570312 259.117188 Z M 158.179688 253.644531 L 158.179688 124.414062 L 191.070312 134.023438 L 210.839844 139.816406 L 210.839844 272.765625 L 158.179688 257.28125 Z M 136.433594 245.925781 L 114.019531 252.570312 L 46.933594 232.820312 L 60.507812 228.824219 L 60.507812 230.496094 C 60.507812 230.621094 60.589844 230.730469 60.710938 230.765625 L 113.933594 246.414062 C 113.960938 246.421875 113.984375 246.425781 114.011719 246.425781 C 114.039062 246.425781 114.066406 246.421875 114.09375 246.414062 L 117.207031 245.492188 L 133.667969 240.609375 L 136.507812 239.769531 L 157.617188 245.976562 L 157.617188 252.109375 L 136.59375 245.925781 C 136.542969 245.910156 136.488281 245.910156 136.433594 245.925781 Z M 61.828125 166.019531 L 101.152344 154.460938 L 101.152344 156.929688 L 71.136719 165.753906 C 71.015625 165.789062 70.933594 165.902344 70.933594 166.027344 C 70.933594 166.152344 71.015625 166.261719 71.136719 166.296875 L 76.742188 167.933594 C 76.785156 168.046875 76.890625 168.117188 77.003906 168.117188 C 77.03125 168.117188 77.058594 168.113281 77.082031 168.105469 L 77.207031 168.070312 L 101.152344 175.066406 L 101.714844 175.230469 L 113.945312 178.804688 C 113.96875 178.8125 113.996094 178.816406 114.023438 178.816406 C 114.050781 178.816406 114.074219 178.8125 114.101562 178.804688 L 131.484375 173.707031 L 135.691406 174.9375 L 135.695312 174.9375 L 131.660156 176.121094 L 114.023438 181.296875 L 101.714844 177.699219 L 101.152344 177.535156 L 92.304688 174.949219 L 66.5 167.40625 C 66.492188 167.398438 66.492188 167.390625 66.484375 167.386719 C 66.433594 167.335938 66.363281 167.304688 66.285156 167.304688 C 66.269531 167.304688 66.253906 167.308594 66.234375 167.3125 C 66.222656 167.316406 66.210938 167.316406 66.203125 167.320312 L 63.542969 166.542969 C 63.496094 166.511719 63.445312 166.492188 63.386719 166.492188 C 63.382812 166.492188 63.378906 166.492188 63.375 166.492188 L 61.792969 166.03125 Z M 102.515625 125.917969 L 206.050781 95.476562 L 309.996094 125.910156 L 264.628906 139.222656 L 264.628906 136.753906 L 300.648438 126.183594 C 300.769531 126.148438 300.851562 126.035156 300.851562 125.910156 C 300.851562 125.785156 300.769531 125.675781 300.648438 125.640625 L 206.132812 97.96875 C 206.078125 97.953125 206.023438 97.953125 205.972656 97.96875 L 111.785156 125.664062 C 111.664062 125.699219 111.582031 125.808594 111.582031 125.933594 C 111.582031 126.058594 111.664062 126.171875 111.785156 126.207031 L 157.617188 139.597656 L 157.617188 142.066406 L 102.4375 125.941406 Z M 215.070312 150.710938 L 215.070312 271.6875 L 211.402344 272.765625 L 211.402344 139.816406 L 215.070312 138.742188 Z M 63.667969 227.894531 L 63.667969 167.167969 L 66.003906 167.851562 L 66.003906 231.734375 L 63.667969 231.046875 Z M 157.617188 142.65625 L 157.617188 245.386719 L 136.984375 239.320312 L 136.984375 174.933594 C 136.984375 174.914062 136.976562 174.894531 136.972656 174.875 C 136.96875 174.863281 136.96875 174.851562 136.964844 174.839844 C 136.957031 174.816406 136.945312 174.796875 136.929688 174.777344 C 136.925781 174.769531 136.917969 174.761719 136.914062 174.753906 C 136.898438 174.738281 136.890625 174.71875 136.871094 174.707031 C 136.847656 174.691406 136.820312 174.683594 136.792969 174.671875 C 136.785156 174.671875 136.785156 174.667969 136.777344 174.667969 L 136.773438 174.664062 L 136.746094 174.65625 L 101.714844 164.417969 L 101.714844 126.320312 Z M 136.421875 239.207031 L 136.011719 239.328125 L 135.511719 239.476562 L 133.871094 239.960938 L 133.871094 232.121094 C 133.871094 232.03125 133.828125 231.949219 133.757812 231.894531 C 133.683594 231.84375 133.59375 231.824219 133.507812 231.851562 L 122.539062 235.074219 L 122.039062 235.21875 L 121.539062 235.367188 L 117.050781 236.6875 C 116.929688 236.722656 116.847656 236.832031 116.847656 236.957031 L 116.847656 245.007812 L 114.292969 245.765625 L 114.292969 181.8125 L 131.679688 176.703125 L 136.421875 175.3125 Z M 117.527344 244.808594 L 117.410156 244.84375 L 117.410156 237.167969 L 122.539062 235.660156 L 123.039062 235.515625 L 123.539062 235.367188 L 125.078125 234.917969 L 125.078125 242.570312 Z M 133.304688 240.128906 L 125.640625 242.402344 L 125.640625 234.75 L 133.304688 232.5 Z M 66.566406 227.039062 L 66.566406 168.015625 L 92.074219 175.46875 L 101.152344 178.128906 L 101.714844 178.292969 L 113.730469 181.8125 L 113.730469 245.765625 L 66.566406 231.898438 Z M 130.480469 173.414062 L 125.804688 174.785156 L 101.714844 167.742188 L 101.636719 167.71875 L 101.707031 165.003906 L 101.714844 165.007812 Z M 72.21875 166.023438 L 101.007812 157.5625 L 101.066406 160.46875 L 77.207031 167.484375 Z M 101.078125 161.050781 L 101.152344 164.632812 L 101.070312 167.921875 C 101.066406 168 101.101562 168.070312 101.152344 168.125 C 101.1875 168.160156 101.222656 168.1875 101.273438 168.199219 L 101.433594 168.246094 L 101.714844 168.332031 L 124.800781 175.078125 L 114.023438 178.238281 L 101.714844 174.644531 L 101.433594 174.5625 L 101.152344 174.476562 L 78.210938 167.777344 Z M 158.941406 124.023438 L 210.964844 108.726562 L 263.195312 124.019531 L 211.132812 139.296875 L 191.324219 133.511719 L 158.902344 124.035156 Z M 264.515625 123.789062 C 264.445312 123.734375 264.351562 123.71875 264.265625 123.742188 L 264.261719 123.742188 L 211.042969 108.164062 C 210.992188 108.148438 210.9375 108.148438 210.882812 108.164062 L 157.914062 123.738281 C 157.847656 123.734375 157.78125 123.746094 157.730469 123.789062 C 157.679688 123.824219 157.648438 123.882812 157.632812 123.945312 C 157.632812 123.949219 157.628906 123.953125 157.628906 123.960938 C 157.625 123.976562 157.617188 123.996094 157.617188 124.011719 L 157.617188 139.011719 L 122.71875 128.8125 L 206.054688 104.308594 L 289.714844 128.804688 L 264.628906 136.164062 L 264.628906 124.011719 C 264.628906 123.925781 264.585938 123.839844 264.515625 123.789062 Z M 112.867188 125.933594 L 205.769531 98.617188 L 205.769531 103.804688 L 121.71875 128.519531 Z M 290.71875 128.507812 L 206.335938 103.804688 L 206.335938 98.617188 L 299.566406 125.910156 Z M 274.683594 214.507812 L 274.683594 231.027344 L 264.628906 233.972656 L 264.628906 212.773438 L 265.707031 212.457031 L 266.207031 212.308594 L 266.707031 212.164062 L 274.683594 209.828125 Z M 264.628906 234.5625 L 274.683594 231.617188 L 274.683594 234.3125 L 264.628906 237.269531 Z M 274.683594 209.238281 L 265.707031 211.871094 L 265.203125 212.015625 L 264.707031 212.160156 L 264.628906 212.183594 L 264.628906 209.527344 L 264.796875 209.480469 L 265.078125 209.398438 L 274.683594 206.582031 Z M 264.628906 199.746094 L 264.796875 199.699219 L 265.078125 199.617188 L 274.683594 196.800781 L 274.683594 199.65625 L 265.078125 202.480469 L 264.796875 202.5625 L 264.628906 202.613281 Z M 264.628906 149.078125 L 274.683594 146.132812 L 274.683594 174.546875 L 264.628906 177.492188 Z M 274.683594 145.546875 L 264.628906 148.492188 L 264.628906 146.558594 L 274.683594 143.613281 Z M 264.628906 195.648438 L 264.628906 178.082031 L 274.683594 175.132812 L 274.683594 196.214844 L 265.078125 199.027344 L 264.796875 199.109375 L 264.628906 199.160156 Z M 311.011719 225.480469 L 311.011719 228.949219 L 264.628906 242.589844 L 264.628906 237.855469 L 275.042969 234.792969 C 275.164062 234.757812 275.246094 234.648438 275.246094 234.523438 L 275.246094 206.207031 C 275.246094 206.117188 275.203125 206.035156 275.132812 205.980469 C 275.0625 205.929688 274.972656 205.910156 274.886719 205.9375 L 265.078125 208.808594 L 264.796875 208.890625 L 264.628906 208.941406 L 264.628906 203.203125 L 264.796875 203.152344 L 265.078125 203.070312 L 275.042969 200.140625 C 275.164062 200.101562 275.246094 199.992188 275.246094 199.867188 L 275.246094 143.234375 C 275.246094 143.148438 275.203125 143.0625 275.132812 143.011719 C 275.0625 142.957031 274.972656 142.941406 274.886719 142.964844 L 264.628906 145.96875 L 264.628906 139.859375 L 311.011719 126.273438 Z M 61.070312 228.070312 L 61.070312 166.40625 L 63.105469 167.003906 L 63.105469 230.882812 L 61.070312 230.28125 Z M 142.382812 203.007812 C 142.382812 203.132812 142.464844 203.242188 142.582031 203.277344 L 151.175781 205.804688 L 151.460938 205.886719 L 151.742188 205.96875 L 153.546875 206.5 C 153.574219 206.507812 153.601562 206.511719 153.628906 206.511719 C 153.6875 206.511719 153.746094 206.492188 153.796875 206.457031 C 153.867188 206.402344 153.910156 206.320312 153.910156 206.230469 L 153.910156 176.980469 C 153.910156 176.855469 153.828125 176.742188 153.707031 176.707031 L 142.742188 173.496094 C 142.65625 173.472656 142.566406 173.488281 142.492188 173.542969 C 142.421875 173.59375 142.382812 173.679688 142.382812 173.765625 L 142.382812 200.476562 C 142.375 200.488281 142.363281 200.5 142.359375 200.515625 C 142.339844 200.589844 142.347656 200.664062 142.382812 200.726562 Z M 153.347656 193.511719 L 153.347656 203.441406 L 151.742188 202.96875 L 151.460938 202.886719 L 151.175781 202.804688 L 142.945312 200.394531 L 142.945312 174.144531 L 153.347656 177.191406 Z M 151.175781 203.394531 L 151.460938 203.476562 L 151.742188 203.558594 L 153.347656 204.027344 L 153.347656 205.855469 L 151.742188 205.382812 L 151.460938 205.300781 L 151.175781 205.214844 L 142.945312 202.796875 L 142.945312 200.980469 Z M 142.382812 234.535156 C 142.382812 234.664062 142.464844 234.773438 142.582031 234.808594 L 153.546875 238.03125 C 153.574219 238.039062 153.601562 238.042969 153.628906 238.042969 C 153.6875 238.042969 153.746094 238.023438 153.796875 237.988281 C 153.867188 237.933594 153.910156 237.851562 153.910156 237.761719 L 153.910156 208.507812 C 153.910156 208.382812 153.828125 208.273438 153.707031 208.238281 L 149.421875 206.984375 L 148.921875 206.835938 L 148.421875 206.691406 L 142.742188 205.027344 C 142.65625 205 142.566406 205.019531 142.492188 205.070312 C 142.421875 205.125 142.382812 205.207031 142.382812 205.296875 L 142.382812 231.738281 C 142.375 231.753906 142.363281 231.765625 142.359375 231.78125 C 142.339844 231.855469 142.347656 231.929688 142.382812 231.988281 Z M 142.945312 208.59375 L 142.945312 205.671875 L 147.417969 206.984375 L 147.917969 207.132812 L 148.421875 207.277344 L 153.347656 208.722656 L 153.347656 234.707031 L 142.945312 231.660156 Z M 142.945312 232.246094 L 153.347656 235.292969 L 153.347656 237.382812 L 142.945312 234.324219 Z M 211.128906 136.816406 C 211.15625 136.816406 211.183594 136.8125 211.210938 136.804688 L 253.84375 124.292969 C 253.964844 124.257812 254.046875 124.148438 254.046875 124.023438 C 254.046875 123.898438 253.964844 123.785156 253.84375 123.75 L 218.964844 113.539062 L 218.964844 111.6875 C 218.964844 111.601562 218.921875 111.515625 218.851562 111.460938 C 218.804688 111.425781 218.746094 111.414062 218.691406 111.414062 C 218.667969 111.410156 218.644531 111.40625 218.621094 111.410156 L 213.996094 112.085938 L 211.042969 111.21875 C 210.992188 111.207031 210.9375 111.207031 210.886719 111.222656 L 168.25 123.757812 C 168.128906 123.792969 168.046875 123.902344 168.046875 124.027344 C 168.046875 124.152344 168.128906 124.261719 168.25 124.296875 L 211.050781 136.804688 C 211.078125 136.8125 211.105469 136.816406 211.128906 136.816406 Z M 169.332031 124.027344 L 210.683594 111.867188 L 210.683594 112.597656 L 203.210938 114.796875 L 203.207031 114.796875 C 203.203125 114.796875 203.199219 114.800781 203.195312 114.800781 L 203.167969 114.808594 C 203.167969 114.808594 203.164062 114.808594 203.164062 114.8125 C 203.132812 114.820312 203.105469 114.835938 203.082031 114.851562 C 203.078125 114.855469 203.070312 114.859375 203.066406 114.863281 C 203.046875 114.882812 203.03125 114.902344 203.015625 114.925781 C 203.011719 114.933594 203.003906 114.941406 203 114.949219 C 202.992188 114.96875 202.984375 114.988281 202.980469 115.007812 C 202.976562 115.023438 202.972656 115.039062 202.972656 115.050781 C 202.96875 115.058594 202.964844 115.066406 202.964844 115.074219 L 202.964844 119.324219 L 178.183594 126.613281 Z M 243.914062 126.621094 L 218.964844 119.316406 L 218.964844 114.125 L 252.765625 124.023438 Z M 203.53125 119.746094 L 203.53125 115.324219 L 208.644531 114.574219 L 210.683594 114.273438 L 210.683594 124.710938 L 203.53125 122.609375 Z M 215.5 119.28125 L 216.171875 119.085938 L 217.175781 118.792969 L 217.21875 118.777344 L 217.21875 122.957031 L 216.464844 123.175781 L 215.5 123.460938 Z M 218.402344 113.375 L 218.402344 122.609375 L 217.78125 122.789062 L 217.78125 118.402344 C 217.78125 118.3125 217.738281 118.230469 217.667969 118.175781 C 217.597656 118.125 217.507812 118.105469 217.421875 118.132812 L 216.171875 118.496094 L 215.164062 118.789062 L 215.136719 118.800781 C 215.019531 118.835938 214.933594 118.945312 214.933594 119.070312 L 214.933594 123.625 L 211.246094 124.710938 L 211.246094 114.160156 L 215.160156 113.011719 L 215.664062 112.867188 L 216.164062 112.71875 L 218.402344 112.066406 Z M 214.652344 112.570312 L 214.152344 112.71875 L 211.246094 113.570312 L 210.90625 113.671875 L 210.683594 113.703125 L 208.515625 114.019531 L 207.175781 114.21875 L 207.179688 114.214844 L 210.683594 113.1875 L 211.003906 113.09375 L 211.246094 113.058594 L 213.957031 112.660156 L 214.625 112.5625 L 214.734375 112.546875 Z M 211.246094 112.488281 L 211.246094 111.867188 L 212.65625 112.28125 Z M 202.964844 119.914062 L 202.964844 122.820312 C 202.964844 122.945312 203.050781 123.054688 203.167969 123.089844 L 210.886719 125.359375 C 210.910156 125.367188 210.9375 125.371094 210.964844 125.371094 C 210.992188 125.371094 211.019531 125.367188 211.042969 125.359375 L 215.867188 123.941406 L 217.578125 123.4375 C 217.582031 123.4375 217.582031 123.4375 217.582031 123.4375 L 218.761719 123.089844 C 218.882812 123.054688 218.964844 122.945312 218.964844 122.820312 L 218.964844 119.902344 L 242.910156 126.914062 L 211.128906 136.242188 L 179.183594 126.90625 Z M 165.644531 192.046875 L 174.945312 194.78125 C 174.972656 194.789062 175 194.792969 175.027344 194.792969 C 175.085938 194.792969 175.144531 194.773438 175.195312 194.738281 C 175.265625 194.683594 175.308594 194.601562 175.308594 194.511719 L 175.308594 169.691406 C 175.308594 169.566406 175.226562 169.457031 175.105469 169.421875 L 165.800781 166.695312 C 165.714844 166.667969 165.625 166.6875 165.554688 166.738281 C 165.480469 166.792969 165.441406 166.875 165.441406 166.964844 L 165.441406 191.777344 C 165.441406 191.902344 165.523438 192.011719 165.644531 192.046875 Z M 174.746094 171.644531 L 166.003906 169.082031 L 166.003906 167.339844 L 174.746094 169.902344 Z M 174.746094 172.230469 L 174.746094 192.125 L 167.386719 189.96875 L 166.886719 189.824219 L 166.386719 189.675781 L 166.003906 189.5625 L 166.003906 169.671875 Z M 166.003906 190.378906 L 166.003906 190.152344 L 166.386719 190.265625 L 174.746094 192.710938 L 174.746094 194.132812 L 166.003906 191.566406 Z M 179.777344 196.214844 L 189.082031 198.953125 C 189.109375 198.960938 189.136719 198.964844 189.164062 198.964844 C 189.222656 198.964844 189.28125 198.945312 189.332031 198.90625 C 189.402344 198.855469 189.445312 198.769531 189.445312 198.683594 L 189.445312 173.859375 C 189.445312 173.734375 189.363281 173.625 189.242188 173.589844 L 179.9375 170.863281 C 179.851562 170.839844 179.761719 170.855469 179.6875 170.910156 C 179.617188 170.960938 179.578125 171.046875 179.578125 171.136719 L 179.578125 195.945312 C 179.578125 196.070312 179.660156 196.179688 179.777344 196.214844 Z M 180.140625 185.925781 L 180.140625 173.839844 L 188.882812 176.402344 L 188.882812 196.296875 L 180.140625 193.734375 Z M 188.882812 175.8125 L 180.140625 173.253906 L 180.140625 171.511719 L 188.882812 174.074219 Z M 180.140625 194.324219 L 188.882812 196.882812 L 188.882812 198.304688 L 180.140625 195.734375 Z M 193.914062 200.386719 L 203.21875 203.121094 C 203.246094 203.128906 203.273438 203.132812 203.300781 203.132812 C 203.359375 203.132812 203.417969 203.113281 203.46875 203.078125 C 203.539062 203.023438 203.582031 202.941406 203.582031 202.851562 L 203.582031 178.03125 C 203.582031 177.90625 203.5 177.796875 203.378906 177.761719 L 194.074219 175.035156 C 193.988281 175.011719 193.898438 175.027344 193.824219 175.078125 C 193.753906 175.132812 193.710938 175.21875 193.710938 175.304688 L 193.710938 200.117188 C 193.710938 200.242188 193.796875 200.351562 193.914062 200.386719 Z M 194.277344 181.769531 L 194.277344 178.011719 L 200.179688 179.738281 L 201.179688 180.035156 L 203.015625 180.570312 L 203.015625 200.464844 L 194.277344 197.90625 Z M 203.015625 178.90625 L 203.015625 179.984375 L 202.183594 179.738281 L 201.683594 179.59375 L 201.179688 179.445312 L 194.277344 177.421875 L 194.277344 175.683594 L 203.015625 178.242188 Z M 194.277344 198.492188 L 203.015625 201.054688 L 203.015625 202.476562 L 194.277344 199.90625 Z M 165.644531 222.484375 L 174.945312 225.222656 C 174.972656 225.230469 175 225.234375 175.027344 225.234375 C 175.085938 225.234375 175.144531 225.214844 175.195312 225.175781 C 175.265625 225.125 175.308594 225.039062 175.308594 224.953125 L 175.308594 200.128906 C 175.308594 200.003906 175.226562 199.894531 175.105469 199.859375 L 165.800781 197.132812 C 165.714844 197.109375 165.625 197.125 165.554688 197.179688 C 165.480469 197.234375 165.441406 197.316406 165.441406 197.40625 L 165.441406 222.214844 C 165.441406 222.339844 165.523438 222.449219 165.644531 222.484375 Z M 166.003906 220.542969 L 174.746094 223.105469 L 174.746094 224.574219 L 166.003906 222.003906 Z M 174.746094 202.214844 L 166.003906 199.652344 L 166.003906 197.78125 L 174.746094 200.34375 Z M 174.746094 202.800781 L 174.746094 222.515625 L 166.003906 219.957031 L 166.003906 200.242188 Z M 179.777344 226.65625 L 189.082031 229.390625 C 189.109375 229.398438 189.136719 229.402344 189.164062 229.402344 C 189.222656 229.402344 189.28125 229.382812 189.332031 229.347656 C 189.402344 229.292969 189.445312 229.210938 189.445312 229.121094 L 189.445312 204.300781 C 189.445312 204.175781 189.363281 204.066406 189.242188 204.03125 L 179.9375 201.304688 C 179.851562 201.28125 179.761719 201.296875 179.6875 201.351562 C 179.617188 201.402344 179.578125 201.488281 179.578125 201.574219 L 179.578125 226.386719 C 179.578125 226.511719 179.660156 226.621094 179.777344 226.65625 Z M 180.140625 224.714844 L 188.882812 227.273438 L 188.882812 228.746094 L 180.140625 226.175781 Z M 188.882812 206.386719 L 180.140625 203.824219 L 180.140625 201.953125 L 188.882812 204.511719 Z M 188.882812 206.972656 L 188.882812 226.6875 L 180.140625 224.125 L 180.140625 204.414062 Z M 193.914062 230.828125 L 203.21875 233.5625 C 203.246094 233.570312 203.273438 233.574219 203.300781 233.574219 C 203.359375 233.574219 203.417969 233.554688 203.46875 233.519531 C 203.539062 233.464844 203.582031 233.378906 203.582031 233.292969 L 203.582031 208.472656 C 203.582031 208.347656 203.5 208.234375 203.378906 208.199219 L 194.074219 205.476562 C 193.988281 205.449219 193.898438 205.46875 193.824219 205.519531 C 193.753906 205.574219 193.710938 205.65625 193.710938 205.746094 L 193.710938 230.554688 C 193.710938 230.679688 193.796875 230.792969 193.914062 230.828125 Z M 194.277344 228.882812 L 203.015625 231.445312 L 203.015625 232.914062 L 194.277344 230.34375 Z M 203.015625 210.554688 L 194.277344 207.996094 L 194.277344 206.121094 L 203.015625 208.683594 Z M 203.015625 211.144531 L 203.015625 230.855469 L 194.277344 228.296875 L 194.277344 208.582031 Z M 165.644531 254.039062 L 174.945312 256.773438 C 174.972656 256.78125 175 256.785156 175.027344 256.785156 C 175.085938 256.785156 175.144531 256.765625 175.195312 256.730469 C 175.265625 256.675781 175.308594 256.59375 175.308594 256.503906 L 175.308594 231.683594 C 175.308594 231.558594 175.226562 231.449219 175.105469 231.414062 L 165.800781 228.6875 C 165.714844 228.664062 165.625 228.679688 165.554688 228.734375 C 165.480469 228.785156 165.441406 228.871094 165.441406 228.957031 L 165.441406 253.769531 C 165.441406 253.894531 165.523438 254.003906 165.644531 254.039062 Z M 166.003906 248.148438 L 166.003906 231.785156 L 174.746094 234.347656 L 174.746094 253.320312 L 166.003906 250.761719 Z M 174.746094 233.757812 L 166.003906 231.199219 L 166.003906 229.335938 L 174.746094 231.894531 Z M 166.003906 251.347656 L 174.746094 253.910156 L 174.746094 256.128906 L 166.003906 253.558594 Z M 179.777344 258.210938 L 189.082031 260.945312 C 189.109375 260.953125 189.136719 260.957031 189.164062 260.957031 C 189.222656 260.957031 189.28125 260.9375 189.332031 260.902344 C 189.402344 260.847656 189.445312 260.765625 189.445312 260.675781 L 189.445312 235.855469 C 189.445312 235.730469 189.363281 235.617188 189.242188 235.582031 L 179.9375 232.859375 C 179.851562 232.832031 179.761719 232.847656 179.6875 232.902344 C 179.617188 232.957031 179.578125 233.039062 179.578125 233.128906 L 179.578125 257.9375 C 179.578125 258.0625 179.660156 258.175781 179.777344 258.210938 Z M 180.140625 252.304688 L 180.140625 235.957031 L 188.882812 238.515625 L 188.882812 257.492188 L 180.140625 254.929688 Z M 188.882812 237.929688 L 180.140625 235.367188 L 180.140625 233.503906 L 188.882812 236.066406 Z M 180.140625 255.519531 L 188.882812 258.078125 L 188.882812 260.296875 L 180.140625 257.726562 Z M 193.914062 262.378906 L 203.21875 265.117188 C 203.246094 265.125 203.273438 265.128906 203.300781 265.128906 C 203.359375 265.128906 203.417969 265.109375 203.46875 265.070312 C 203.539062 265.015625 203.582031 264.933594 203.582031 264.84375 L 203.582031 240.023438 C 203.582031 239.898438 203.5 239.789062 203.378906 239.753906 L 194.074219 237.027344 C 193.988281 237.003906 193.898438 237.019531 193.824219 237.074219 C 193.753906 237.125 193.710938 237.210938 193.710938 237.300781 L 193.710938 262.109375 C 193.710938 262.234375 193.796875 262.34375 193.914062 262.378906 Z M 194.277344 256.460938 L 194.277344 240.125 L 203.015625 242.6875 L 203.015625 261.660156 L 194.277344 259.101562 Z M 203.015625 242.097656 L 194.277344 239.539062 L 194.277344 237.675781 L 203.015625 240.234375 Z M 194.277344 259.6875 L 203.015625 262.25 L 203.015625 264.46875 L 194.277344 261.898438 Z M 259.097656 131.28125 L 249.792969 134.007812 C 249.671875 134.042969 249.589844 134.152344 249.589844 134.277344 L 249.589844 163.390625 C 249.589844 163.476562 249.632812 163.5625 249.703125 163.613281 C 249.753906 163.652344 249.8125 163.671875 249.871094 163.671875 C 249.898438 163.671875 249.925781 163.667969 249.953125 163.660156 L 259.257812 160.921875 C 259.375 160.886719 259.457031 160.777344 259.457031 160.652344 L 259.457031 131.550781 C 259.457031 131.464844 259.417969 131.378906 259.347656 131.324219 C 259.273438 131.273438 259.183594 131.257812 259.097656 131.28125 Z M 258.894531 137.847656 L 258.894531 158.90625 L 250.15625 161.464844 L 250.15625 137.015625 L 258.894531 134.453125 Z M 258.894531 160.441406 L 250.15625 163.011719 L 250.15625 162.054688 L 258.894531 159.492188 Z M 250.15625 134.488281 L 258.894531 131.929688 L 258.894531 133.867188 L 250.15625 136.425781 Z M 244.960938 135.453125 L 235.65625 138.175781 C 235.539062 138.210938 235.453125 138.324219 235.453125 138.449219 L 235.453125 167.558594 C 235.453125 167.648438 235.496094 167.730469 235.566406 167.785156 C 235.617188 167.820312 235.675781 167.839844 235.738281 167.839844 C 235.761719 167.839844 235.789062 167.835938 235.816406 167.828125 L 245.121094 165.09375 C 245.242188 165.058594 245.324219 164.949219 245.324219 164.824219 L 245.324219 135.722656 C 245.324219 135.632812 245.28125 135.550781 245.210938 135.496094 C 245.140625 135.441406 245.046875 135.425781 244.960938 135.453125 Z M 244.757812 141.996094 L 244.757812 163.074219 L 236.019531 165.636719 L 236.019531 141.183594 L 244.757812 138.625 Z M 244.757812 164.613281 L 236.019531 167.183594 L 236.019531 166.222656 L 244.757812 163.664062 Z M 236.019531 138.660156 L 244.757812 136.097656 L 244.757812 138.035156 L 236.019531 140.597656 Z M 230.824219 139.621094 L 221.519531 142.347656 C 221.402344 142.382812 221.320312 142.492188 221.320312 142.617188 L 221.320312 171.730469 C 221.320312 171.816406 221.359375 171.902344 221.429688 171.957031 C 221.480469 171.992188 221.539062 172.011719 221.601562 172.011719 C 221.625 172.011719 221.652344 172.007812 221.679688 172 L 230.984375 169.265625 C 231.105469 169.230469 231.1875 169.117188 231.1875 168.992188 L 231.1875 139.890625 C 231.1875 139.804688 231.144531 139.71875 231.074219 139.667969 C 231.003906 139.613281 230.910156 139.597656 230.824219 139.621094 Z M 230.621094 146.144531 L 230.621094 167.246094 L 221.882812 169.804688 L 221.882812 145.355469 L 230.621094 142.796875 Z M 230.621094 168.78125 L 221.882812 171.351562 L 221.882812 170.394531 L 230.621094 167.832031 Z M 221.882812 142.828125 L 230.621094 140.269531 L 230.621094 142.207031 L 221.882812 144.769531 Z M 259.097656 165.9375 L 249.792969 168.660156 C 249.671875 168.695312 249.589844 168.808594 249.589844 168.933594 L 249.589844 193.753906 C 249.589844 193.84375 249.632812 193.925781 249.703125 193.980469 C 249.753906 194.015625 249.8125 194.035156 249.871094 194.035156 C 249.898438 194.035156 249.925781 194.03125 249.953125 194.023438 L 253.527344 192.972656 L 254.027344 192.824219 L 254.527344 192.679688 L 259.257812 191.289062 C 259.375 191.253906 259.457031 191.140625 259.457031 191.015625 L 259.457031 166.207031 C 259.457031 166.117188 259.417969 166.035156 259.347656 165.980469 C 259.273438 165.929688 259.183594 165.910156 259.097656 165.9375 Z M 258.894531 190.804688 L 253.527344 192.382812 L 253.027344 192.53125 L 252.53125 192.679688 L 250.15625 193.375 L 250.15625 192.445312 L 250.945312 192.210938 L 251.445312 192.066406 L 251.949219 191.917969 L 258.894531 189.882812 Z M 250.15625 169.144531 L 258.894531 166.582031 L 258.894531 168.8125 L 250.15625 171.375 Z M 250.15625 191.390625 L 250.15625 171.960938 L 258.894531 169.402344 L 258.894531 189.296875 L 250.945312 191.625 L 250.445312 191.773438 L 250.15625 191.855469 Z M 244.960938 170.105469 L 235.65625 172.832031 C 235.539062 172.867188 235.453125 172.976562 235.453125 173.101562 L 235.453125 197.921875 C 235.453125 198.011719 235.496094 198.097656 235.566406 198.148438 C 235.617188 198.1875 235.675781 198.207031 235.738281 198.207031 C 235.761719 198.207031 235.789062 198.203125 235.816406 198.195312 L 245.121094 195.457031 C 245.242188 195.421875 245.324219 195.3125 245.324219 195.1875 L 245.324219 170.378906 C 245.324219 170.289062 245.28125 170.203125 245.210938 170.152344 C 245.140625 170.097656 245.046875 170.082031 244.960938 170.105469 Z M 244.757812 189.804688 L 244.757812 193.464844 L 236.019531 196.027344 L 236.019531 176.132812 L 244.757812 173.574219 Z M 244.757812 194.976562 L 236.019531 197.546875 L 236.019531 196.613281 L 244.757812 194.054688 Z M 236.019531 173.3125 L 244.757812 170.753906 L 244.757812 172.984375 L 236.019531 175.546875 Z M 230.824219 174.277344 L 221.519531 177.003906 C 221.402344 177.039062 221.320312 177.148438 221.320312 177.273438 L 221.320312 202.09375 C 221.320312 202.183594 221.359375 202.265625 221.429688 202.320312 C 221.480469 202.355469 221.539062 202.375 221.601562 202.375 C 221.625 202.375 221.652344 202.371094 221.679688 202.363281 L 230.984375 199.628906 C 231.105469 199.59375 231.1875 199.484375 231.1875 199.359375 L 231.1875 174.546875 C 231.1875 174.457031 231.144531 174.375 231.074219 174.320312 C 231.003906 174.269531 230.910156 174.253906 230.824219 174.277344 Z M 230.621094 185.648438 L 230.621094 197.636719 L 221.882812 200.199219 L 221.882812 180.304688 L 230.621094 177.742188 Z M 230.621094 199.148438 L 221.882812 201.71875 L 221.882812 200.785156 L 230.621094 198.226562 Z M 221.882812 177.484375 L 230.621094 174.921875 L 230.621094 177.15625 L 221.882812 179.714844 Z M 259.097656 196.375 L 249.792969 199.101562 C 249.671875 199.136719 249.589844 199.246094 249.589844 199.371094 L 249.589844 224.195312 C 249.589844 224.28125 249.632812 224.367188 249.703125 224.417969 C 249.753906 224.457031 249.8125 224.476562 249.871094 224.476562 C 249.898438 224.476562 249.925781 224.472656 249.953125 224.464844 L 259.257812 221.726562 C 259.375 221.691406 259.457031 221.582031 259.457031 221.457031 L 259.457031 196.648438 C 259.457031 196.558594 259.417969 196.472656 259.347656 196.421875 C 259.273438 196.367188 259.183594 196.351562 259.097656 196.375 Z M 258.894531 219.6875 L 250.15625 222.246094 L 250.15625 202.535156 L 258.894531 199.972656 Z M 250.15625 199.585938 L 258.894531 197.023438 L 258.894531 199.386719 L 250.15625 201.945312 Z M 258.894531 221.246094 L 250.15625 223.816406 L 250.15625 222.835938 L 258.894531 220.273438 Z M 244.960938 200.546875 L 235.65625 203.273438 C 235.539062 203.308594 235.453125 203.417969 235.453125 203.542969 L 235.453125 228.363281 C 235.453125 228.453125 235.496094 228.535156 235.566406 228.589844 C 235.617188 228.625 235.675781 228.644531 235.738281 228.644531 C 235.761719 228.644531 235.789062 228.640625 235.816406 228.632812 L 245.121094 225.898438 C 245.242188 225.863281 245.324219 225.753906 245.324219 225.628906 L 245.324219 200.816406 C 245.324219 200.730469 245.28125 200.644531 245.210938 200.589844 C 245.140625 200.539062 245.046875 200.523438 244.960938 200.546875 Z M 244.757812 223.855469 L 236.019531 226.417969 L 236.019531 206.703125 L 244.757812 204.144531 Z M 236.019531 203.753906 L 244.757812 201.195312 L 244.757812 203.554688 L 236.019531 206.117188 Z M 244.757812 225.417969 L 236.019531 227.988281 L 236.019531 227.003906 L 244.757812 224.445312 Z M 230.824219 204.71875 L 221.519531 207.441406 C 221.402344 207.476562 221.320312 207.589844 221.320312 207.714844 L 221.320312 232.535156 C 221.320312 232.621094 221.359375 232.707031 221.429688 232.757812 C 221.480469 232.796875 221.539062 232.816406 221.601562 232.816406 C 221.625 232.816406 221.652344 232.8125 221.679688 232.804688 L 230.984375 230.070312 C 231.105469 230.035156 231.1875 229.921875 231.1875 229.796875 L 231.1875 204.988281 C 231.1875 204.898438 231.144531 204.816406 231.074219 204.761719 C 231.003906 204.707031 230.910156 204.691406 230.824219 204.71875 Z M 230.621094 228.027344 L 221.882812 230.589844 L 221.882812 210.875 L 230.621094 208.3125 Z M 221.882812 207.925781 L 230.621094 205.363281 L 230.621094 207.726562 L 221.882812 210.285156 Z M 230.621094 229.585938 L 221.882812 232.15625 L 221.882812 231.175781 L 230.621094 228.617188 Z M 259.097656 227.929688 L 249.792969 230.65625 C 249.671875 230.691406 249.589844 230.800781 249.589844 230.925781 L 249.589844 255.746094 C 249.589844 255.835938 249.632812 255.917969 249.703125 255.972656 C 249.753906 256.007812 249.8125 256.027344 249.871094 256.027344 C 249.898438 256.027344 249.925781 256.023438 249.953125 256.015625 L 259.257812 253.28125 C 259.375 253.246094 259.457031 253.136719 259.457031 253.011719 L 259.457031 228.199219 C 259.457031 228.113281 259.417969 228.027344 259.347656 227.972656 C 259.273438 227.921875 259.183594 227.90625 259.097656 227.929688 Z M 258.894531 244.273438 L 258.894531 250.492188 L 250.15625 253.050781 L 250.15625 234.078125 L 258.894531 231.519531 Z M 250.15625 253.640625 L 258.894531 251.078125 L 258.894531 252.800781 L 250.15625 255.371094 Z M 250.15625 231.136719 L 258.894531 228.578125 L 258.894531 230.929688 L 250.15625 233.492188 Z M 244.960938 232.101562 L 235.65625 234.824219 C 235.539062 234.859375 235.453125 234.972656 235.453125 235.097656 L 235.453125 259.917969 C 235.453125 260.003906 235.496094 260.089844 235.566406 260.140625 C 235.617188 260.179688 235.675781 260.199219 235.738281 260.199219 C 235.761719 260.199219 235.789062 260.195312 235.816406 260.1875 L 245.121094 257.453125 C 245.242188 257.417969 245.324219 257.304688 245.324219 257.179688 L 245.324219 232.371094 C 245.324219 232.28125 245.28125 232.199219 245.210938 232.144531 C 245.140625 232.089844 245.046875 232.074219 244.960938 232.101562 Z M 244.757812 248.429688 L 244.757812 254.664062 L 236.019531 257.222656 L 236.019531 238.25 L 244.757812 235.6875 Z M 244.757812 256.96875 L 236.019531 259.539062 L 236.019531 257.8125 L 244.757812 255.25 Z M 236.019531 235.308594 L 244.757812 232.746094 L 244.757812 235.101562 L 236.019531 237.660156 Z M 230.824219 236.269531 L 221.519531 238.996094 C 221.402344 239.03125 221.320312 239.140625 221.320312 239.265625 L 221.320312 264.085938 C 221.320312 264.175781 221.359375 264.257812 221.429688 264.3125 C 221.480469 264.351562 221.539062 264.367188 221.601562 264.367188 C 221.625 264.367188 221.652344 264.367188 221.679688 264.359375 L 230.984375 261.621094 C 231.105469 261.585938 231.1875 261.476562 231.1875 261.351562 L 231.1875 236.539062 C 231.1875 236.453125 231.144531 236.367188 231.074219 236.316406 C 231.003906 236.261719 230.910156 236.246094 230.824219 236.269531 Z M 230.621094 252.585938 L 230.621094 258.832031 L 221.882812 261.394531 L 221.882812 242.417969 L 230.621094 239.859375 Z M 230.621094 261.140625 L 221.882812 263.710938 L 221.882812 261.980469 L 230.621094 259.421875 Z M 221.882812 239.476562 L 230.621094 236.917969 L 230.621094 239.269531 L 221.882812 241.832031 Z M 165.644531 161.683594 L 174.945312 164.417969 C 174.972656 164.425781 175 164.429688 175.027344 164.429688 C 175.085938 164.429688 175.144531 164.410156 175.195312 164.371094 C 175.265625 164.320312 175.308594 164.234375 175.308594 164.148438 L 175.308594 135.035156 C 175.308594 134.910156 175.226562 134.800781 175.105469 134.765625 L 165.800781 132.039062 C 165.714844 132.015625 165.625 132.03125 165.554688 132.085938 C 165.480469 132.136719 165.441406 132.222656 165.441406 132.308594 L 165.441406 161.410156 C 165.441406 161.535156 165.523438 161.644531 165.644531 161.683594 Z M 166.003906 145.105469 L 166.003906 134.722656 L 174.746094 137.28125 L 174.746094 161.734375 L 166.003906 159.171875 Z M 174.746094 136.695312 L 166.003906 134.136719 L 166.003906 132.6875 L 174.746094 135.246094 Z M 166.003906 159.761719 L 174.746094 162.320312 L 174.746094 163.769531 L 166.003906 161.199219 Z M 179.777344 165.851562 L 189.082031 168.585938 C 189.109375 168.59375 189.136719 168.597656 189.164062 168.597656 C 189.222656 168.597656 189.28125 168.578125 189.332031 168.542969 C 189.402344 168.488281 189.445312 168.40625 189.445312 168.316406 L 189.445312 139.207031 C 189.445312 139.082031 189.363281 138.96875 189.242188 138.933594 L 179.9375 136.210938 C 179.851562 136.183594 179.761719 136.199219 179.6875 136.253906 C 179.617188 136.308594 179.578125 136.390625 179.578125 136.480469 L 179.578125 165.582031 C 179.578125 165.707031 179.660156 165.816406 179.777344 165.851562 Z M 180.140625 149.234375 L 180.140625 138.894531 L 188.882812 141.453125 L 188.882812 165.90625 L 180.140625 163.34375 Z M 188.882812 140.867188 L 180.140625 138.304688 L 180.140625 136.855469 L 188.882812 139.417969 Z M 180.140625 163.933594 L 188.882812 166.492188 L 188.882812 167.941406 L 180.140625 165.371094 Z M 193.914062 170.023438 L 203.21875 172.757812 C 203.246094 172.765625 203.273438 172.769531 203.300781 172.769531 C 203.359375 172.769531 203.417969 172.75 203.46875 172.714844 C 203.539062 172.660156 203.582031 172.578125 203.582031 172.488281 L 203.582031 143.375 C 203.582031 143.25 203.5 143.140625 203.378906 143.105469 L 194.074219 140.378906 C 193.988281 140.355469 193.898438 140.371094 193.824219 140.425781 C 193.753906 140.476562 193.710938 140.5625 193.710938 140.652344 L 193.710938 169.75 C 193.710938 169.875 193.796875 169.988281 193.914062 170.023438 Z M 194.277344 153.367188 L 194.277344 143.0625 L 203.015625 145.625 L 203.015625 170.074219 L 194.277344 167.515625 Z M 203.015625 145.035156 L 194.277344 142.476562 L 194.277344 141.027344 L 203.015625 143.585938 Z M 194.277344 168.101562 L 203.015625 170.664062 L 203.015625 172.109375 L 194.277344 169.539062 Z M 133.507812 211.835938 L 117.050781 216.671875 C 116.929688 216.707031 116.847656 216.816406 116.847656 216.941406 L 116.847656 225.203125 C 116.847656 225.292969 116.890625 225.375 116.960938 225.429688 C 117.007812 225.464844 117.070312 225.484375 117.128906 225.484375 C 117.15625 225.484375 117.183594 225.480469 117.207031 225.472656 L 133.667969 220.59375 C 133.789062 220.558594 133.871094 220.449219 133.871094 220.324219 L 133.871094 212.105469 C 133.871094 212.015625 133.828125 211.933594 133.757812 211.878906 C 133.683594 211.824219 133.59375 211.808594 133.507812 211.835938 Z M 133.304688 220.113281 L 117.410156 224.824219 L 117.410156 217.152344 L 133.304688 212.480469 Z M 133.507812 201.125 L 117.050781 205.960938 C 116.929688 205.996094 116.847656 206.109375 116.847656 206.234375 L 116.847656 214.496094 C 116.847656 214.582031 116.890625 214.667969 116.960938 214.722656 C 117.007812 214.757812 117.070312 214.777344 117.128906 214.777344 C 117.15625 214.777344 117.183594 214.773438 117.207031 214.765625 L 133.585938 209.910156 L 133.667969 209.886719 C 133.761719 209.859375 133.828125 209.785156 133.855469 209.695312 C 133.863281 209.671875 133.871094 209.644531 133.871094 209.617188 L 133.871094 201.394531 C 133.871094 201.308594 133.828125 201.222656 133.757812 201.171875 C 133.683594 201.117188 133.59375 201.101562 133.507812 201.125 Z M 133.304688 209.238281 L 133.304688 209.40625 L 133.089844 209.46875 L 132.59375 209.617188 L 117.410156 214.117188 L 117.410156 206.445312 L 133.304688 201.773438 Z M 133.507812 190.417969 L 117.050781 195.253906 C 116.929688 195.289062 116.847656 195.398438 116.847656 195.523438 L 116.847656 203.785156 C 116.847656 203.875 116.890625 203.957031 116.960938 204.011719 C 117.007812 204.050781 117.070312 204.066406 117.128906 204.066406 C 117.15625 204.066406 117.183594 204.0625 117.207031 204.054688 L 133.667969 199.175781 C 133.789062 199.140625 133.871094 199.03125 133.871094 198.90625 L 133.871094 190.6875 C 133.871094 190.597656 133.828125 190.515625 133.757812 190.460938 C 133.683594 190.410156 133.59375 190.390625 133.507812 190.417969 Z M 133.304688 198.695312 L 117.410156 203.410156 L 117.410156 195.734375 L 133.304688 191.0625 Z M 133.507812 179.707031 L 117.050781 184.542969 C 116.929688 184.578125 116.847656 184.691406 116.847656 184.816406 L 116.847656 193.078125 C 116.847656 193.167969 116.890625 193.25 116.960938 193.304688 C 117.007812 193.339844 117.070312 193.359375 117.128906 193.359375 C 117.15625 193.359375 117.183594 193.355469 117.207031 193.347656 L 133.667969 188.46875 C 133.789062 188.433594 133.871094 188.324219 133.871094 188.199219 L 133.871094 179.980469 C 133.871094 179.890625 133.828125 179.804688 133.757812 179.753906 C 133.683594 179.699219 133.59375 179.683594 133.507812 179.707031 Z M 133.304688 187.988281 L 117.410156 192.699219 L 117.410156 185.027344 L 133.304688 180.355469 Z M 124.753906 238.824219 L 124.753906 240.242188 C 124.753906 240.398438 124.628906 240.523438 124.472656 240.523438 C 124.316406 240.523438 124.191406 240.398438 124.191406 240.242188 L 124.191406 238.824219 C 124.191406 238.667969 124.316406 238.539062 124.472656 238.539062 C 124.628906 238.539062 124.753906 238.667969 124.753906 238.824219 Z M 126.515625 238.113281 L 126.515625 239.53125 C 126.515625 239.6875 126.390625 239.8125 126.234375 239.8125 C 126.078125 239.8125 125.953125 239.6875 125.953125 239.53125 L 125.953125 238.113281 C 125.953125 237.957031 126.078125 237.832031 126.234375 237.832031 C 126.390625 237.832031 126.515625 237.957031 126.515625 238.113281 Z M 133.859375 230.972656 C 133.902344 231.121094 133.816406 231.28125 133.667969 231.324219 L 121.722656 234.832031 L 120.722656 235.128906 L 117.207031 236.160156 C 117.179688 236.167969 117.15625 236.171875 117.128906 236.171875 C 117.007812 236.171875 116.894531 236.089844 116.859375 235.96875 C 116.816406 235.820312 116.898438 235.664062 117.050781 235.617188 L 119.722656 234.832031 L 120.222656 234.6875 L 120.722656 234.539062 L 133.507812 230.78125 C 133.65625 230.738281 133.8125 230.824219 133.859375 230.972656 Z M 307.152344 133.445312 L 296.535156 136.558594 C 296.414062 136.59375 296.332031 136.703125 296.332031 136.828125 L 296.332031 193.472656 C 296.332031 193.558594 296.371094 193.644531 296.445312 193.699219 C 296.492188 193.734375 296.550781 193.753906 296.613281 193.753906 C 296.640625 193.753906 296.667969 193.75 296.691406 193.742188 L 307.3125 190.621094 C 307.429688 190.585938 307.515625 190.472656 307.515625 190.347656 L 307.515625 133.71875 C 307.515625 133.628906 307.472656 133.542969 307.402344 133.492188 C 307.328125 133.4375 307.238281 133.421875 307.152344 133.445312 Z M 306.949219 186.703125 L 296.894531 189.648438 L 296.894531 168.570312 L 306.949219 165.625 Z M 296.894531 139.570312 L 306.949219 136.625 L 306.949219 165.035156 L 296.894531 167.980469 Z M 296.894531 137.039062 L 306.949219 134.09375 L 306.949219 136.035156 L 296.894531 138.980469 Z M 306.949219 190.136719 L 296.894531 193.09375 L 296.894531 190.238281 L 306.949219 187.292969 Z M 291.019531 138.207031 L 280.398438 141.316406 C 280.28125 141.351562 280.199219 141.460938 280.199219 141.585938 L 280.199219 143.953125 C 280.136719 144.023438 280.105469 144.117188 280.132812 144.214844 C 280.148438 144.257812 280.167969 144.289062 280.199219 144.320312 L 280.199219 172.953125 C 280.136719 173.023438 280.105469 173.117188 280.132812 173.214844 C 280.148438 173.257812 280.167969 173.289062 280.199219 173.320312 L 280.199219 194.621094 C 280.136719 194.691406 280.105469 194.785156 280.132812 194.882812 C 280.148438 194.921875 280.167969 194.957031 280.199219 194.988281 L 280.199219 198.230469 C 280.199219 198.320312 280.238281 198.402344 280.308594 198.457031 C 280.359375 198.492188 280.417969 198.511719 280.480469 198.511719 C 280.503906 198.511719 280.53125 198.507812 280.558594 198.5 L 291.179688 195.378906 C 291.296875 195.34375 291.378906 195.234375 291.378906 195.109375 L 291.378906 138.476562 C 291.378906 138.386719 291.339844 138.304688 291.265625 138.25 C 291.195312 138.199219 291.105469 138.179688 291.019531 138.207031 Z M 290.816406 191.457031 L 280.761719 194.40625 L 280.761719 173.324219 L 290.816406 170.378906 Z M 280.761719 144.324219 L 290.816406 141.378906 L 290.816406 169.792969 L 280.761719 172.738281 Z M 280.761719 141.796875 L 290.816406 138.851562 L 290.816406 140.789062 L 280.761719 143.738281 Z M 290.816406 194.898438 L 280.761719 197.855469 L 280.761719 194.992188 L 290.816406 192.046875 Z M 307.152344 196.417969 L 296.535156 199.527344 C 296.414062 199.5625 296.332031 199.671875 296.332031 199.796875 L 296.332031 228.125 C 296.332031 228.214844 296.371094 228.300781 296.445312 228.351562 C 296.492188 228.390625 296.550781 228.410156 296.613281 228.410156 C 296.640625 228.410156 296.667969 228.40625 296.691406 228.398438 L 307.3125 225.273438 C 307.429688 225.238281 307.515625 225.128906 307.515625 225.003906 L 307.515625 196.6875 C 307.515625 196.597656 307.472656 196.515625 307.402344 196.460938 C 307.328125 196.410156 307.238281 196.394531 307.152344 196.417969 Z M 306.949219 223.992188 L 306.949219 224.792969 L 296.894531 227.75 L 296.894531 225.050781 L 302.730469 223.339844 L 303.230469 223.195312 L 303.730469 223.046875 L 306.949219 222.105469 Z M 296.894531 221.625 L 296.894531 203.261719 L 306.949219 200.316406 L 306.949219 221.515625 L 302.730469 222.753906 L 302.230469 222.898438 L 301.726562 223.046875 L 296.894531 224.460938 Z M 296.894531 200.011719 L 306.949219 197.0625 L 306.949219 199.730469 L 296.894531 202.675781 Z M 291.019531 201.175781 L 280.398438 204.289062 C 280.28125 204.324219 280.199219 204.433594 280.199219 204.558594 L 280.199219 207.644531 C 280.136719 207.714844 280.105469 207.8125 280.132812 207.90625 C 280.148438 207.949219 280.167969 207.984375 280.199219 208.015625 L 280.199219 229.433594 C 280.136719 229.503906 280.105469 229.597656 280.132812 229.695312 C 280.148438 229.738281 280.167969 229.773438 280.199219 229.800781 L 280.199219 232.886719 C 280.199219 232.976562 280.238281 233.058594 280.308594 233.113281 C 280.359375 233.148438 280.417969 233.167969 280.480469 233.167969 C 280.503906 233.167969 280.53125 233.164062 280.558594 233.15625 L 291.179688 230.035156 C 291.296875 230 291.378906 229.890625 291.378906 229.761719 L 291.378906 201.449219 C 291.378906 201.359375 291.339844 201.273438 291.265625 201.222656 C 291.195312 201.167969 291.105469 201.152344 291.019531 201.175781 Z M 290.816406 219.25 L 290.816406 226.273438 L 280.761719 229.21875 L 280.761719 208.015625 L 290.816406 205.070312 Z M 290.816406 229.550781 L 280.761719 232.507812 L 280.761719 229.804688 L 290.816406 226.859375 Z M 280.761719 204.769531 L 290.816406 201.824219 L 290.816406 204.484375 L 280.761719 207.429688 Z M 108.941406 159.390625 C 108.902344 159.515625 108.957031 159.640625 109.0625 159.703125 L 109.0625 161.644531 C 109.0625 161.773438 109.144531 161.882812 109.265625 161.917969 L 120.230469 165.140625 C 120.253906 165.148438 120.28125 165.152344 120.308594 165.152344 C 120.367188 165.152344 120.429688 165.132812 120.476562 165.097656 C 120.546875 165.042969 120.589844 164.960938 120.589844 164.871094 L 120.589844 135.617188 C 120.589844 135.492188 120.507812 135.382812 120.386719 135.347656 L 109.421875 132.136719 C 109.335938 132.113281 109.246094 132.128906 109.175781 132.179688 C 109.101562 132.234375 109.0625 132.316406 109.0625 132.40625 L 109.0625 136.917969 C 109.003906 136.953125 108.960938 137.007812 108.941406 137.074219 C 108.902344 137.199219 108.957031 137.320312 109.0625 137.386719 L 109.0625 159.234375 C 109.003906 159.269531 108.960938 159.324219 108.941406 159.390625 Z M 109.625 159.886719 L 120.027344 162.933594 L 120.027344 164.492188 L 109.625 161.433594 Z M 109.625 132.78125 L 120.027344 135.832031 L 120.027344 140.027344 L 109.625 136.980469 Z M 120.027344 140.617188 L 120.027344 162.34375 L 109.625 159.296875 L 109.625 137.570312 Z M 125.648438 164.320312 C 125.621094 164.421875 125.652344 164.523438 125.722656 164.59375 L 125.722656 166.5625 C 125.722656 166.6875 125.804688 166.796875 125.921875 166.832031 L 136.890625 170.054688 C 136.914062 170.0625 136.941406 170.066406 136.96875 170.066406 C 137.027344 170.066406 137.085938 170.046875 137.136719 170.011719 C 137.207031 169.957031 137.25 169.875 137.25 169.785156 L 137.25 140.535156 C 137.25 140.410156 137.167969 140.296875 137.046875 140.261719 L 126.082031 137.050781 C 125.996094 137.027344 125.90625 137.042969 125.832031 137.097656 C 125.761719 137.148438 125.722656 137.234375 125.722656 137.320312 L 125.722656 141.886719 C 125.691406 141.921875 125.664062 141.957031 125.648438 142.003906 C 125.621094 142.105469 125.652344 142.207031 125.722656 142.277344 L 125.722656 164.207031 C 125.691406 164.238281 125.664062 164.273438 125.648438 164.320312 Z M 126.285156 164.800781 L 136.6875 167.847656 L 136.6875 169.410156 L 126.285156 166.351562 Z M 126.285156 137.699219 L 136.6875 140.746094 L 136.6875 144.941406 L 126.285156 141.894531 Z M 136.6875 145.53125 L 136.6875 167.261719 L 126.285156 164.214844 L 126.285156 142.484375 Z M 142.359375 169.25 C 142.339844 169.324219 142.347656 169.398438 142.382812 169.460938 L 142.382812 171.476562 C 142.382812 171.601562 142.464844 171.710938 142.582031 171.746094 L 153.546875 174.96875 C 153.574219 174.976562 153.601562 174.980469 153.628906 174.980469 C 153.6875 174.980469 153.746094 174.960938 153.796875 174.925781 C 153.867188 174.871094 153.910156 174.789062 153.910156 174.699219 L 153.910156 145.449219 C 153.910156 145.324219 153.828125 145.210938 153.707031 145.175781 L 142.742188 141.964844 C 142.65625 141.941406 142.566406 141.957031 142.492188 142.011719 C 142.421875 142.0625 142.382812 142.148438 142.382812 142.234375 L 142.382812 146.890625 C 142.375 146.90625 142.363281 146.917969 142.359375 146.933594 C 142.339844 147.007812 142.347656 147.082031 142.382812 147.144531 L 142.382812 169.210938 C 142.375 169.222656 142.363281 169.234375 142.359375 169.25 Z M 142.945312 169.714844 L 153.347656 172.761719 L 153.347656 174.324219 L 142.945312 171.265625 Z M 153.347656 149.859375 L 142.945312 146.8125 L 142.945312 142.613281 L 153.347656 145.660156 Z M 153.347656 150.445312 L 153.347656 172.175781 L 142.945312 169.128906 L 142.945312 147.398438 Z M 80.601562 177.109375 L 71.296875 174.382812 C 71.210938 174.359375 71.117188 174.375 71.046875 174.429688 C 70.976562 174.480469 70.933594 174.566406 70.933594 174.652344 L 70.933594 199.464844 C 70.933594 199.589844 71.015625 199.699219 71.136719 199.734375 L 80.441406 202.46875 C 80.46875 202.476562 80.496094 202.480469 80.519531 202.480469 C 80.582031 202.480469 80.640625 202.460938 80.691406 202.425781 C 80.761719 202.371094 80.800781 202.289062 80.800781 202.199219 L 80.800781 177.378906 C 80.800781 177.253906 80.71875 177.144531 80.601562 177.109375 Z M 80.238281 201.824219 L 71.5 199.253906 L 71.5 175.03125 L 80.238281 177.589844 Z M 94.734375 181.277344 L 85.433594 178.554688 C 85.347656 178.527344 85.253906 178.546875 85.183594 178.597656 C 85.113281 178.652344 85.070312 178.734375 85.070312 178.824219 L 85.070312 203.632812 C 85.070312 203.757812 85.152344 203.871094 85.273438 203.90625 L 94.578125 206.640625 C 94.605469 206.648438 94.628906 206.652344 94.65625 206.652344 C 94.71875 206.652344 94.777344 206.632812 94.824219 206.597656 C 94.898438 206.542969 94.9375 206.460938 94.9375 206.371094 L 94.9375 181.550781 C 94.9375 181.425781 94.855469 181.3125 94.734375 181.277344 Z M 94.375 205.992188 L 85.632812 203.421875 L 85.632812 179.199219 L 94.375 181.761719 Z M 108.871094 185.449219 L 101.714844 183.351562 L 101.152344 183.1875 L 99.566406 182.722656 C 99.484375 182.699219 99.390625 182.714844 99.320312 182.769531 C 99.25 182.820312 99.207031 182.90625 99.207031 182.996094 L 99.207031 207.804688 C 99.207031 207.929688 99.289062 208.039062 99.410156 208.074219 L 101.152344 208.585938 L 101.433594 208.671875 L 101.714844 208.753906 L 108.714844 210.8125 C 108.738281 210.820312 108.765625 210.824219 108.792969 210.824219 C 108.851562 210.824219 108.914062 210.804688 108.960938 210.765625 C 109.03125 210.714844 109.074219 210.628906 109.074219 210.539062 L 109.074219 185.71875 C 109.074219 185.59375 108.992188 185.484375 108.871094 185.449219 Z M 108.511719 210.164062 L 101.714844 208.164062 L 101.152344 208 L 99.769531 207.59375 L 99.769531 183.371094 L 101.152344 183.777344 L 101.714844 183.941406 L 108.511719 185.929688 Z M 80.601562 208.660156 L 71.296875 205.9375 C 71.210938 205.910156 71.117188 205.929688 71.046875 205.980469 C 70.976562 206.035156 70.933594 206.117188 70.933594 206.207031 L 70.933594 231.015625 C 70.933594 231.140625 71.015625 231.253906 71.136719 231.289062 L 80.441406 234.023438 C 80.46875 234.03125 80.496094 234.035156 80.519531 234.035156 C 80.582031 234.035156 80.640625 234.015625 80.691406 233.980469 C 80.761719 233.925781 80.800781 233.84375 80.800781 233.753906 L 80.800781 208.933594 C 80.800781 208.808594 80.71875 208.695312 80.601562 208.660156 Z M 80.238281 222.425781 L 80.238281 233.375 L 71.5 230.804688 L 71.5 206.582031 L 80.238281 209.144531 Z M 94.734375 212.832031 L 85.433594 210.105469 C 85.347656 210.082031 85.253906 210.097656 85.183594 210.152344 C 85.113281 210.203125 85.070312 210.289062 85.070312 210.378906 L 85.070312 235.1875 C 85.070312 235.3125 85.152344 235.421875 85.273438 235.457031 L 94.578125 238.195312 C 94.605469 238.203125 94.628906 238.207031 94.65625 238.207031 C 94.71875 238.207031 94.777344 238.1875 94.824219 238.148438 C 94.898438 238.097656 94.9375 238.011719 94.9375 237.921875 L 94.9375 213.101562 C 94.9375 212.976562 94.855469 212.867188 94.734375 212.832031 Z M 94.375 218.265625 L 94.375 237.546875 L 85.632812 234.976562 L 85.632812 210.753906 L 94.375 213.3125 Z M 108.871094 217.003906 L 104.757812 215.796875 L 104.257812 215.648438 L 103.757812 215.503906 L 101.714844 214.90625 L 101.152344 214.742188 L 99.566406 214.277344 C 99.484375 214.25 99.390625 214.269531 99.320312 214.320312 C 99.25 214.375 99.207031 214.457031 99.207031 214.546875 L 99.207031 239.359375 C 99.207031 239.484375 99.289062 239.59375 99.410156 239.628906 L 108.714844 242.363281 C 108.738281 242.371094 108.765625 242.375 108.792969 242.375 C 108.851562 242.375 108.914062 242.355469 108.960938 242.320312 C 109.03125 242.265625 109.074219 242.183594 109.074219 242.09375 L 109.074219 217.273438 C 109.074219 217.148438 108.992188 217.039062 108.871094 217.003906 Z M 108.511719 230.949219 L 108.511719 241.714844 L 99.769531 239.148438 L 99.769531 214.921875 L 101.152344 215.328125 L 101.714844 215.492188 L 102.753906 215.796875 L 103.253906 215.945312 L 103.757812 216.089844 L 108.511719 217.484375 Z M 108.511719 230.949219 "/></g></g></svg>