<svg xmlns="http://www.w3.org/2000/svg" xmlns:xlink="http://www.w3.org/1999/xlink" width="500" zoomAndPan="magnify" viewBox="0 0 375 374.999991" height="500" preserveAspectRatio="xMidYMid meet" version="1.2"><defs><clipPath id="c112e5fad8"><path d="M 46.367188 274 L 328.304688 274 L 328.304688 323.207031 L 46.367188 323.207031 Z M 46.367188 274 "/></clipPath><clipPath id="722425397f"><path d="M 46.242188 266 L 328.992188 266 L 328.992188 316 L 46.242188 316 Z M 46.242188 266 "/></clipPath><clipPath id="6dafd7de76"><path d="M 170 51.71875 L 176 51.71875 L 176 74 L 170 74 Z M 170 51.71875 "/></clipPath><clipPath id="324bdd076c"><path d="M 252 66 L 328.992188 66 L 328.992188 109 L 252 109 Z M 252 66 "/></clipPath></defs><g id="48fd7e1ff5"><g clip-rule="nonzero" clip-path="url(#c112e5fad8)"><path style=" stroke:none;fill-rule:nonzero;fill:#68696b;fill-opacity:1;" d="M 328.300781 318.679688 C 328.300781 321.179688 326.273438 323.207031 323.773438 323.207031 L 50.894531 323.207031 C 48.394531 323.207031 46.367188 321.179688 46.367188 318.679688 L 46.367188 278.53125 C 46.367188 276.03125 48.394531 274.007812 50.894531 274.007812 L 323.773438 274.007812 C 326.273438 274.007812 328.300781 276.03125 328.300781 278.53125 L 328.300781 318.679688 "/></g><g clip-rule="nonzero" clip-path="url(#722425397f)"><path style=" stroke:none;fill-rule:nonzero;fill:#c6c5c3;fill-opacity:1;" d="M 328.300781 311.140625 C 328.300781 313.640625 326.273438 315.664062 323.773438 315.664062 L 50.894531 315.664062 C 48.394531 315.664062 46.367188 313.640625 46.367188 311.140625 L 46.367188 270.992188 C 46.367188 268.492188 48.394531 266.464844 50.894531 266.464844 L 323.773438 266.464844 C 326.273438 266.464844 328.300781 268.492188 328.300781 270.992188 L 328.300781 311.140625 "/></g><g clip-rule="nonzero" clip-path="url(#6dafd7de76)"><path style=" stroke:none;fill-rule:nonzero;fill:#1d1b19;fill-opacity:1;" d="M 175.789062 73.394531 L 170.21875 73.394531 L 170.21875 51.714844 L 175.789062 55.488281 L 175.789062 73.394531 "/></g><path style=" stroke:none;fill-rule:nonzero;fill:#4f5050;fill-opacity:1;" d="M 182.339844 81 C 182.339844 83.496094 180.3125 85.523438 177.8125 85.523438 L 149.050781 85.523438 C 146.550781 85.523438 144.523438 83.496094 144.523438 81 L 144.523438 70.945312 C 144.523438 68.445312 146.550781 66.417969 149.050781 66.417969 L 177.8125 66.417969 C 180.3125 66.417969 182.339844 68.445312 182.339844 70.945312 L 182.339844 81 "/><path style=" stroke:none;fill-rule:nonzero;fill:#f03e3f;fill-opacity:1;" d="M 187.960938 282.398438 C 187.960938 284.898438 185.933594 286.921875 183.429688 286.921875 L 92.484375 286.921875 C 89.984375 286.921875 87.957031 284.898438 87.957031 282.398438 L 87.957031 84.4375 C 87.957031 81.941406 89.984375 79.914062 92.484375 79.914062 L 183.429688 79.914062 C 185.933594 79.914062 187.960938 81.941406 187.960938 84.4375 L 187.960938 282.398438 "/><path style=" stroke:none;fill-rule:nonzero;fill:#abe2d9;fill-opacity:1;" d="M 151.179688 240.734375 L 139.078125 240.734375 L 139.078125 286.921875 L 151.179688 286.921875 C 153.269531 286.921875 154.964844 285.230469 154.964844 283.140625 L 154.964844 244.515625 C 154.964844 242.425781 153.269531 240.734375 151.179688 240.734375 "/><path style=" stroke:none;fill-rule:nonzero;fill:#abe2d9;fill-opacity:1;" d="M 124.015625 240.734375 C 121.925781 240.734375 120.226562 242.425781 120.226562 244.515625 L 120.226562 283.140625 C 120.226562 285.230469 121.925781 286.921875 124.015625 286.921875 L 136.835938 286.921875 L 136.835938 240.734375 L 124.015625 240.734375 "/><path style=" stroke:none;fill-rule:nonzero;fill:#d0efea;fill-opacity:1;" d="M 120.226562 272.449219 L 120.226562 259.113281 L 127.804688 251.023438 C 128.457031 250.324219 129.339844 249.972656 130.226562 249.972656 C 131.039062 249.972656 131.851562 250.269531 132.488281 250.867188 L 134.308594 252.5625 C 135.644531 253.8125 135.714844 255.910156 134.464844 257.242188 L 120.226562 272.449219 "/><path style=" stroke:none;fill-rule:nonzero;fill:#d0efea;fill-opacity:1;" d="M 140.03125 278.910156 L 139.085938 278.910156 L 139.078125 278.90625 L 139.078125 270.195312 L 154.21875 254.023438 L 154.964844 254.023438 L 154.964844 262.953125 L 140.03125 278.910156 "/><path style=" stroke:none;fill-rule:nonzero;fill:#d0efea;fill-opacity:1;" d="M 136.835938 278.304688 C 135.640625 277.621094 134.789062 276.40625 134.597656 274.980469 L 136.835938 272.589844 L 136.835938 278.304688 "/><path style=" stroke:none;fill-rule:nonzero;fill:#4cbdc5;fill-opacity:1;" d="M 146.449219 90.722656 L 130.597656 90.722656 C 128.097656 90.722656 126.066406 92.75 126.066406 95.25 L 126.066406 111.082031 C 126.066406 113.582031 128.097656 115.609375 130.597656 115.609375 L 146.449219 115.609375 C 148.953125 115.609375 150.980469 113.582031 150.980469 111.082031 L 150.980469 95.25 C 150.980469 92.75 148.953125 90.722656 146.449219 90.722656 "/><path style=" stroke:none;fill-rule:nonzero;fill:#4cbdc5;fill-opacity:1;" d="M 182.640625 94.652344 C 182.347656 92.4375 180.453125 90.722656 178.15625 90.722656 L 162.300781 90.722656 C 159.800781 90.722656 157.773438 92.75 157.773438 95.25 L 157.773438 111.082031 C 157.773438 111.210938 157.78125 111.339844 157.792969 111.464844 C 157.984375 113.785156 159.929688 115.609375 162.300781 115.609375 L 178.15625 115.609375 C 180.65625 115.609375 182.683594 113.582031 182.683594 111.082031 L 182.683594 95.25 C 182.683594 95.046875 182.667969 94.847656 182.640625 94.652344 "/><path style=" stroke:none;fill-rule:nonzero;fill:#4cbdc5;fill-opacity:1;" d="M 178.15625 120.886719 L 162.300781 120.886719 C 159.800781 120.886719 157.773438 122.914062 157.773438 125.410156 L 157.773438 141.246094 C 157.773438 141.8125 157.882812 142.351562 158.074219 142.851562 C 158.722656 144.558594 160.367188 145.769531 162.300781 145.769531 L 178.15625 145.769531 C 180.65625 145.769531 182.683594 143.746094 182.683594 141.246094 L 182.683594 125.410156 C 182.683594 122.914062 180.65625 120.886719 178.15625 120.886719 "/><path style=" stroke:none;fill-rule:nonzero;fill:#4cbdc5;fill-opacity:1;" d="M 115.105469 90.789062 C 114.863281 90.75 114.617188 90.722656 114.367188 90.722656 L 98.515625 90.722656 C 96.015625 90.722656 93.988281 92.75 93.988281 95.25 L 93.988281 111.082031 C 93.988281 113.582031 96.015625 115.609375 98.515625 115.609375 L 114.367188 115.609375 C 116.871094 115.609375 118.898438 113.582031 118.898438 111.082031 L 118.898438 95.25 C 118.898438 93 117.253906 91.140625 115.105469 90.789062 "/><path style=" stroke:none;fill-rule:nonzero;fill:#4cbdc5;fill-opacity:1;" d="M 114.964844 120.929688 C 114.769531 120.90625 114.570312 120.886719 114.367188 120.886719 L 98.515625 120.886719 C 96.015625 120.886719 93.988281 122.914062 93.988281 125.410156 L 93.988281 141.246094 C 93.988281 141.859375 94.109375 142.441406 94.328125 142.976562 C 95.011719 144.617188 96.628906 145.769531 98.515625 145.769531 L 114.367188 145.769531 C 116.871094 145.769531 118.898438 143.746094 118.898438 141.246094 L 118.898438 125.410156 C 118.898438 123.117188 117.183594 121.226562 114.964844 120.929688 "/><path style=" stroke:none;fill-rule:nonzero;fill:#4cbdc5;fill-opacity:1;" d="M 148.507812 121.382812 C 147.890625 121.070312 147.191406 120.886719 146.449219 120.886719 L 130.597656 120.886719 C 128.097656 120.886719 126.066406 122.914062 126.066406 125.410156 L 126.066406 141.246094 C 126.066406 143.746094 128.097656 145.769531 130.597656 145.769531 L 146.449219 145.769531 C 148.953125 145.769531 150.980469 143.746094 150.980469 141.246094 L 150.980469 125.410156 C 150.980469 123.652344 149.972656 122.132812 148.507812 121.382812 "/><path style=" stroke:none;fill-rule:nonzero;fill:#abe2d9;fill-opacity:1;" d="M 148.507812 121.382812 L 130.644531 140.464844 C 129.730469 141.441406 129.78125 142.96875 130.757812 143.882812 L 132.082031 145.121094 C 133.058594 146.03125 134.589844 145.980469 135.503906 145.003906 L 150.980469 128.472656 L 150.980469 125.410156 C 150.980469 123.652344 149.972656 122.132812 148.507812 121.382812 "/><path style=" stroke:none;fill-rule:nonzero;fill:#abe2d9;fill-opacity:1;" d="M 179.664062 125.402344 L 178.460938 124.28125 C 177.578125 123.453125 176.1875 123.5 175.363281 124.382812 L 158.074219 142.851562 C 158.722656 144.558594 160.367188 145.769531 162.300781 145.769531 L 163.597656 145.769531 L 179.769531 128.5 C 180.59375 127.613281 180.546875 126.226562 179.664062 125.402344 "/><path style=" stroke:none;fill-rule:nonzero;fill:#abe2d9;fill-opacity:1;" d="M 178.15625 90.722656 L 177.207031 90.722656 L 157.792969 111.464844 C 157.984375 113.785156 159.929688 115.609375 162.300781 115.609375 L 163.023438 115.609375 L 182.640625 94.652344 C 182.347656 92.4375 180.453125 90.722656 178.15625 90.722656 "/><path style=" stroke:none;fill-rule:nonzero;fill:#abe2d9;fill-opacity:1;" d="M 100.613281 111.117188 L 102.429688 112.816406 C 103.769531 114.066406 105.867188 113.996094 107.117188 112.65625 L 118.898438 100.074219 L 118.898438 95.25 C 118.898438 93 117.253906 91.140625 115.105469 90.789062 L 100.457031 106.4375 C 99.207031 107.773438 99.277344 109.867188 100.613281 111.117188 "/><path style=" stroke:none;fill-rule:nonzero;fill:#abe2d9;fill-opacity:1;" d="M 130.597656 115.609375 L 132.433594 115.609375 L 143.628906 103.652344 C 144.878906 102.316406 144.808594 100.21875 143.472656 98.96875 L 141.65625 97.273438 C 140.316406 96.023438 138.21875 96.09375 136.964844 97.429688 L 126.066406 109.070312 L 126.066406 111.082031 C 126.066406 113.582031 128.097656 115.609375 130.597656 115.609375 "/><path style=" stroke:none;fill-rule:nonzero;fill:#abe2d9;fill-opacity:1;" d="M 118.898438 125.410156 C 118.898438 123.117188 117.183594 121.226562 114.964844 120.929688 L 94.328125 142.976562 C 95.011719 144.617188 96.628906 145.769531 98.515625 145.769531 L 104.199219 145.769531 L 118.898438 130.070312 L 118.898438 125.410156 "/><path style=" stroke:none;fill-rule:nonzero;fill:#abe2d9;fill-opacity:1;" d="M 102.589844 125.410156 L 101.609375 124.496094 C 100.890625 123.820312 99.757812 123.859375 99.082031 124.582031 L 93.988281 130.023438 L 93.988281 137.21875 L 102.675781 127.9375 C 103.351562 127.214844 103.3125 126.085938 102.589844 125.410156 "/><path style=" stroke:none;fill-rule:nonzero;fill:#4cbdc5;fill-opacity:1;" d="M 130.222656 206.847656 L 146.074219 206.847656 C 148.574219 206.847656 150.601562 204.824219 150.601562 202.324219 L 150.601562 186.492188 C 150.601562 183.992188 148.574219 181.964844 146.074219 181.964844 L 130.222656 181.964844 C 127.71875 181.964844 125.691406 183.992188 125.691406 186.492188 L 125.691406 202.324219 C 125.691406 204.824219 127.71875 206.847656 130.222656 206.847656 "/><path style=" stroke:none;fill-rule:nonzero;fill:#4cbdc5;fill-opacity:1;" d="M 94.03125 202.921875 C 94.324219 205.136719 96.214844 206.847656 98.515625 206.847656 L 114.367188 206.847656 C 116.871094 206.847656 118.898438 204.824219 118.898438 202.324219 L 118.898438 186.492188 C 118.898438 186.363281 118.886719 186.234375 118.878906 186.109375 C 118.683594 183.789062 116.742188 181.964844 114.367188 181.964844 L 98.515625 181.964844 C 96.015625 181.964844 93.988281 183.992188 93.988281 186.492188 L 93.988281 202.324219 C 93.988281 202.527344 94.003906 202.726562 94.03125 202.921875 "/><path style=" stroke:none;fill-rule:nonzero;fill:#4cbdc5;fill-opacity:1;" d="M 98.515625 176.6875 L 114.367188 176.6875 C 116.871094 176.6875 118.898438 174.660156 118.898438 172.164062 L 118.898438 156.328125 C 118.898438 155.761719 118.789062 155.222656 118.597656 154.722656 C 117.949219 153.015625 116.300781 151.804688 114.367188 151.804688 L 98.515625 151.804688 C 96.015625 151.804688 93.988281 153.828125 93.988281 156.328125 L 93.988281 172.164062 C 93.988281 174.660156 96.015625 176.6875 98.515625 176.6875 "/><path style=" stroke:none;fill-rule:nonzero;fill:#4cbdc5;fill-opacity:1;" d="M 161.566406 206.785156 C 161.808594 206.824219 162.050781 206.847656 162.300781 206.847656 L 178.15625 206.847656 C 180.65625 206.847656 182.683594 204.824219 182.683594 202.324219 L 182.683594 186.492188 C 182.683594 183.992188 180.65625 181.964844 178.15625 181.964844 L 162.300781 181.964844 C 159.800781 181.964844 157.773438 183.992188 157.773438 186.492188 L 157.773438 202.324219 C 157.773438 204.574219 159.417969 206.433594 161.566406 206.785156 "/><path style=" stroke:none;fill-rule:nonzero;fill:#4cbdc5;fill-opacity:1;" d="M 161.703125 176.644531 C 161.902344 176.667969 162.097656 176.6875 162.300781 176.6875 L 178.15625 176.6875 C 180.65625 176.6875 182.683594 174.660156 182.683594 172.164062 L 182.683594 156.328125 C 182.683594 155.714844 182.5625 155.132812 182.339844 154.597656 C 181.660156 152.957031 180.042969 151.804688 178.15625 151.804688 L 162.300781 151.804688 C 159.800781 151.804688 157.773438 153.828125 157.773438 156.328125 L 157.773438 172.164062 C 157.773438 174.457031 159.484375 176.347656 161.703125 176.644531 "/><path style=" stroke:none;fill-rule:nonzero;fill:#4cbdc5;fill-opacity:1;" d="M 128.164062 176.191406 C 128.78125 176.503906 129.480469 176.6875 130.222656 176.6875 L 146.074219 176.6875 C 148.574219 176.6875 150.601562 174.660156 150.601562 172.164062 L 150.601562 156.328125 C 150.601562 153.828125 148.574219 151.804688 146.074219 151.804688 L 130.222656 151.804688 C 127.71875 151.804688 125.691406 153.828125 125.691406 156.328125 L 125.691406 172.164062 C 125.691406 173.921875 126.695312 175.441406 128.164062 176.191406 "/><path style=" stroke:none;fill-rule:nonzero;fill:#abe2d9;fill-opacity:1;" d="M 128.164062 176.191406 L 146.027344 157.109375 C 146.941406 156.132812 146.886719 154.605469 145.910156 153.691406 L 144.585938 152.453125 C 143.609375 151.542969 142.078125 151.59375 141.167969 152.570312 L 125.691406 169.101562 L 125.691406 172.164062 C 125.691406 173.921875 126.695312 175.441406 128.164062 176.191406 "/><path style=" stroke:none;fill-rule:nonzero;fill:#abe2d9;fill-opacity:1;" d="M 97.007812 172.171875 L 98.207031 173.292969 C 99.09375 174.121094 100.480469 174.074219 101.308594 173.191406 L 118.597656 154.722656 C 117.949219 153.015625 116.300781 151.804688 114.367188 151.804688 L 113.074219 151.804688 L 96.902344 169.074219 C 96.078125 169.960938 96.121094 171.347656 97.007812 172.171875 "/><path style=" stroke:none;fill-rule:nonzero;fill:#abe2d9;fill-opacity:1;" d="M 98.515625 206.847656 L 99.464844 206.847656 L 118.878906 186.109375 C 118.683594 183.789062 116.742188 181.964844 114.367188 181.964844 L 113.648438 181.964844 L 94.03125 202.921875 C 94.324219 205.136719 96.214844 206.847656 98.515625 206.847656 "/><path style=" stroke:none;fill-rule:nonzero;fill:#abe2d9;fill-opacity:1;" d="M 176.058594 186.457031 L 174.242188 184.757812 C 172.902344 183.507812 170.804688 183.578125 169.554688 184.914062 L 157.773438 197.5 L 157.773438 202.324219 C 157.773438 204.574219 159.417969 206.433594 161.566406 206.785156 L 176.214844 191.136719 C 177.464844 189.800781 177.394531 187.707031 176.058594 186.457031 "/><path style=" stroke:none;fill-rule:nonzero;fill:#abe2d9;fill-opacity:1;" d="M 146.074219 181.964844 L 144.234375 181.964844 L 133.042969 193.921875 C 131.792969 195.257812 131.863281 197.355469 133.199219 198.605469 L 135.015625 200.300781 C 136.355469 201.550781 138.453125 201.480469 139.703125 200.144531 L 150.601562 188.503906 L 150.601562 186.492188 C 150.601562 183.992188 148.574219 181.964844 146.074219 181.964844 "/><path style=" stroke:none;fill-rule:nonzero;fill:#abe2d9;fill-opacity:1;" d="M 157.773438 172.164062 C 157.773438 174.457031 159.484375 176.347656 161.703125 176.644531 L 182.339844 154.597656 C 181.660156 152.957031 180.042969 151.804688 178.15625 151.804688 L 172.46875 151.804688 L 157.773438 167.503906 L 157.773438 172.164062 "/><path style=" stroke:none;fill-rule:nonzero;fill:#abe2d9;fill-opacity:1;" d="M 174.078125 172.164062 L 175.058594 173.078125 C 175.78125 173.753906 176.914062 173.714844 177.589844 172.992188 L 182.683594 167.550781 L 182.683594 160.355469 L 173.996094 169.636719 C 173.320312 170.359375 173.359375 171.488281 174.078125 172.164062 "/><path style=" stroke:none;fill-rule:nonzero;fill:#4cbdc5;fill-opacity:1;" d="M 130.222656 236.257812 L 146.074219 236.257812 C 148.574219 236.257812 150.601562 234.230469 150.601562 231.734375 L 150.601562 215.898438 C 150.601562 213.398438 148.574219 211.375 146.074219 211.375 L 130.222656 211.375 C 127.71875 211.375 125.691406 213.398438 125.691406 215.898438 L 125.691406 231.734375 C 125.691406 234.230469 127.71875 236.257812 130.222656 236.257812 "/><path style=" stroke:none;fill-rule:nonzero;fill:#4cbdc5;fill-opacity:1;" d="M 94.03125 232.332031 C 94.324219 234.546875 96.214844 236.257812 98.515625 236.257812 L 114.367188 236.257812 C 116.871094 236.257812 118.898438 234.230469 118.898438 231.734375 L 118.898438 215.898438 C 118.898438 215.769531 118.886719 215.644531 118.878906 215.519531 C 118.683594 213.199219 116.742188 211.375 114.367188 211.375 L 98.515625 211.375 C 96.015625 211.375 93.988281 213.398438 93.988281 215.898438 L 93.988281 231.734375 C 93.988281 231.9375 94.003906 232.132812 94.03125 232.332031 "/><path style=" stroke:none;fill-rule:nonzero;fill:#4cbdc5;fill-opacity:1;" d="M 161.566406 236.195312 C 161.808594 236.230469 162.050781 236.257812 162.300781 236.257812 L 178.15625 236.257812 C 180.65625 236.257812 182.683594 234.230469 182.683594 231.734375 L 182.683594 215.898438 C 182.683594 213.398438 180.65625 211.375 178.15625 211.375 L 162.300781 211.375 C 159.800781 211.375 157.773438 213.398438 157.773438 215.898438 L 157.773438 231.734375 C 157.773438 233.980469 159.417969 235.839844 161.566406 236.195312 "/><path style=" stroke:none;fill-rule:nonzero;fill:#abe2d9;fill-opacity:1;" d="M 98.515625 236.257812 L 99.464844 236.257812 L 118.878906 215.519531 C 118.683594 213.199219 116.742188 211.375 114.367188 211.375 L 113.648438 211.375 L 94.03125 232.332031 C 94.324219 234.546875 96.214844 236.257812 98.515625 236.257812 "/><path style=" stroke:none;fill-rule:nonzero;fill:#abe2d9;fill-opacity:1;" d="M 176.058594 215.863281 L 174.242188 214.167969 C 172.902344 212.917969 170.804688 212.988281 169.554688 214.324219 L 157.773438 226.90625 L 157.773438 231.734375 C 157.773438 233.980469 159.417969 235.839844 161.566406 236.195312 L 176.214844 220.546875 C 177.464844 219.210938 177.394531 217.113281 176.058594 215.863281 "/><path style=" stroke:none;fill-rule:nonzero;fill:#abe2d9;fill-opacity:1;" d="M 146.074219 211.375 L 144.234375 211.375 L 133.042969 223.332031 C 131.792969 224.667969 131.863281 226.761719 133.199219 228.011719 L 135.015625 229.710938 C 136.355469 230.960938 138.453125 230.890625 139.703125 229.550781 L 150.601562 217.910156 L 150.601562 215.898438 C 150.601562 213.398438 148.574219 211.375 146.074219 211.375 "/><path style=" stroke:none;fill-rule:nonzero;fill:#2a9551;fill-opacity:1;" d="M 85.851562 251.078125 C 85.851562 263.738281 80.65625 268.917969 74.25 268.917969 C 67.84375 268.917969 62.652344 263.738281 62.652344 251.078125 C 62.652344 238.421875 69.640625 226.96875 74.25 226.96875 C 78.082031 226.96875 85.851562 238.421875 85.851562 251.078125 "/><path style=" stroke:none;fill-rule:nonzero;fill:#311415;fill-opacity:1;" d="M 76.183594 283.679688 C 76.183594 284.421875 75.582031 285.023438 74.839844 285.023438 L 73.660156 285.023438 C 72.917969 285.023438 72.316406 284.421875 72.316406 283.679688 L 72.316406 251.226562 C 72.316406 250.484375 72.917969 249.882812 73.660156 249.882812 L 74.839844 249.882812 C 75.582031 249.882812 76.183594 250.484375 76.183594 251.226562 L 76.183594 283.679688 "/><path style=" stroke:none;fill-rule:nonzero;fill:#1d5b2c;fill-opacity:1;" d="M 313.710938 254.742188 C 313.710938 266.28125 308.976562 271 303.136719 271 C 297.296875 271 292.5625 266.28125 292.5625 254.742188 C 292.5625 243.199219 298.933594 232.761719 303.136719 232.761719 C 306.632812 232.761719 313.710938 243.199219 313.710938 254.742188 "/><path style=" stroke:none;fill-rule:nonzero;fill:#311415;fill-opacity:1;" d="M 304.898438 284.460938 C 304.898438 285.136719 304.351562 285.683594 303.671875 285.683594 L 302.601562 285.683594 C 301.921875 285.683594 301.375 285.136719 301.375 284.460938 L 301.375 254.875 C 301.375 254.199219 301.921875 253.648438 302.601562 253.648438 L 303.671875 253.648438 C 304.351562 253.648438 304.898438 254.199219 304.898438 254.875 L 304.898438 284.460938 "/><path style=" stroke:none;fill-rule:nonzero;fill:#2a9551;fill-opacity:1;" d="M 301.449219 248.515625 C 301.449219 262.699219 295.632812 268.496094 288.457031 268.496094 C 281.28125 268.496094 275.464844 262.699219 275.464844 248.515625 C 275.464844 234.335938 283.292969 221.507812 288.457031 221.507812 C 292.75 221.507812 301.449219 234.335938 301.449219 248.515625 "/><path style=" stroke:none;fill-rule:nonzero;fill:#311415;fill-opacity:1;" d="M 290.621094 285.035156 C 290.621094 285.863281 289.949219 286.539062 289.117188 286.539062 L 287.796875 286.539062 C 286.964844 286.539062 286.289062 285.863281 286.289062 285.035156 L 286.289062 248.683594 C 286.289062 247.851562 286.964844 247.179688 287.796875 247.179688 L 289.117188 247.179688 C 289.949219 247.179688 290.621094 247.851562 290.621094 248.683594 L 290.621094 285.035156 "/><path style=" stroke:none;fill-rule:nonzero;fill:#141c20;fill-opacity:1;" d="M 192.851562 157.660156 L 192.851562 167.015625 L 192.492188 167.015625 C 191.554688 167.015625 190.6875 167.300781 189.964844 167.78125 L 189.964844 157.660156 Z M 196.992188 157.660156 L 196.992188 167.015625 L 194.105469 167.015625 L 194.105469 157.660156 Z M 201.128906 157.660156 L 201.128906 167.015625 L 198.246094 167.015625 L 198.246094 157.660156 Z M 205.269531 157.660156 L 205.269531 167.015625 L 202.382812 167.015625 L 202.382812 157.660156 Z M 209.40625 157.660156 L 209.40625 167.015625 L 206.523438 167.015625 L 206.523438 157.660156 Z M 213.546875 157.660156 L 213.546875 167.015625 L 210.660156 167.015625 L 210.660156 157.660156 Z M 217.683594 157.660156 L 217.683594 167.015625 L 214.800781 167.015625 L 214.800781 157.660156 Z M 221.824219 157.660156 L 221.824219 167.015625 L 218.941406 167.015625 L 218.941406 157.660156 Z M 225.585938 157.660156 L 225.585938 167.015625 L 222.703125 167.015625 L 222.703125 157.660156 Z M 229.347656 157.660156 L 229.347656 167.015625 L 226.464844 167.015625 L 226.464844 157.660156 Z M 233.109375 157.660156 L 233.109375 167.015625 L 230.226562 167.015625 L 230.226562 157.660156 Z M 236.875 157.660156 L 236.875 167.015625 L 233.988281 167.015625 L 233.988281 157.660156 Z M 240.636719 157.660156 L 240.636719 167.015625 L 237.75 167.015625 L 237.75 157.660156 Z M 244.398438 157.660156 L 244.398438 167.015625 L 241.515625 167.015625 L 241.515625 157.660156 Z M 248.160156 157.660156 L 248.160156 167.015625 L 245.277344 167.015625 L 245.277344 157.660156 Z M 251.925781 157.660156 L 251.925781 167.015625 L 249.039062 167.015625 L 249.039062 157.660156 Z M 255.6875 157.660156 L 255.6875 167.015625 L 252.800781 167.015625 L 252.800781 157.660156 Z M 259.449219 157.660156 L 259.449219 167.015625 L 256.5625 167.015625 L 256.5625 157.660156 Z M 263.210938 157.660156 L 263.210938 167.015625 L 260.328125 167.015625 L 260.328125 157.660156 Z M 266.972656 157.660156 L 266.972656 167.015625 L 264.089844 167.015625 L 264.089844 157.660156 Z M 270.738281 157.660156 L 270.738281 167.015625 L 267.851562 167.015625 L 267.851562 157.660156 Z M 274.5 157.660156 L 274.5 167.15625 C 274.148438 167.066406 273.777344 167.015625 273.398438 167.015625 L 271.613281 167.015625 L 271.613281 157.660156 Z M 187.960938 155.777344 L 187.960938 282.398438 C 187.960938 284.898438 189.988281 286.921875 192.492188 286.921875 L 273.398438 286.921875 C 275.898438 286.921875 277.929688 284.898438 277.929688 282.398438 L 277.929688 155.777344 L 187.960938 155.777344 "/><path style=" stroke:none;fill-rule:nonzero;fill:#9bca20;fill-opacity:1;" d="M 267.972656 286.921875 L 242.910156 286.921875 L 242.910156 253.648438 L 267.972656 253.648438 L 267.972656 286.921875 "/><path style=" stroke:none;fill-rule:nonzero;fill:#141c20;fill-opacity:1;" d="M 266.4375 271.851562 C 266.4375 272.433594 265.964844 272.90625 265.382812 272.90625 L 260.445312 272.90625 C 259.863281 272.90625 259.390625 272.433594 259.390625 271.851562 C 259.390625 271.269531 259.863281 270.796875 260.445312 270.796875 L 265.382812 270.796875 C 265.964844 270.796875 266.4375 271.269531 266.4375 271.851562 "/><path style=" stroke:none;fill-rule:nonzero;fill:#4cbdc5;fill-opacity:1;" d="M 242.210938 175.019531 C 241.617188 174.679688 240.933594 174.484375 240.203125 174.484375 L 226.023438 174.484375 C 223.789062 174.484375 221.976562 176.296875 221.976562 178.53125 L 221.976562 192.691406 C 221.976562 194.027344 222.625 195.207031 223.625 195.945312 C 224.296875 196.441406 225.125 196.734375 226.023438 196.734375 L 240.203125 196.734375 C 242.4375 196.734375 244.25 194.925781 244.25 192.691406 L 244.25 178.53125 C 244.25 177.027344 243.429688 175.71875 242.210938 175.019531 "/><path style=" stroke:none;fill-rule:nonzero;fill:#4cbdc5;fill-opacity:1;" d="M 272.59375 178.339844 C 272.492188 176.195312 270.726562 174.484375 268.554688 174.484375 L 254.378906 174.484375 C 252.140625 174.484375 250.328125 176.296875 250.328125 178.53125 L 250.328125 192.691406 C 250.328125 194.925781 252.140625 196.734375 254.378906 196.734375 L 268.554688 196.734375 C 270.789062 196.734375 272.601562 194.925781 272.601562 192.691406 L 272.601562 178.53125 C 272.601562 178.464844 272.597656 178.402344 272.59375 178.339844 "/><path style=" stroke:none;fill-rule:nonzero;fill:#4cbdc5;fill-opacity:1;" d="M 270.03125 201.738281 C 269.574219 201.558594 269.074219 201.457031 268.554688 201.457031 L 254.378906 201.457031 C 252.140625 201.457031 250.328125 203.269531 250.328125 205.503906 L 250.328125 219.664062 C 250.328125 220.546875 250.613281 221.363281 251.097656 222.03125 C 251.835938 223.046875 253.027344 223.707031 254.378906 223.707031 L 268.554688 223.707031 C 270.789062 223.707031 272.601562 221.894531 272.601562 219.664062 L 272.601562 205.503906 C 272.601562 203.789062 271.535156 202.328125 270.03125 201.738281 "/><path style=" stroke:none;fill-rule:nonzero;fill:#4cbdc5;fill-opacity:1;" d="M 211.511719 174.484375 L 197.335938 174.484375 C 195.097656 174.484375 193.285156 176.296875 193.285156 178.53125 L 193.285156 192.691406 C 193.285156 194.925781 195.097656 196.734375 197.335938 196.734375 L 211.511719 196.734375 C 213.75 196.734375 215.5625 194.925781 215.5625 192.691406 L 215.5625 178.53125 C 215.5625 176.296875 213.75 174.484375 211.511719 174.484375 "/><path style=" stroke:none;fill-rule:nonzero;fill:#4cbdc5;fill-opacity:1;" d="M 211.511719 201.457031 L 197.335938 201.457031 C 195.097656 201.457031 193.285156 203.269531 193.285156 205.503906 L 193.285156 219.664062 C 193.285156 221.894531 195.097656 223.707031 197.335938 223.707031 L 211.511719 223.707031 C 213.75 223.707031 215.5625 221.894531 215.5625 219.664062 L 215.5625 205.503906 C 215.5625 205.21875 215.53125 204.945312 215.476562 204.675781 C 215.097656 202.839844 213.464844 201.457031 211.511719 201.457031 "/><path style=" stroke:none;fill-rule:nonzero;fill:#4cbdc5;fill-opacity:1;" d="M 241.460938 201.65625 C 241.0625 201.527344 240.640625 201.457031 240.203125 201.457031 L 226.023438 201.457031 C 223.789062 201.457031 221.976562 203.269531 221.976562 205.503906 L 221.976562 219.664062 C 221.976562 221.894531 223.789062 223.707031 226.023438 223.707031 L 240.203125 223.707031 C 242.4375 223.707031 244.25 221.894531 244.25 219.664062 L 244.25 205.503906 C 244.25 203.707031 243.078125 202.1875 241.460938 201.65625 "/><path style=" stroke:none;fill-rule:nonzero;fill:#abe2d9;fill-opacity:1;" d="M 197.335938 196.734375 L 199.207031 196.734375 L 215.5625 179.210938 L 215.5625 178.53125 C 215.5625 176.296875 213.75 174.484375 211.511719 174.484375 L 206.800781 174.484375 L 193.285156 188.96875 L 193.285156 192.691406 C 193.285156 194.925781 195.097656 196.734375 197.335938 196.734375 "/><path style=" stroke:none;fill-rule:nonzero;fill:#abe2d9;fill-opacity:1;" d="M 223.625 195.945312 L 241.503906 176.785156 C 241.96875 176.285156 242.199219 175.652344 242.210938 175.019531 C 241.617188 174.679688 240.933594 174.484375 240.203125 174.484375 L 236.105469 174.484375 L 221.976562 189.628906 L 221.976562 192.691406 C 221.976562 194.027344 222.625 195.207031 223.625 195.945312 "/><path style=" stroke:none;fill-rule:nonzero;fill:#abe2d9;fill-opacity:1;" d="M 202.582031 214.292969 L 202.742188 214.445312 C 203.8125 215.441406 205.488281 215.382812 206.488281 214.3125 L 215.476562 204.675781 C 215.097656 202.839844 213.464844 201.457031 211.511719 201.457031 L 210.941406 201.457031 L 202.449219 210.554688 C 201.453125 211.625 201.511719 213.296875 202.582031 214.292969 "/><path style=" stroke:none;fill-rule:nonzero;fill:#abe2d9;fill-opacity:1;" d="M 240.148438 189.496094 L 233.390625 196.734375 L 240.203125 196.734375 C 242.4375 196.734375 244.25 194.925781 244.25 192.691406 L 244.25 188.917969 C 242.945312 188.132812 241.226562 188.335938 240.148438 189.496094 "/><path style=" stroke:none;fill-rule:nonzero;fill:#abe2d9;fill-opacity:1;" d="M 215.5625 219.664062 L 215.5625 215.84375 L 208.222656 223.707031 L 211.511719 223.707031 C 213.75 223.707031 215.5625 221.894531 215.5625 219.664062 "/><path style=" stroke:none;fill-rule:nonzero;fill:#abe2d9;fill-opacity:1;" d="M 228.984375 201.457031 L 221.976562 208.96875 L 221.976562 219.019531 L 238.363281 201.457031 L 228.984375 201.457031 "/><path style=" stroke:none;fill-rule:nonzero;fill:#abe2d9;fill-opacity:1;" d="M 268.554688 174.484375 L 266.8125 174.484375 L 250.328125 192.152344 L 250.328125 192.691406 C 250.328125 194.925781 252.140625 196.734375 254.378906 196.734375 L 255.429688 196.734375 L 272.59375 178.339844 C 272.492188 176.195312 270.726562 174.484375 268.554688 174.484375 "/><path style=" stroke:none;fill-rule:nonzero;fill:#abe2d9;fill-opacity:1;" d="M 241.460938 201.65625 L 232.128906 211.65625 C 230.890625 212.984375 230.960938 215.066406 232.292969 216.304688 L 232.496094 216.492188 C 233.824219 217.730469 235.90625 217.65625 237.148438 216.328125 L 244.25 208.714844 L 244.25 205.503906 C 244.25 203.707031 243.078125 202.1875 241.460938 201.65625 "/><path style=" stroke:none;fill-rule:nonzero;fill:#abe2d9;fill-opacity:1;" d="M 272.601562 192.691406 L 272.601562 191.773438 L 267.972656 196.734375 L 268.554688 196.734375 C 270.789062 196.734375 272.601562 194.925781 272.601562 192.691406 "/><path style=" stroke:none;fill-rule:nonzero;fill:#abe2d9;fill-opacity:1;" d="M 263.566406 201.457031 L 250.328125 215.644531 L 250.328125 219.664062 C 250.328125 220.546875 250.613281 221.363281 251.097656 222.03125 L 270.03125 201.738281 C 269.574219 201.558594 269.074219 201.457031 268.554688 201.457031 L 263.566406 201.457031 "/><path style=" stroke:none;fill-rule:nonzero;fill:#4cbdc5;fill-opacity:1;" d="M 270.03125 228.132812 C 269.574219 227.953125 269.074219 227.847656 268.554688 227.847656 L 254.378906 227.847656 C 252.140625 227.847656 250.328125 229.660156 250.328125 231.894531 L 250.328125 246.054688 C 250.328125 246.941406 250.613281 247.757812 251.097656 248.421875 C 251.835938 249.4375 253.027344 250.101562 254.378906 250.101562 L 268.554688 250.101562 C 270.789062 250.101562 272.601562 248.289062 272.601562 246.054688 L 272.601562 231.894531 C 272.601562 230.183594 271.535156 228.71875 270.03125 228.132812 "/><path style=" stroke:none;fill-rule:nonzero;fill:#4cbdc5;fill-opacity:1;" d="M 211.511719 227.847656 L 197.335938 227.847656 C 195.097656 227.847656 193.285156 229.660156 193.285156 231.894531 L 193.285156 246.054688 C 193.285156 248.289062 195.097656 250.101562 197.335938 250.101562 L 211.511719 250.101562 C 213.75 250.101562 215.5625 248.289062 215.5625 246.054688 L 215.5625 231.894531 C 215.5625 231.609375 215.53125 231.335938 215.476562 231.070312 C 215.097656 229.230469 213.464844 227.847656 211.511719 227.847656 "/><path style=" stroke:none;fill-rule:nonzero;fill:#4cbdc5;fill-opacity:1;" d="M 241.460938 228.050781 C 241.0625 227.921875 240.640625 227.847656 240.203125 227.847656 L 226.023438 227.847656 C 223.789062 227.847656 221.976562 229.660156 221.976562 231.894531 L 221.976562 246.054688 C 221.976562 248.289062 223.789062 250.101562 226.023438 250.101562 L 240.203125 250.101562 C 242.4375 250.101562 244.25 248.289062 244.25 246.054688 L 244.25 231.894531 C 244.25 230.097656 243.078125 228.578125 241.460938 228.050781 "/><path style=" stroke:none;fill-rule:nonzero;fill:#abe2d9;fill-opacity:1;" d="M 202.582031 240.6875 L 202.742188 240.839844 C 203.8125 241.832031 205.488281 241.773438 206.488281 240.707031 L 215.476562 231.070312 C 215.097656 229.230469 213.464844 227.847656 211.511719 227.847656 L 210.941406 227.847656 L 202.449219 236.949219 C 201.453125 238.015625 201.511719 239.691406 202.582031 240.6875 "/><path style=" stroke:none;fill-rule:nonzero;fill:#abe2d9;fill-opacity:1;" d="M 215.5625 246.054688 L 215.5625 242.234375 L 208.222656 250.101562 L 211.511719 250.101562 C 213.75 250.101562 215.5625 248.289062 215.5625 246.054688 "/><path style=" stroke:none;fill-rule:nonzero;fill:#abe2d9;fill-opacity:1;" d="M 228.984375 227.847656 L 221.976562 235.363281 L 221.976562 245.410156 L 238.363281 227.847656 L 228.984375 227.847656 "/><path style=" stroke:none;fill-rule:nonzero;fill:#abe2d9;fill-opacity:1;" d="M 241.460938 228.050781 L 232.128906 238.046875 C 230.890625 239.378906 230.960938 241.457031 232.292969 242.695312 L 232.496094 242.886719 C 233.824219 244.121094 235.90625 244.046875 237.148438 242.722656 L 244.25 235.105469 L 244.25 231.894531 C 244.25 230.097656 243.078125 228.578125 241.460938 228.050781 "/><path style=" stroke:none;fill-rule:nonzero;fill:#abe2d9;fill-opacity:1;" d="M 263.566406 227.847656 L 250.328125 242.039062 L 250.328125 246.054688 C 250.328125 246.941406 250.613281 247.757812 251.097656 248.421875 L 270.03125 228.132812 C 269.574219 227.953125 269.074219 227.847656 268.554688 227.847656 L 263.566406 227.847656 "/><path style=" stroke:none;fill-rule:nonzero;fill:#dcdbd9;fill-opacity:1;" d="M 211.195312 99.191406 C 211.195312 90.464844 218.707031 83.394531 227.972656 83.394531 C 230.203125 83.394531 232.332031 83.808594 234.28125 84.550781 C 234.269531 84.316406 234.261719 84.085938 234.261719 83.851562 C 234.261719 74.550781 241.695312 67.011719 250.867188 67.011719 C 259.28125 67.011719 266.230469 73.367188 267.316406 81.601562 C 268.121094 81.402344 268.960938 81.292969 269.828125 81.292969 C 273.785156 81.292969 277.230469 83.515625 279.042969 86.800781 C 280.207031 86.53125 281.421875 86.386719 282.671875 86.386719 C 291.066406 86.386719 297.875 92.789062 297.875 100.6875 C 297.875 108.585938 291.066406 114.992188 282.671875 114.992188 C 282.1875 114.992188 281.710938 114.96875 281.242188 114.925781 C 281.035156 114.96875 280.820312 114.992188 280.605469 114.992188 L 225.953125 114.992188 C 225.449219 114.992188 224.976562 114.871094 224.558594 114.660156 C 216.929688 113.175781 211.195312 106.816406 211.195312 99.191406 "/><g clip-rule="nonzero" clip-path="url(#324bdd076c)"><path style=" stroke:none;fill-rule:nonzero;fill:#b0aaa9;fill-opacity:1;" d="M 328.871094 94.800781 C 328.871094 87.152344 322.285156 80.949219 314.160156 80.949219 C 312.203125 80.949219 310.335938 81.316406 308.628906 81.96875 C 308.636719 81.761719 308.644531 81.558594 308.644531 81.351562 C 308.644531 73.199219 302.128906 66.589844 294.089844 66.589844 C 286.710938 66.589844 280.617188 72.160156 279.667969 79.382812 C 278.964844 79.207031 278.226562 79.109375 277.46875 79.109375 C 273.996094 79.109375 270.976562 81.058594 269.386719 83.9375 C 268.367188 83.703125 267.300781 83.578125 266.207031 83.578125 C 258.84375 83.578125 252.875 89.191406 252.875 96.113281 C 252.875 103.039062 258.84375 108.652344 266.207031 108.652344 C 266.628906 108.652344 267.046875 108.632812 267.460938 108.59375 C 267.640625 108.632812 267.828125 108.652344 268.019531 108.652344 L 315.933594 108.652344 C 316.371094 108.652344 316.785156 108.546875 317.152344 108.363281 C 323.839844 107.0625 328.871094 101.484375 328.871094 94.800781 "/></g></g></svg>