<?xml version="1.0" standalone="no"?>
<!DOCTYPE svg PUBLIC "-//W3C//DTD SVG 20010904//EN"
 "http://www.w3.org/TR/2001/REC-SVG-20010904/DTD/svg10.dtd">
<svg version="1.0" xmlns="http://www.w3.org/2000/svg"
 width="6247.000000pt" height="1320.000000pt" viewBox="0 0 6247.000000 1320.000000"
 preserveAspectRatio="xMidYMid meet">

<g transform="translate(0.000000,1320.000000) scale(0.100000,-0.100000)"
fill="#000000" stroke="none">
<path d="M18 9323 c-2 -2128 -3 -4021 -3 -4208 0 -346 7 -450 46 -715 138
-921 527 -1781 1140 -2515 123 -146 413 -440 572 -577 711 -613 1567 -1022
2497 -1192 328 -60 569 -80 960 -80 337 0 521 13 810 55 914 133 1721 466
2360 975 89 71 239 212 441 413 410 411 458 468 696 826 389 586 619 1118 768
1780 15 66 29 126 31 133 3 9 788 12 3883 12 l3879 0 16 88 c60 332 77 505 83
850 6 322 -3 500 -38 767 -116 878 -477 1734 -1028 2440 -767 982 -1873 1661
-3101 1904 -386 76 -608 96 -1060 95 -450 0 -716 -25 -1095 -99 -1712 -338
-3072 -1419 -3709 -2949 -234 -561 -354 -1128 -386 -1821 -18 -396 -72 -823
-135 -1070 -66 -259 -212 -532 -447 -836 -381 -494 -972 -841 -1612 -950 -157
-27 -458 -36 -622 -20 -672 68 -1277 397 -1703 927 -522 648 -707 1537 -479
2299 110 367 335 734 632 1030 441 438 995 705 1591 766 236 24 593 -4 853
-66 733 -175 1311 -652 1682 -1388 44 -87 82 -152 84 -145 2 7 16 74 30 148
195 982 600 1881 1130 2505 41 50 76 93 76 97 0 10 -182 172 -293 261 -761
611 -1815 1043 -2858 1168 -156 19 -236 23 -529 23 -352 0 -510 -8 -788 -45
-553 -71 -1022 -226 -1572 -519 -85 -45 -159 -86 -164 -91 -6 -5 -14 -9 -18
-9 -4 0 -8 810 -8 1800 l0 1800 -1305 0 -1305 0 -2 -3867z m13007 -1564 c779
-51 1464 -420 1922 -1034 120 -160 285 -453 309 -549 l6 -26 -2401 0 c-1321 0
-2401 3 -2401 8 1 18 152 315 200 392 212 340 527 647 872 852 393 232 779
341 1303 367 17 0 102 -4 190 -10z"/>
<path d="M21480 5791 l0 -2331 828 0 c869 0 958 3 1168 45 371 74 716 279 919
545 125 163 190 306 231 503 33 163 39 269 24 412 -46 448 -258 769 -621 939
l-90 42 87 65 c214 157 349 386 399 673 19 111 19 302 1 426 -73 482 -421 825
-960 947 -247 56 -257 56 -1153 60 l-833 4 0 -2330z m1720 1656 c98 -24 148
-44 220 -86 180 -108 278 -254 298 -448 38 -347 -143 -602 -494 -700 l-99 -27
-482 -4 -483 -3 0 646 0 646 488 -4 c401 -3 498 -7 552 -20z m22 -1892 c156
-20 257 -48 367 -101 118 -58 230 -163 278 -264 55 -114 67 -178 68 -350 0
-143 -2 -161 -28 -241 -51 -154 -170 -279 -352 -369 -102 -50 -182 -75 -325
-101 -104 -19 -160 -22 -592 -26 l-478 -5 0 736 0 736 474 0 c362 0 502 -4
588 -15z"/>
<path d="M32300 5790 l0 -2330 1508 -2 c829 -2 1680 -2 1892 0 l385 3 434 595
c238 327 437 594 442 594 4 0 211 -268 460 -595 l452 -595 424 0 c232 0 423 2
423 5 0 3 -292 380 -649 839 l-650 834 541 729 c297 400 545 734 550 741 9 10
-69 12 -392 10 l-403 -3 -347 -493 c-191 -272 -352 -498 -357 -503 -7 -7 -142
169 -383 495 l-372 506 -424 0 c-233 0 -424 -2 -424 -5 0 -2 256 -336 570
-741 l570 -736 -28 -38 c-15 -20 -288 -377 -607 -793 l-580 -757 -3 275 -2
275 -1175 0 -1175 0 0 725 0 725 1065 0 1065 0 0 325 0 325 -1065 0 -1065 0 0
635 0 635 1135 0 1135 0 0 325 0 325 -1475 0 -1475 0 0 -2330z"/>
<path d="M25545 8027 c-138 -46 -231 -136 -275 -268 -18 -52 -21 -80 -18 -154
5 -115 37 -186 119 -266 168 -166 397 -169 574 -7 66 60 115 153 124 235 21
196 -66 356 -237 436 -57 27 -80 32 -157 34 -55 2 -105 -2 -130 -10z"/>
<path d="M48419 8022 c-298 -99 -381 -482 -151 -693 164 -150 367 -157 543
-18 186 148 200 439 29 609 -30 31 -77 64 -118 83 -57 27 -81 32 -157 34 -67
2 -104 -2 -146 -15z"/>
<path d="M27990 6675 c-469 -64 -866 -308 -1121 -689 -171 -254 -264 -550
-276 -876 -11 -318 36 -551 167 -827 137 -288 355 -524 627 -679 156 -89 362
-163 543 -196 138 -25 455 -30 585 -9 551 88 981 395 1220 871 224 447 230
1051 14 1500 -92 191 -173 305 -318 451 -269 268 -576 414 -966 459 -120 13
-358 11 -475 -5z m547 -629 c255 -71 452 -241 583 -506 139 -277 143 -704 10
-988 -70 -150 -176 -287 -283 -368 -84 -64 -243 -138 -352 -166 -121 -30 -360
-32 -479 -5 -342 81 -580 309 -694 668 -17 52 -36 136 -43 185 -16 121 -6 345
20 450 95 385 350 658 686 737 109 26 110 26 290 22 146 -3 183 -7 262 -29z"/>
<path d="M40270 6675 c-275 -42 -479 -125 -706 -288 l-89 -64 -5 146 -5 146
-322 3 -323 2 0 -2480 0 -2480 325 0 325 0 0 1045 c0 575 3 1045 6 1045 3 0
24 -15 47 -34 184 -149 438 -263 687 -308 137 -25 416 -29 550 -9 516 78 938
362 1184 799 103 183 159 351 192 574 23 158 15 489 -16 633 -64 301 -204 571
-410 788 -236 249 -533 407 -889 473 -122 22 -430 27 -551 9z m503 -625 c261
-71 464 -244 593 -505 138 -280 144 -703 14 -990 -69 -154 -198 -312 -323
-397 -86 -58 -211 -114 -313 -140 -76 -19 -114 -23 -259 -22 -186 1 -247 12
-402 74 -298 119 -514 366 -600 685 -24 90 -27 118 -27 280 -1 166 1 187 26
276 56 200 124 323 251 456 151 157 325 253 543 298 106 22 394 13 497 -15z"/>
<path d="M43832 6679 c-251 -34 -511 -139 -718 -291 -98 -73 -258 -238 -336
-348 -306 -431 -393 -1035 -222 -1550 102 -306 294 -590 520 -766 202 -157
478 -279 729 -319 441 -72 910 31 1248 272 100 72 281 249 375 367 39 50 70
91 69 92 -1 1 -110 91 -242 201 -132 109 -245 202 -252 206 -8 5 -33 -25 -76
-91 -137 -211 -355 -373 -582 -433 -110 -28 -302 -36 -415 -16 -191 33 -364
131 -515 289 -55 58 -107 124 -134 172 -45 79 -121 282 -121 324 l0 22 1201 0
1202 0 -6 253 c-4 191 -10 280 -26 367 -79 447 -285 787 -606 998 -185 123
-340 189 -540 232 -116 25 -430 35 -553 19z m435 -615 c172 -35 280 -92 394
-205 61 -61 86 -95 123 -170 45 -92 86 -225 86 -281 l0 -28 -855 0 c-470 0
-855 1 -855 3 0 18 39 125 62 172 131 260 368 448 643 510 86 19 309 19 402
-1z"/>
<path d="M47410 6685 c-8 -2 -49 -9 -90 -15 -188 -31 -388 -133 -537 -274
l-53 -49 0 137 0 136 -322 0 -321 0 7 -227 c4 -126 11 -345 16 -488 5 -143 10
-752 10 -1352 l0 -1093 320 0 319 0 3 958 3 957 34 100 c59 175 119 275 229
376 126 117 239 169 415 190 117 14 219 4 332 -32 49 -15 90 -27 90 -26 10 15
124 632 118 637 -4 5 -55 20 -113 35 -89 23 -131 27 -275 30 -93 2 -177 2
-185 0z"/>
<path d="M50880 6684 c-269 -34 -506 -122 -720 -267 -106 -72 -312 -282 -389
-395 -149 -221 -237 -449 -277 -722 -23 -159 -15 -482 15 -622 111 -512 431
-930 868 -1135 130 -60 305 -117 428 -139 148 -26 441 -24 597 4 375 68 650
220 918 507 67 72 180 208 180 217 0 6 -486 411 -499 416 -4 1 -31 -36 -60
-84 -128 -208 -363 -387 -586 -444 -115 -30 -303 -37 -425 -16 -333 58 -621
320 -733 666 -14 41 -28 90 -32 108 l-7 32 1201 0 1201 0 0 233 c0 259 -13
375 -60 554 -112 429 -363 743 -750 938 -211 106 -378 145 -645 150 -104 2
-206 1 -225 -1z m452 -632 c298 -80 493 -306 543 -629 l7 -43 -856 0 c-710 0
-856 2 -856 13 0 22 35 118 65 177 118 234 377 438 630 494 103 23 363 16 467
-12z"/>
<path d="M54460 6685 c-8 -2 -49 -9 -90 -15 -171 -28 -425 -142 -569 -256 -45
-35 -83 -64 -85 -64 -2 0 -7 44 -10 98 -4 53 -9 114 -12 135 l-6 37 -324 0
-324 0 0 -32 c1 -18 8 -109 17 -203 13 -143 16 -387 20 -1547 l4 -1378 320 0
319 0 0 869 c0 930 4 1012 51 1167 26 86 94 216 152 291 80 104 184 186 302
238 168 75 445 72 612 -5 184 -85 280 -280 313 -635 6 -65 10 -483 10 -1017
l0 -908 320 0 320 0 0 1043 c0 1185 -3 1241 -77 1466 -124 381 -396 614 -814
696 -76 15 -409 30 -449 20z"/>
<path d="M57790 6684 c-95 -12 -260 -48 -341 -74 -427 -140 -780 -469 -938
-875 -222 -566 -150 -1262 176 -1717 81 -114 241 -271 351 -346 51 -35 147
-90 215 -122 214 -102 360 -142 594 -162 452 -38 894 109 1206 401 81 77 207
217 207 232 0 4 -118 98 -262 208 l-262 200 -59 -87 c-32 -48 -73 -102 -90
-120 -97 -101 -259 -191 -396 -218 -113 -22 -322 -15 -436 15 -109 29 -266
108 -346 174 -119 99 -233 275 -288 446 -111 343 -64 772 115 1043 131 199
330 333 569 383 100 21 304 22 401 1 188 -39 362 -165 479 -345 25 -39 49 -71
53 -71 16 1 517 392 517 405 0 21 -159 197 -246 271 -158 135 -294 214 -476
278 -171 59 -290 78 -513 81 -107 2 -211 1 -230 -1z"/>
<path d="M60780 6684 c-269 -34 -506 -122 -720 -267 -106 -72 -312 -282 -389
-395 -153 -227 -248 -480 -282 -755 -17 -145 -7 -465 20 -589 39 -181 126
-399 221 -553 105 -171 284 -362 435 -463 173 -116 438 -223 640 -258 148 -26
441 -24 597 4 375 68 650 220 918 507 67 72 180 208 180 217 0 6 -486 411
-499 416 -4 1 -31 -36 -60 -84 -128 -209 -362 -386 -589 -445 -112 -29 -302
-36 -422 -15 -333 58 -621 320 -733 666 -14 41 -28 90 -32 108 l-7 32 1201 0
1201 0 0 233 c0 259 -13 375 -60 554 -112 429 -363 743 -750 938 -211 106
-378 145 -645 150 -104 2 -206 1 -225 -1z m452 -632 c298 -80 493 -306 543
-629 l7 -43 -856 0 c-710 0 -856 2 -856 13 0 22 35 118 65 177 118 234 377
438 630 494 103 23 363 16 467 -12z"/>
<path d="M25340 5040 l0 -1580 320 0 320 0 0 1580 0 1580 -320 0 -320 0 0
-1580z"/>
<path d="M48230 5040 l0 -1580 320 0 320 0 0 1580 0 1580 -320 0 -320 0 0
-1580z"/>
<path d="M10451 3788 c-18 -73 -60 -216 -93 -318 -217 -670 -538 -1223 -1022
-1763 l-97 -108 32 -37 c56 -64 338 -330 464 -438 757 -648 1512 -951 2680
-1073 700 -73 1183 -48 1740 90 822 205 1705 664 2336 1217 177 155 350 345
397 437 9 18 -84 93 -1046 835 -580 448 -1061 816 -1067 818 -6 1 -43 -23 -81
-54 -362 -299 -959 -531 -1578 -615 -195 -26 -585 -36 -751 -20 -596 60 -1125
314 -1537 739 -107 110 -248 287 -307 385 -12 20 -26 37 -29 37 -4 0 -22 -60
-41 -132z"/>
</g>
</svg>
