<svg xmlns="http://www.w3.org/2000/svg" width="25" height="25" id="user">
  <g fill="#fff" transform="translate(4.417 -1032.375)">
    <circle cx="8.083" cy="1044.875" r="12.5" fill="#3a6c87"></circle>
    <path fill="#2f4b6c" d="M12.813 24.988a12.5 12.5 0 0 0 .572-.02 12.5 12.5 0 0 0 1.24-.15 12.5 12.5 0 0 0 1.219-.273 12.5 12.5 0 0 0 1.185-.395 12.5 12.5 0 0 0 1.14-.51 12.5 12.5 0 0 0 1.085-.622 12.5 12.5 0 0 0 1.016-.727 12.5 12.5 0 0 0 .939-.824 12.5 12.5 0 0 0 .852-.914 12.5 12.5 0 0 0 .755-.994 12.5 12.5 0 0 0 .655-1.067 12.5 12.5 0 0 0 .543-1.125 12.5 12.5 0 0 0 .42-1.154l-4.305-4.305-.006-.006c-.092-.092-.199-.17-.303-.25-.049-.037-.09-.084-.142-.119-.001 0-.003 0-.004-.002a2.997 2.997 0 0 0-1.07-.45h-.002c-.105-.022-.216-.024-.325-.034l-4.162-4.16a2.99 2.99 0 0 0-2.119-.881c-1.653 0-3 1.347-3 3v2c0 .22.029.431.074.637.018.08.05.154.075.232.04.126.079.25.134.37.035.074.079.143.12.214.062.11.129.216.205.316.051.07.106.134.164.198.038.043.068.092.109.132l.238.239a5.633 5.633 0 0 0-3.771 5.146.5.5 0 0 0 .5.53l5.968 5.968z" color="#000" font-family="sans-serif" font-weight="400" style="line-height:normal;text-indent:0;text-align:start;text-decoration-line:none;text-decoration-style:solid;text-decoration-color:#000;text-transform:none;block-progression:tb;isolation:auto;mix-blend-mode:normal" transform="translate(-4.417 1032.375)"></path>
    <path d="M7.012 1c-1.654 0-3 1.347-3 3v2c0 .946.45 1.782 1.136 2.332a5.632 5.632 0 0 0-3.789 5.152.5.5 0 0 0 .5.532h10.313c-.219-.213-.54-.534-.938-1h-8.75c.331-2.32 2.29-4.073 4.688-4a4.46 4.46 0 0 1 2.437.812 4.883 4.883 0 0 1-.093-.844c0-.12.019-.227.03-.343a6.07 6.07 0 0 0-.69-.293A2.984 2.984 0 0 0 10.011 6V4c0-1.653-1.347-3-3-3zm0 1c1.116 0 2 .883 2 2v2c0 1.117-.884 2-2 2-1.117 0-2-.883-2-2V4c0-1.117.883-2 2-2zm6.004 4.016c-1.65 0-3 1.343-3 2.988 0 2.265 2.09 4.221 2.646 4.775l.354.352.351-.352c.555-.552 2.649-2.505 2.649-4.775a3.002 3.002 0 0 0-3-2.988zm0 1c1.111 0 2 .886 2 1.988 0 1.397-1.282 2.887-2 3.648-.717-.761-2-2.257-2-3.648 0-1.102.888-1.988 2-1.988zm0 1c-.547 0-1 .453-1 1 0 .546.453 1 1 1 .546 0 1-.454 1-1 0-.547-.454-1-1-1z" color="#000" font-family="sans-serif" font-weight="400" overflow="visible" style="line-height:normal;text-indent:0;text-align:start;text-decoration-line:none;text-decoration-style:solid;text-decoration-color:#000;text-transform:none;block-progression:tb;isolation:auto;mix-blend-mode:normal" transform="translate(.568 1037.38)"></path>
  </g>
</svg>
