<svg xmlns="http://www.w3.org/2000/svg" width="26" height="26" id="architechture">
  <g transform="translate(0 -1026.362)">
    <circle cx="13" cy="1039.362" r="13" fill="#3a6c87"></circle>
    <path fill="#2f4b6c" d="M13.963 25.96a13 13 0 0 0 1.246-.15 13 13 0 0 0 1.268-.285 13 13 0 0 0 1.234-.408 13 13 0 0 0 1.185-.531 13 13 0 0 0 1.127-.647 13 13 0 0 0 1.057-.755 13 13 0 0 0 .977-.858 13 13 0 0 0 .886-.951 13 13 0 0 0 .786-1.035 13 13 0 0 0 .68-1.108 13 13 0 0 0 .566-1.17 13 13 0 0 0 .445-1.22 13 13 0 0 0 .32-1.26 13 13 0 0 0 .196-1.285 13 13 0 0 0 .017-.344L19 7H7.002v12l6.96 6.96z" color="#000" font-family="sans-serif" font-weight="400" style="line-height:normal;text-indent:0;text-align:start;text-decoration-line:none;text-decoration-style:solid;text-decoration-color:#000;text-transform:none;block-progression:tb;isolation:auto;mix-blend-mode:normal" transform="translate(0 1026.362)"></path>
    <path fill="#fff" d="M2.002 2H14v12H2.002V2zM5.5 5a.5.5 0 0 0-.5.5v5a.5.5 0 0 0 .5.5h5a.5.5 0 0 0 .502-.5l-.004-5a.5.5 0 0 0-.5-.5zM6 6h4v4H6z" color="#000" font-family="sans-serif" font-weight="400" overflow="visible" style="line-height:normal;text-indent:0;text-align:start;text-decoration-line:none;text-decoration-style:solid;text-decoration-color:#000;text-transform:none;block-progression:tb;isolation:auto;mix-blend-mode:normal" transform="translate(4.999 1031.362)"></path>
  </g>
</svg>
