<svg xmlns="http://www.w3.org/2000/svg" width="42" height="42" id="pin">
  <g transform="translate(0 -1010.362)">
    <circle cx="37.045" cy="28.409" r="12.5" fill="#50b748" fill-rule="evenodd" transform="translate(-41.236 983.635)scale(1.68)"></circle>
    <path fill="#10a711" d="M30.623 39.645a21 21 0 0 0 .445-.215 21 21 0 0 0 1.79-1.098 21 21 0 0 0 1.671-1.27 21 21 0 0 0 1.535-1.431 21 21 0 0 0 1.385-1.576 21 21 0 0 0 1.22-1.71 21 21 0 0 0 1.046-1.82 21 21 0 0 0 .857-1.916 21 21 0 0 0 .662-1.992 21 21 0 0 0 .073-.326L26.988 11.973c-.028-.029-.06-.054-.09-.082-.065-.064-.134-.121-.2-.182a8.33 8.33 0 0 0-.69-.563c-.07-.05-.135-.104-.205-.152a8.365 8.365 0 0 0-.903-.535c-.09-.047-.182-.09-.275-.133a8.28 8.28 0 0 0-.86-.347c-.06-.02-.117-.046-.177-.065a8.087 8.087 0 0 0-1.041-.244 7.93 7.93 0 0 0-.479-.072c-.052-.006-.105-.013-.158-.018a7.822 7.822 0 0 0-.77-.037v.002c-2.259-.048-4.413.946-5.95 2.535-.171.176-.334.359-.489.549v.002c-.154.19-.302.387-.44.59v.002c-.137.203-.265.41-.384.625v.002c-.119.214-.23.435-.328.66v.002a7.772 7.772 0 0 0-.264.687v.002a7.573 7.573 0 0 0-.197.713v.002a7.45 7.45 0 0 0-.127.736v.002c-.004.03-.004.059-.008.088-.039.295-.065.59-.07.885-.002.086.01.17.012.256.003.236.007.472.03.707.013.12.04.236.057.355.03.202.056.405.1.604.023.102.057.201.084.303.055.21.11.42.182.627.038.108.086.213.129.32.075.192.148.384.238.57.058.121.13.236.193.354.088.163.173.327.272.484.076.122.165.236.248.354.104.147.205.296.318.437.085.105.178.202.268.303.105.118.204.243.316.355l.12.117.013.016c1.72 1.95 3.44 3.9 5.158 5.852v.002l.022.023.007.006 9.973 9.973zM21.01 42a21 21 0 0 0 2.086-.105 21 21 0 0 0 2.076-.313 21 21 0 0 0 2.033-.52 21 21 0 0 0 1.973-.72 21 21 0 0 0 1.414-.684l-7.203-7.203-.004-.004h.004c-.046-.03-.083-.071-.127-.103a4.692 4.692 0 0 1-.38-.315l-.509-.51c-.022-.025-.047-.047-.068-.072h-.3l-3.821-3.822-.02-.02-.004-.004c-.005-.005-.014-.006-.02-.011a.435.435 0 0 0-.134-.09.542.542 0 0 0-.21-.04h-3.741a.5.5 0 0 0-.43.245l-2.383 3.986v.004l-.004.01a.478.478 0 0 0-.058.219c-.001.017-.003.032-.002.049.004.076.022.15.058.216l.01.016a.51.51 0 0 0 .074.102L21.01 42z" color="#000" font-family="sans-serif" font-weight="400" style="line-height:normal;text-indent:0;text-align:start;text-decoration-line:none;text-decoration-style:solid;text-decoration-color:#000;text-transform:none;block-progression:tb;isolation:auto;mix-blend-mode:normal" transform="translate(0 1010.362)"></path>
    <path fill="#fff" d="M16.004 4.547v.002c-4.016-.086-7.7 3.122-8.18 7.107-.375 2.609.6 5.307 2.489 7.12 1.725 1.954 3.45 3.911 5.171 5.869a.499.499 0 0 0 .153.117c.172.086.362.08.539.043a5.372 5.372 0 0 1-.295-1.223 4726.266 4726.266 0 0 0-4.846-5.5.458.458 0 0 0-.03-.03c-1.654-1.587-2.52-3.991-2.193-6.259l.002-.012c.41-3.442 3.709-6.314 7.174-6.236h.016c2.975-.027 5.823 1.945 6.797 4.76l.006.015c.88 2.292.419 5.02-1.112 6.942-.073.088-.152.172-.226.26.393.014.776.071 1.144.167 1.635-2.184 2.11-5.149 1.13-7.716-1.124-3.236-4.327-5.453-7.739-5.426zm-.012 4.72c-.957-.01-1.873.403-2.53 1.079-1.59 1.527-1.202 4.288.63 5.43 1.875 1.281 4.625.26 5.271-1.893.792-2.2-1.035-4.706-3.37-4.615zm.002.995v.002h.028c1.581-.068 2.946 1.803 2.4 3.293a.56.56 0 0 0-.01.029c-.434 1.475-2.487 2.24-3.764 1.361-.006 0-.012-.011-.02-.015-1.262-.778-1.56-2.84-.47-3.877.006 0 .01-.01.016-.014.47-.487 1.153-.787 1.82-.78zm5.266 8.252c-2.437 0-4.42 1.99-4.42 4.431 0 2.442 1.983 4.434 4.42 4.434 2.436 0 4.422-1.992 4.422-4.434 0-2.441-1.986-4.431-4.422-4.431zm0 1a3.42 3.42 0 0 1 3.422 3.431 3.42 3.42 0 1 1-6.842 0 3.418 3.418 0 0 1 3.42-3.431zm1.525 1.925v.006a.5.5 0 0 0-.344.153L20.79 23.26l-.697-.678a.5.5 0 1 0-.695.719l1.052 1.02a.5.5 0 0 0 .701-.012l2-2.012a.5.5 0 0 0-.365-.858zM8.916 22.47a.5.5 0 0 0-.43.244l-2.38 3.986a.5.5 0 0 0 .43.756h11.716a5.488 5.488 0 0 1-1.086-1h-9.75l1.783-2.986h3.461c.676.01.676-1.01 0-1H8.916zm16.508 3.902c-.337.41-.714.787-1.154 1.084h.92a.5.5 0 0 0 .43-.756l-.196-.328z" color="#000" font-family="sans-serif" font-weight="400" overflow="visible" style="line-height:normal;text-indent:0;text-align:start;text-decoration-line:none;text-decoration-style:solid;text-decoration-color:#000;text-transform:none;block-progression:tb;isolation:auto;mix-blend-mode:normal" transform="translate(5.138 1015.361)"></path>
  </g>
</svg>
