<svg xmlns="http://www.w3.org/2000/svg" width="26" height="26" id="architechture">
  <g fill="#fff" transform="translate(5 -1031.362)">
    <circle cx="8" cy="1044.362" r="13" fill="#ef4c45" fill-rule="evenodd"></circle>
    <path fill="#df2209" d="M12.475 25.975A13 13 0 0 0 13 26a13 13 0 0 0 .92-.033 13 13 0 0 0 1.289-.156 13 13 0 0 0 1.268-.286 13 13 0 0 0 1.234-.408 13 13 0 0 0 1.185-.531 13 13 0 0 0 1.127-.647 13 13 0 0 0 1.057-.755 13 13 0 0 0 .977-.858 13 13 0 0 0 .886-.951 13 13 0 0 0 .786-1.035 13 13 0 0 0 .68-1.108 13 13 0 0 0 .566-1.17 13 13 0 0 0 .445-1.22 13 13 0 0 0 .32-1.26 13 13 0 0 0 .196-1.285A13 13 0 0 0 26 13a13 13 0 0 0-.02-.52L20 6.5a.5.5 0 0 0-.5-.5h-13a.5.5 0 0 0-.5.5v13a.5.5 0 0 0 .5.5l5.975 5.975z" color="#000" font-family="sans-serif" font-weight="400" style="line-height:normal;text-indent:0;text-align:start;text-decoration-line:none;text-decoration-style:solid;text-decoration-color:#000;text-transform:none;block-progression:tb;isolation:auto;mix-blend-mode:normal" transform="translate(-5 1031.362)"></path>
    <path d="M1.5 1a.5.5 0 0 0-.5.5v13a.5.5 0 0 0 .5.5h13a.5.5 0 0 0 .5-.5v-13a.5.5 0 0 0-.5-.5h-13Zm.502 1H14v12H2.002V2zM5.5 5a.5.5 0 0 0-.5.5v5a.5.5 0 0 0 .5.5h5a.5.5 0 0 0 .502-.5l-.004-5a.5.5 0 0 0-.5-.5H5.5ZM6 6h4v4H6V6z" color="#000" font-family="sans-serif" font-weight="400" overflow="visible" style="line-height:normal;text-indent:0;text-align:start;text-decoration-line:none;text-decoration-style:solid;text-decoration-color:#000;text-transform:none;block-progression:tb;isolation:auto;mix-blend-mode:normal" transform="translate(0 1036.362)"></path>
  </g>
</svg>
