<svg xmlns="http://www.w3.org/2000/svg" width="25" height="25" id="user">
  <g fill="#fff" transform="translate(4.417 -1032.375)">
    <circle cx="37.045" cy="28.409" r="12.5" fill="#50b748" fill-rule="evenodd" transform="translate(-28.962 1016.466)"></circle>
    <path fill="#10a711" d="M12.629 24.994a12.5 12.5 0 0 0 1.119-.056 12.5 12.5 0 0 0 1.234-.188 12.5 12.5 0 0 0 1.211-.309 12.5 12.5 0 0 0 1.174-.427 12.5 12.5 0 0 0 1.125-.543 12.5 12.5 0 0 0 1.067-.655 12.5 12.5 0 0 0 .994-.755 12.5 12.5 0 0 0 .914-.852 12.5 12.5 0 0 0 .824-.94 12.5 12.5 0 0 0 .727-1.015 12.5 12.5 0 0 0 .623-1.084 12.5 12.5 0 0 0 .51-1.14 12.5 12.5 0 0 0 .38-1.143l-3.705-3.705a3.983 3.983 0 0 0-2.547-1.145l-4.164-4.164a2.99 2.99 0 0 0-2.119-.88c-1.653 0-3 1.346-3 3v2c0 .222.03.436.076.644.017.075.046.144.069.217.04.13.082.257.138.378.037.08.082.152.125.227.061.106.124.21.198.307.052.07.107.136.166.2.038.043.069.091.109.132l.242.242c-2.133.757-3.706 2.742-3.78 5.137a.459.459 0 0 0 .034.199c.014.034.04.061.06.092.019.027.03.056.053.08.003.002.003.007.006.01l6.137 6.136z" color="#000" font-family="sans-serif" font-weight="400" style="line-height:normal;text-indent:0;text-align:start;text-decoration-line:none;text-decoration-style:solid;text-decoration-color:#000;text-transform:none;block-progression:tb;isolation:auto;mix-blend-mode:normal" transform="translate(-4.417 1032.375)"></path>
    <path d="M6.01 1.002c-1.654 0-3 1.347-3 3v2c0 .95.451 1.79 1.142 2.34C2.01 9.094.427 11.084.354 13.486a.52.52 0 0 0 .5.532h9.187a4.44 4.44 0 0 1-1.312-1h-7.25c.33-2.32 2.289-4.073 4.687-4 .51.015.99.113 1.438.28.052-.323.123-.641.24-.939A2.988 2.988 0 0 0 9.01 6.002v-2c0-1.653-1.347-3-3-3zm0 1c1.116 0 2 .883 2 2v2c0 1.117-.884 2-2 2-1.117 0-2-.883-2-2v-2c0-1.117.883-2 2-2zm6.004 4.016c-2.204 0-4 1.796-4 4 0 2.203 1.796 4 4 4 2.203 0 4-1.797 4-4 0-2.204-1.797-4-4-4zm0 1c1.662 0 3 1.337 3 3 0 1.662-1.338 3-3 3-1.663 0-3-1.338-3-3 0-1.663 1.337-3 3-3zm-.506 1v2h1v-2h-1zm0 3v1h1v-1h-1z" color="#000" font-family="sans-serif" font-weight="400" overflow="visible" style="line-height:normal;text-indent:0;text-align:start;text-decoration-line:none;text-decoration-style:solid;text-decoration-color:#000;text-transform:none;block-progression:tb;isolation:auto;mix-blend-mode:normal" transform="translate(1.57 1037.365)"></path>
  </g>
</svg>
