<svg id="SvgjsSvg1001" width="288" height="288" xmlns="http://www.w3.org/2000/svg" version="1.1" xmlns:xlink="http://www.w3.org/1999/xlink" xmlns:svgjs="http://svgjs.com/svgjs"><defs id="SvgjsDefs1002"></defs><g id="SvgjsG1008"><svg xmlns="http://www.w3.org/2000/svg" viewBox="0 0 25 25" width="288" height="288"><g transform="translate(0 -1027.362)"><circle cx="37.045" cy="28.409" r="12.5" fill="#74f9ff" fill-rule="evenodd" transform="translate(-24.545 1011.453)" class="color50b748 svgShape"></circle><path style="line-height:normal;text-indent:0;text-align:start;text-decoration-line:none;text-decoration-style:solid;text-decoration-color:#000;text-transform:none;block-progression:tb;isolation:auto;mix-blend-mode:normal" fill="#00e0ff" d="M17.12 24.104a12.5 12.5 0 0 0 .247-.09 12.5 12.5 0 0 0 1.125-.543 12.5 12.5 0 0 0 1.067-.655 12.5 12.5 0 0 0 .994-.755 12.5 12.5 0 0 0 .914-.852 12.5 12.5 0 0 0 .824-.94 12.5 12.5 0 0 0 .727-1.015 12.5 12.5 0 0 0 .623-1.084 12.5 12.5 0 0 0 .51-1.14 12.5 12.5 0 0 0 .394-1.186 12.5 12.5 0 0 0 .234-1.05l-8.037-8.036-.707.707a4.98 4.98 0 0 1 1.375 2.58c.014.071.01.145.022.217l-2.09-2.09-.707.707c.632.632.911 1.471.863 2.295l-1.586-1.586a1.994 1.994 0 0 0-2.824 0l-.71-.71-.706-.706-.707-.707-.707-.707a6.007 6.007 0 0 0 0 8.484l8.861 8.862z" color="#000" font-family="sans-serif" font-weight="400" transform="translate(0 1027.362)" class="color10a711 svgShape"></path><path style="line-height:normal;text-indent:0;text-align:start;text-decoration-line:none;text-decoration-style:solid;text-decoration-color:#000;text-transform:none;block-progression:tb;isolation:auto;mix-blend-mode:normal" fill="#e8ffe8" d="M4.266 1.762a6.007 6.007 0 0 0 0 8.484l.707-.707a4.992 4.992 0 0 1 0-7.07l-.707-.707Zm8.484 0-.707.707a4.992 4.992 0 0 1 0 7.07l.707.707a6.007 6.007 0 0 0 0-8.484zM5.68 3.176a4.007 4.007 0 0 0 0 5.656l.707-.707a2.992 2.992 0 0 1 0-4.242l-.707-.707Zm5.67 0-.707.707a2.992 2.992 0 0 1 0 4.242l.707.707a4.007 4.007 0 0 0 0-5.656zm-2.842.828c-1.099 0-2 .901-2 2 0 .925.642 1.703 1.5 1.928v5.072h1V7.932a2.003 2.003 0 0 0 1.5-1.928c0-1.099-.902-2-2-2zm0 1c.558 0 1 .442 1 1s-.442 1-1 1-1-.442-1-1 .442-1 1-1z" color="#000" font-family="sans-serif" font-weight="400" overflow="visible" transform="translate(3.992 1032.358)" class="colorfff svgShape"></path></g></svg></g></svg>