<svg xmlns="http://www.w3.org/2000/svg" width="42" height="42" id="pin">
  <g transform="translate(0 -1010.362)">
    <circle cx="21" cy="1031.362" r="21" fill="#239fdb" fill-rule="evenodd"></circle>
    <path fill="#0b5ecd" d="M29.52 40.164a21 21 0 0 0 .173-.076l-8.65-8.65a.5.5 0 0 0 .045-.002l8.637 8.636a21 21 0 0 0 .8-.357 21 21 0 0 0 1.82-1.045 21 21 0 0 0 1.71-1.22 21 21 0 0 0 1.576-1.386 21 21 0 0 0 1.431-1.535 21 21 0 0 0 1.27-1.672 21 21 0 0 0 1.098-1.789 21 21 0 0 0 .912-1.89 21 21 0 0 0 .601-1.645L26.83 13.42A8.224 8.224 0 0 0 21 11c-4.547 0-8.25 3.703-8.25 8.25 0 2.265.93 4.317 2.408 5.805.018.033.028.059.078.11l.012.01 3.408 3.829.043.043a.5.5 0 0 0 .082.129l1.844 2.094a.5.5 0 0 0 .035.035l8.86 8.86z" color="#000" font-family="sans-serif" font-weight="400" style="line-height:normal;text-indent:0;text-align:start;text-decoration-line:none;text-decoration-style:solid;text-decoration-color:#000;text-transform:none;block-progression:tb;isolation:auto;mix-blend-mode:normal" transform="translate(0 1010.362)"></path>
    <path fill="#fff" d="M16 5.781c-4.547 0-8.25 3.703-8.25 8.25 0 2.266.93 4.317 2.408 5.805.02.035.03.064.09.121l3.408 3.828v-.16a.5.5 0 0 0 .125.332l1.844 2.094a.5.5 0 0 0 .375.168h.031a.5.5 0 0 0 .373-.166l1.875-2.094a.5.5 0 0 0 .127-.318v.142l3.844-4.357a.5.5 0 0 0 .117-.244c1.142-1.413 1.883-3.19 1.883-5.15 0-4.548-3.703-8.25-8.25-8.25zm0 1a7.248 7.248 0 0 1 7.25 7.25 7.235 7.235 0 0 1-1.785 4.737.5.5 0 0 0-.076.12l-3.858 4.376a.5.5 0 0 0-.125.318v-.146l-1.386 1.548-1.364-1.547v.159a.5.5 0 0 0-.127-.334l-3.562-4a.5.5 0 0 0-.004 0c-.018-.032-.025-.058-.078-.112a7.21 7.21 0 0 1-2.135-5.115A7.248 7.248 0 0 1 16 6.785v-.004Zm0 3.719a3.541 3.541 0 0 0-3.531 3.531A3.541 3.541 0 0 0 16 17.562a3.541 3.541 0 0 0 3.531-3.53A3.541 3.541 0 0 0 16 10.5Zm0 1c1.4 0 2.531 1.131 2.531 2.531 0 1.4-1.13 2.531-2.531 2.531a2.529 2.529 0 0 1-2.531-2.53c0-1.4 1.13-2.532 2.531-2.532Zm-1.457 1.947a.5.5 0 0 0 .05 1h3.04a.5.5 0 1 0 0-1h-3.04a.5.5 0 0 0-.05 0z" color="#000" font-family="sans-serif" font-weight="400" overflow="visible" style="line-height:normal;text-indent:0;text-align:start;text-decoration-line:none;text-decoration-style:solid;text-decoration-color:#000;text-transform:none;block-progression:tb;isolation:auto;mix-blend-mode:normal" transform="translate(5 1015.58)"></path>
  </g>
</svg>
