<svg xmlns="http://www.w3.org/2000/svg" width="26" height="26" id="denied">
  <g transform="translate(0 -1026.362)">
    <circle cx="13" cy="1039.362" r="13" fill="#ffa40b" fill-rule="evenodd"></circle>
    <path fill="#ff7712" d="M16.896 25.387a13 13 0 0 0 .815-.27 13 13 0 0 0 1.185-.531 13 13 0 0 0 1.127-.647 13 13 0 0 0 1.057-.755 13 13 0 0 0 .977-.858 13 13 0 0 0 .886-.951 13 13 0 0 0 .786-1.035 13 13 0 0 0 .68-1.108 13 13 0 0 0 .566-1.17 13 13 0 0 0 .421-1.156l-8.152-8.15A5.98 5.98 0 0 0 13 7a5.994 5.994 0 0 0-6.002 6c0 .622.095 1.221.27 1.785v.002c.116.375.269.735.453 1.074v.002c.276.51.626.975 1.033 1.381l8.142 8.143z" color="#000" font-family="sans-serif" font-weight="400" style="line-height:normal;text-indent:0;text-align:start;text-decoration-line:none;text-decoration-style:solid;text-decoration-color:#000;text-transform:none;block-progression:tb;isolation:auto;mix-blend-mode:normal;marker:none" transform="translate(0 1026.362)"></path>
    <path fill="#fff" d="M8 2c3.32 0 6 2.68 6 6s-2.68 6-6 6a5.994 5.994 0 0 1-6.002-6C1.998 4.68 4.68 2 8 2Zm-.492 3-.016 4h.998l.018-4Zm.484 5a.5.5 0 1 0 0 1 .5.5 0 0 0 0-1z" color="#000" font-family="sans-serif" font-weight="400" overflow="visible" style="line-height:normal;text-indent:0;text-align:start;text-decoration-line:none;text-decoration-style:solid;text-decoration-color:#000;text-transform:none;block-progression:tb;isolation:auto;mix-blend-mode:normal;marker:none" transform="translate(5.001 1031.362)"></path>
  </g>
</svg>
