<svg xmlns="http://www.w3.org/2000/svg" width="26" height="26" id="false">
  <g transform="translate(0 -1026.362)">
    <circle cx="13" cy="1039.362" r="13" fill="#ef4c45" fill-rule="evenodd"></circle>
    <path fill="#df2209" d="M16.682 25.457a13 13 0 0 0 1.029-.34 13 13 0 0 0 1.185-.531 13 13 0 0 0 1.127-.647 13 13 0 0 0 1.057-.755 13 13 0 0 0 .977-.858 13 13 0 0 0 .886-.951 13 13 0 0 0 .786-1.035 13 13 0 0 0 .68-1.108 13 13 0 0 0 .566-1.17 13 13 0 0 0 .445-1.22 13 13 0 0 0 .039-.154l-6.602-6.602-2.939-2.94a.499.499 0 0 0-.707 0L12.998 9.36l-2.213-2.213a.5.5 0 0 0-.707 0L7.145 10.08a.5.5 0 0 0 0 .707L9.357 13l-2.212 2.213a.497.497 0 0 0-.147.353v.002c0 .128.05.257.147.354l2.933 2.932 6.604 6.603z" color="#000" font-family="sans-serif" font-weight="400" style="line-height:normal;text-indent:0;text-align:start;text-decoration-line:none;text-decoration-style:solid;text-decoration-color:#000;text-transform:none;block-progression:tb;isolation:auto;mix-blend-mode:normal" transform="translate(0 1026.362)"></path>
    <path fill="#fff" d="M5.426 2a.5.5 0 0 0-.346.146L2.146 5.08a.5.5 0 0 0 0 .707L4.36 8l-2.213 2.213a.5.5 0 0 0 0 .709l2.934 2.932a.5.5 0 0 0 .707 0L8 11.643l2.213 2.21a.5.5 0 0 0 .707 0l2.935-2.931a.5.5 0 0 0 0-.71L11.641 8l2.214-2.213a.5.5 0 0 0 0-.707L10.92 2.146a.5.5 0 0 0-.707 0L8 4.36 5.787 2.146A.5.5 0 0 0 5.426 2Z" color="#000" font-family="sans-serif" font-weight="400" overflow="visible" style="line-height:normal;text-indent:0;text-align:start;text-decoration-line:none;text-decoration-style:solid;text-decoration-color:#000;text-transform:none;block-progression:tb;isolation:auto;mix-blend-mode:normal" transform="translate(4.999 1031.362)"></path>
  </g>
</svg>
